# Blender v2.80 (sub 74) OBJ File: 'pyramid.blend'
# www.blender.org
mtllib pyramid.mtl
o Cube
v 0.500000 0.500000 0.000000
v -0.500000 0.500000 0.000000
v 0.500000 -0.500000 0.000000
v -0.500000 -0.500000 0.000000
v 0.000000 0.000000 1.000000
vt 0.000000 0.000000
vt 0.000000 1.000000
vt 1.000000 1.000000
vt 1.000000 0.000000
vt 0.000000 0.000000
vn 0.0000 0.0000 -1.0000
vn 0.0000 0.8944 0.4472
vn 0.8944 0.0000 0.4472
vn 0.0000 -0.8944 0.4472
vn -0.8944 0.0000 0.4472
usemtl Material
s off
f 4/1/1 2/2/1 1/3/1 3/4/1
f 2/2/2 5/5/2 1/3/2
f 1/3/3 5/5/3 3/4/3
f 3/4/4 5/5/4 4/1/4
f 4/1/5 5/5/5 2/2/5
