<?xml version="1.0" encoding="UTF-8" standalone="no"?>
<!-- Created with Inkscape (http://www.inkscape.org/) -->

<svg
   width="40mm"
   height="40mm"
   viewBox="0 0 40 40"
   version="1.1"
   id="svg1"
   xml:space="preserve"
   inkscape:version="1.3.1 (91b66b0783, 2023-11-16)"
   sodipodi:docname="canvas.svg"
   inkscape:export-filename="axis.svg"
   inkscape:export-xdpi="96"
   inkscape:export-ydpi="96"
   xmlns:inkscape="http://www.inkscape.org/namespaces/inkscape"
   xmlns:sodipodi="http://sodipodi.sourceforge.net/DTD/sodipodi-0.dtd"
   xmlns="http://www.w3.org/2000/svg"
   xmlns:svg="http://www.w3.org/2000/svg"><sodipodi:namedview
     id="namedview1"
     pagecolor="#ffffff"
     bordercolor="#000000"
     borderopacity="0.25"
     inkscape:showpageshadow="2"
     inkscape:pageopacity="0.0"
     inkscape:pagecheckerboard="0"
     inkscape:deskcolor="#d1d1d1"
     inkscape:document-units="mm"
     inkscape:zoom="10.330712"
     inkscape:cx="99.84791"
     inkscape:cy="91.184422"
     inkscape:window-width="3840"
     inkscape:window-height="2054"
     inkscape:window-x="-11"
     inkscape:window-y="-11"
     inkscape:window-maximized="1"
     inkscape:current-layer="layer1"
     showguides="true"
     showgrid="true"><inkscape:grid
       id="grid79"
       units="mm"
       originx="0"
       originy="0"
       spacingx="0.99999998"
       spacingy="0.99999997"
       empcolor="#0099e5"
       empopacity="0.30196078"
       color="#0099e5"
       opacity="0.14901961"
       empspacing="5"
       dotted="false"
       gridanglex="30"
       gridanglez="30"
       visible="true" /></sodipodi:namedview><defs
     id="defs1" /><g
     inkscape:label="Layer 1"
     inkscape:groupmode="layer"
     id="layer1"
     transform="translate(-98.500597,-113.80108)"><path
       style="fill:#000000;stroke-width:1.71747"
       d="m 112.05016,147.42155 c -3.80142,-1.70366 -7.19235,-3.37006 -7.53542,-3.70309 -0.35983,-0.34928 -0.68786,-4.8861 -0.77524,-10.7217 -0.0974,-6.50111 0.0683,-10.07522 0.46347,-10.00155 0.33823,0.0631 3.81812,1.19658 7.7331,2.51893 l 7.11814,2.40426 6.87199,-2.20388 c 3.77959,-1.21212 6.87199,-2.37919 6.87199,-2.59345 0,-0.21427 -2.24204,-1.01847 -4.98234,-1.78711 -2.7403,-0.76867 -4.74658,-1.46687 -4.4584,-1.55158 0.28818,-0.0848 3.01451,0.46037 6.05852,1.21128 l 5.53456,1.36528 v 10.94823 10.94822 l -7.33417,3.1918 c -4.0338,1.75547 -7.63126,3.16482 -7.99436,3.13186 -0.36312,-0.033 -3.77044,-1.45382 -7.57184,-3.1575 z m 7.31136,-7.82625 c 0.0507,-5.08904 0.11993,-9.58858 0.15374,-9.99899 0.0357,-0.43338 -2.38755,-1.52328 -5.78054,-2.59986 -3.21311,-1.01953 -6.60303,-2.03201 -7.53314,-2.24996 l -1.69111,-0.39627 v 4.09835 c 0,2.25409 0.17616,6.50771 0.39149,9.45248 l 0.3915,5.35413 6.21923,2.74943 c 3.42057,1.51219 6.56514,2.77062 6.98791,2.79647 0.58028,0.0355 0.79129,-2.22092 0.86093,-9.20578 z m 11.95827,4.47406 2.51879,-1.06951 0.39787,-4.09009 c 0.21882,-2.24955 0.39983,-6.46935 0.40223,-9.37731 0.003,-3.98266 -0.1853,-5.21805 -0.76433,-5.00689 -0.42277,0.15416 -3.60515,1.18026 -7.07193,2.28016 l -6.30324,1.99981 v 9.99632 9.99632 l 4.15092,-1.82964 c 2.28301,-1.00631 5.28436,-2.31094 6.66969,-2.89917 z"
       id="path121" /><g
       id="g127"
       transform="translate(-2.610583e-6,-0.50000079)"><path
         style="fill:none;fill-opacity:1;stroke:#009000;stroke-width:1.93;stroke-linecap:round;stroke-linejoin:round;stroke-miterlimit:13.7;stroke-dasharray:none;stroke-opacity:1"
         d="m 119.5006,135.80108 15,6"
         id="path124"
         sodipodi:nodetypes="cc" /><path
         style="fill:none;fill-opacity:1;stroke:#fc0000;stroke-width:1.93;stroke-linecap:round;stroke-linejoin:round;stroke-miterlimit:13.7;stroke-dasharray:none;stroke-opacity:1"
         d="m 119.5006,135.80108 -14,7"
         id="path125" /><path
         style="fill:none;fill-opacity:1;stroke:#0020f8;stroke-width:1.93;stroke-linecap:round;stroke-linejoin:round;stroke-miterlimit:13.7;stroke-dasharray:none;stroke-opacity:1"
         d="m 119.58058,119.81238 -0.08,14.9887"
         id="path126" /><ellipse
         style="fill:#a8a339;fill-opacity:0.90411;stroke:#fbfdf8;stroke-width:0.63;stroke-linecap:round;stroke-linejoin:round;stroke-miterlimit:13.7;stroke-dasharray:none;stroke-opacity:1"
         id="path127"
         cx="119.54058"
         cy="135.76608"
         rx="0.83305764"
         ry="0.8421126" /></g></g></svg>
