<?xml version="1.0" encoding="UTF-8" standalone="no"?>
<!-- Created with Inkscape (http://www.inkscape.org/) -->

<svg
   width="40mm"
   height="40mm"
   viewBox="0 0 40 40"
   version="1.1"
   id="svg1"
   xml:space="preserve"
   inkscape:version="1.3.1 (91b66b0783, 2023-11-16)"
   sodipodi:docname="canvas.svg"
   inkscape:export-filename="painting.svg"
   inkscape:export-xdpi="96"
   inkscape:export-ydpi="96"
   xmlns:inkscape="http://www.inkscape.org/namespaces/inkscape"
   xmlns:sodipodi="http://sodipodi.sourceforge.net/DTD/sodipodi-0.dtd"
   xmlns="http://www.w3.org/2000/svg"
   xmlns:svg="http://www.w3.org/2000/svg"><sodipodi:namedview
     id="namedview1"
     pagecolor="#ffffff"
     bordercolor="#000000"
     borderopacity="0.25"
     inkscape:showpageshadow="2"
     inkscape:pageopacity="0.0"
     inkscape:pagecheckerboard="0"
     inkscape:deskcolor="#d1d1d1"
     inkscape:document-units="mm"
     inkscape:zoom="0.91311456"
     inkscape:cx="-222.8636"
     inkscape:cy="-109.51528"
     inkscape:window-width="3840"
     inkscape:window-height="2054"
     inkscape:window-x="-11"
     inkscape:window-y="-11"
     inkscape:window-maximized="1"
     inkscape:current-layer="layer1"
     showguides="true"
     showgrid="true"><inkscape:grid
       id="grid79"
       units="mm"
       originx="0"
       originy="0"
       spacingx="0.99999998"
       spacingy="0.99999997"
       empcolor="#0099e5"
       empopacity="0.30196078"
       color="#0099e5"
       opacity="0.14901961"
       empspacing="5"
       dotted="false"
       gridanglex="30"
       gridanglez="30"
       visible="true" /></sodipodi:namedview><defs
     id="defs1" /><g
     inkscape:label="Layer 1"
     inkscape:groupmode="layer"
     id="layer1"
     transform="translate(-98.500597,-113.80108)"><g
       inkscape:label="Layer 1"
       id="layer1-3-8-7-2"
       transform="matrix(0.18030509,0,0,0.18030509,101.50649,121.29833)"
       style="fill:#000000;fill-opacity:0.16"><path
         fill="#ffd800"
         d="m 79.433715,14.466162 0.632648,0.128716 0.607148,0.110501 0.364289,0.132358 0.491789,0.134787 8.769645,2.790452 4.139535,1.328439 4.933685,1.572514 2.228236,0.739506 3.7206,1.209439 3.3721,1.092866 5.95127,1.934373 3.8056,1.233725 7.09149,2.282877 0.42015,0.128715 2.16144,0.707934 c 1.01191,0.386146 2.0384,0.713601 3.07946,0.982366 l 1.4438,0.496647 5.91969,1.944088 3.79467,1.20701 12.47325,4.132249 c 1.5968,0.53429 3.30653,0.994508 4.82076,1.738871 0.10605,0.05181 0.19995,0.121028 0.28171,0.207645 0.0988,0.154621 0.25015,0.213716 0.45415,0.177287 0.18579,0.318146 0.44565,0.304789 0.64115,0.562219 0.0227,0.02995 0.0526,0.04493 0.0899,0.04493 h 0.0534 c 0.0291,0 0.0514,0.01214 0.0668,0.03643 0.14693,0.223431 0.37521,0.295074 0.52457,0.429861 0.30236,0.272002 0.48329,0.469933 0.87187,0.738292 0.26836,0.185787 0.38857,0.499076 0.57922,0.694577 0.25743,0.262288 0.50271,0.473576 0.71158,0.790507 0.17485,0.265526 0.3655,0.519314 0.57193,0.761363 0.17567,0.20724 0.47357,0.749626 0.89372,1.627157 l 0.0874,0.297502 0.15786,0.304789 0.0899,0.299931 0.38736,1.151152 0.0984,0.427432 c 0.009,0.06638 0.0251,0.08217 0.0486,0.04736 l 0.0643,0.473575 0.0437,0.02914 0.0814,0.667863 c 0.003,0.02995 0.0167,0.0506 0.0401,0.06193 l 0.0826,0.938651 0.034,0.365503 0.0158,1.213082 -0.1615,1.63687 -0.31572,1.304154 -0.66179,2.066732 -0.2295,0.699435 c -0.003,0.0097 -0.007,0.01902 -0.01,0.02793 l -4.37268,13.11561 -0.357,1.092866 -0.57679,1.704871 -4.02661,11.828456 -0.38007,1.162082 -0.119,0.360645 -0.13479,0.392218 -0.10929,0.337574 -0.2465,0.76015 -0.663,1.972016 -3.58946,10.502458 -0.11779,0.36671 -0.23436,0.72615 -0.4845,1.46201 -0.75044,2.20516 -0.18457,0.49058 -2.72124,8.01314 -0.47115,1.44258 c -0.004,0.005 -0.008,0.009 -0.0109,0.0134 l -0.289,0.82936 -3.21546,9.39865 -0.32907,0.97387 c -0.65896,1.88863 -1.32358,3.78091 -1.99387,5.67683 -0.34081,0.96658 -0.94634,2.06188 -1.81659,3.28589 -2.76941,3.89546 -5.59507,7.75004 -8.477,11.56374 -0.73829,0.97872 -1.51665,2.03516 -2.34602,2.83781 -1.62837,1.57494 -3.3636,2.52209 -5.60276,2.99567 -1.17139,0.19105 -2.34643,0.23881 -3.5251,0.14328 -0.0494,-0.0316 -0.0806,-0.0357 -0.0935,-0.0122 -0.7051,-0.0971 -1.40049,-0.2469 -2.08616,-0.44929 l -1.3418,-0.47843 c -0.0729,-0.0575 -0.16272,-0.1 -0.26957,-0.1275 -0.10767,-0.0664 -0.21899,-0.10607 -0.33394,-0.119 l -0.61321,-0.24772 c -0.38048,-0.19185 -0.78565,-0.34931 -1.21551,-0.47236 -0.17891,-0.11819 -0.38048,-0.20076 -0.60472,-0.24771 -0.17972,-0.11901 -0.38251,-0.20037 -0.60837,-0.24408 -0.17647,-0.12062 -0.37845,-0.20117 -0.60593,-0.24164 l -0.60836,-0.24043 c -0.17,-0.11415 -0.36348,-0.19348 -0.58044,-0.238 -0.007,-0.003 -0.0135,-0.007 -0.0206,-0.0109 l -0.612,-0.23679 -0.60593,-0.25014 -1.2143,-0.48451 -0.60715,-0.23921 c -0.17971,-0.12143 -0.3825,-0.20239 -0.60836,-0.24287 -0.15705,-0.10605 -0.34041,-0.17526 -0.55008,-0.20764 0.007,-0.0283 -0.009,-0.0405 -0.0498,-0.0364 l -0.58893,-0.23557 c -0.007,-0.004 -0.0131,-0.008 -0.0194,-0.0122 l -1.22037,-0.48329 -0.60715,-0.23679 c -0.18214,-0.12467 -0.38452,-0.20602 -0.60714,-0.24407 -0.18215,-0.12629 -0.38332,-0.20927 -0.60351,-0.24894 l -1.228871,-0.49907 -0.229502,-0.10686 -6.275481,-2.53059 -0.06921,-0.0194 -0.579219,-0.23315 c -0.02024,-0.051 -0.04574,-0.0575 -0.0765,-0.0194 -0.147335,-0.11576 -0.314908,-0.18254 -0.502719,-0.20035 0.0049,-0.0187 -0.01294,-0.0308 -0.05343,-0.0364 -0.379669,-0.19834 -0.776744,-0.35701 -1.191224,-0.47601 -0.156239,-0.11414 -0.338789,-0.18497 -0.547648,-0.2125 0.0065,-0.0243 -0.0097,-0.036 -0.04857,-0.0352 l -0.593791,-0.2295 c -0.0041,-0.005 -0.0077,-0.01 -0.01093,-0.0146 -0.369146,-0.19186 -0.75853,-0.34446 -1.168153,-0.45779 0.0049,-0.0186 -0.01254,-0.0271 -0.05221,-0.0255 l -0.612006,-0.24286 -0.605933,-0.25379 -2.065518,-0.84515 -2.426163,-0.96293 c -0.655719,-0.31167 -1.333701,-0.58772 -2.033946,-0.82815 -0.0049,-0.017 -0.0251,-0.0259 -0.06071,-0.0267 l -1.165725,-0.47601 -0.04857,-0.01 c -0.178097,-0.11576 -0.385741,-0.19712 -0.622934,-0.24407 l -0.494219,-0.21372 -0.08986,-0.0413 -7.77878,-3.14138 -0.529433,-0.20157 c -0.03076,-0.0526 -0.06476,-0.0736 -0.102001,-0.0631 l -0.537933,-0.21129 c -0.0049,-0.003 -0.0093,-0.005 -0.01336,-0.007 l -0.61322,-0.24165 c 0.0065,-0.0283 -0.0093,-0.038 -0.04736,-0.0291 l -0.540361,-0.20764 c -0.0033,-0.004 -0.0069,-0.008 -0.01093,-0.0122 l -0.608362,-0.24893 -2.670237,-1.09408 -0.608362,-0.24286 -2.643522,-1.07587 -0.06072,-0.01 -5.27733,-2.15051 c -0.01215,-0.0275 -0.03117,-0.0376 -0.05707,-0.0303 l -1.802015,-0.73708 -0.267145,-0.12022 -0.333931,-0.153 c -1.820635,-0.69053 -3.375743,-1.76396 -4.665325,-3.22031 -4.902113,-5.53233 -9.212863,-10.61659 -14.905483,-17.27458 -1.321965,-1.54782 -2.487688,-2.97381 -3.497168,-4.27796 -1.181107,-1.52435 -1.97728,-3.3037 -2.38852,-5.338048 l -0.1275,-0.666648 -0.0583,-0.121432 c -0.005,-0.723718 -0.1445,-1.505726 -0.13965,-2.142018 0.01213,-1.302533 0.186993,-2.59333 0.52458,-3.872389 0.69822,-2.177234 1.86273,-4.174751 2.9471,-6.185625 8.581096,-15.916917 18.321809,-33.869435 29.222138,-53.857556 2.020589,-3.704412 3.665555,-6.701294 4.934899,-8.990647 0.746387,-1.34544 1.140223,-2.05216 1.18151,-2.120161 1.250725,-2.035969 2.936572,-3.651792 5.057542,-4.847469 l 0.459004,-0.24893 1.216724,-0.473576 0.02429,-0.02671 c 0.163525,-0.02347 0.296692,-0.06881 0.399503,-0.136002 l 0.340003,-0.07164 c 0.01538,-0.01619 0.02105,-0.0425 0.017,-0.07893 0.195097,0.02105 0.363074,0.0016 0.503933,-0.05829 l 0.01214,-0.08622 c 0.209668,0.04453 0.395455,0.03603 0.557361,-0.0255 0.01943,-0.01133 0.02914,-0.03521 0.02914,-0.07164 0.247716,0.01295 0.689315,-0.02105 1.324796,-0.102001 0.505147,-0.06476 1.369321,-0.05302 2.592522,0.03521 z"
         id="path522-7-2-5"
         style="fill:#000000;fill-opacity:0.16;stroke:none;stroke-width:0.534673;stroke-miterlimit:4;stroke-dasharray:none;stroke-opacity:1"
         sodipodi:nodetypes="ccccccccccccccccccccccccsssccccscccccccccccccccccccccccccccccccccccccccccccscccccccccccccccccccccccccccccccccccccccccccccccccccccccccccccccccccccccccccccccccccccccccccccccccccsc" /><path
         fill="#ffd800"
         d="m 79.798002,14.59852 c 16.338031,4.774486 32.444598,10.409178 48.689628,15.527202 10.74313,3.645313 21.71538,6.774067 32.26749,10.886167 6.60751,2.936349 7.0325,11.154791 4.85719,17.698349 -8.46133,25.226403 -16.88304,50.469262 -25.6828,75.576412 -3.87641,6.10638 -8.1367,12.09927 -12.95079,17.49985 -4.91486,4.60767 -11.65874,2.13209 -16.89251,-0.30285 C 91.022719,143.76196 71.897014,136.20581 52.920207,128.2679 46.711586,122.22191 40.754401,115.51114 34.946367,109.12035 30.3533,104.04446 26.38385,97.078283 29.58109,90.341958 42.046629,66.778984 54.816128,43.353265 67.75349,20.046309 70.506293,16.077459 75.140144,13.94753 79.798002,14.59852 Z"
         id="path522-6-2-1-2"
         style="fill:#000000;fill-opacity:0.16;stroke:#0a0804;stroke-width:3.728;stroke-miterlimit:4;stroke-dasharray:none;stroke-opacity:1"
         sodipodi:nodetypes="cccccccccccc" /><path
         fill="#ffd800"
         d="m 73.357378,73.816089 c 5.561475,1.548227 6.242695,8.265713 5.26033,12.912823 -0.884008,4.178393 -3.543316,6.191696 -7.758137,6.372626 q -2.082517,0.08986 -4.167463,0.04374 -0.07407,-0.0014 -0.07407,-0.07529 V 73.483372 q 0,-0.07771 0.07893,-0.08014 c 2.17359,-0.04129 4.594896,-0.162714 6.660413,0.412861 z"
         id="path590-3-1-1"
         style="fill:#000000;fill-opacity:0.16;stroke-width:0.121429" /><path
         fill="#ffd800"
         d="m 90.684166,86.557697 4.24275,-12.484177 q 0.03157,-0.09471 0.068,-0.0012 0.216145,0.548861 0.427432,1.08558 c 0.02914,0.0765 -0.01335,0.201573 0.03036,0.313289 0.563434,1.414654 0.913151,2.626522 1.349083,3.68053 q 0.03157,0.0765 0.04979,0.184573 c 0.109287,0.636292 0.440789,1.255583 0.60472,1.891873 0.05707,0.225859 0.178501,0.456576 0.244073,0.644792 q 0.801435,2.316876 1.595585,4.634967 0.02185,0.06314 -0.04372,0.0765 c -0.37886,0.08014 -0.789292,0.01943 -1.090437,0.01822 q -3.720603,-0.01822 -7.44242,0.0036 -0.051,0 -0.03521,-0.04857 z"
         id="path592-9-7-0"
         style="fill:#000000;fill-opacity:0.16;stroke-width:0.121429" /></g><g
       inkscape:label="Layer 1"
       id="layer1-3-8"
       transform="matrix(0.18275424,0,0,0.18275424,99.086057,116.07745)"><path
         fill="#ffd800"
         d="m 79.433715,14.466162 0.632648,0.128716 0.607148,0.110501 0.364289,0.132358 0.491789,0.134787 8.769645,2.790452 4.139535,1.328439 4.933685,1.572514 2.228236,0.739506 3.7206,1.209439 3.3721,1.092866 5.95127,1.934373 3.8056,1.233725 7.09149,2.282877 0.42015,0.128715 2.16144,0.707934 c 1.01191,0.386146 2.0384,0.713601 3.07946,0.982366 l 1.4438,0.496647 5.91969,1.944088 3.79467,1.20701 12.47325,4.132249 c 1.5968,0.53429 3.30653,0.994508 4.82076,1.738871 0.10605,0.05181 0.19995,0.121028 0.28171,0.207645 0.0988,0.154621 0.25015,0.213716 0.45415,0.177287 0.18579,0.318146 0.44565,0.304789 0.64115,0.562219 0.0227,0.02995 0.0526,0.04493 0.0899,0.04493 h 0.0534 c 0.0291,0 0.0514,0.01214 0.0668,0.03643 0.14693,0.223431 0.37521,0.295074 0.52457,0.429861 0.30236,0.272002 0.48329,0.469933 0.87187,0.738292 0.26836,0.185787 0.38857,0.499076 0.57922,0.694577 0.25743,0.262288 0.50271,0.473576 0.71158,0.790507 0.17485,0.265526 0.3655,0.519314 0.57193,0.761363 0.17567,0.20724 0.47357,0.749626 0.89372,1.627157 l 0.0874,0.297502 0.15786,0.304789 0.0899,0.299931 0.38736,1.151152 0.0984,0.427432 c 0.009,0.06638 0.0251,0.08217 0.0486,0.04736 l 0.0643,0.473575 0.0437,0.02914 0.0814,0.667863 c 0.003,0.02995 0.0167,0.0506 0.0401,0.06193 l 0.0826,0.938651 0.034,0.365503 0.0158,1.213082 -0.1615,1.63687 -0.31572,1.304154 -0.66179,2.066732 -0.2295,0.699435 c -0.003,0.0097 -0.007,0.01902 -0.01,0.02793 l -4.37268,13.11561 -0.357,1.092866 -0.57679,1.704871 -4.02661,11.828456 -0.38007,1.162082 -0.119,0.360645 -0.13479,0.392218 -0.10929,0.337574 -0.2465,0.76015 -0.663,1.972016 -3.58946,10.502458 -0.11779,0.36671 -0.23436,0.72615 -0.4845,1.46201 -0.75044,2.20516 -0.18457,0.49058 -2.72124,8.01314 -0.47115,1.44258 c -0.004,0.005 -0.008,0.009 -0.0109,0.0134 l -0.289,0.82936 -3.21546,9.39865 -0.32907,0.97387 c -0.65896,1.88863 -1.32358,3.78091 -1.99387,5.67683 -0.34081,0.96658 -0.94634,2.06188 -1.81659,3.28589 -2.76941,3.89546 -5.59507,7.75004 -8.477,11.56374 -0.73829,0.97872 -1.51665,2.03516 -2.34602,2.83781 -1.62837,1.57494 -3.3636,2.52209 -5.60276,2.99567 -1.17139,0.19105 -2.34643,0.23881 -3.5251,0.14328 -0.0494,-0.0316 -0.0806,-0.0357 -0.0935,-0.0122 -0.7051,-0.0971 -1.40049,-0.2469 -2.08616,-0.44929 l -1.3418,-0.47843 c -0.0729,-0.0575 -0.16272,-0.1 -0.26957,-0.1275 -0.10767,-0.0664 -0.21899,-0.10607 -0.33394,-0.119 l -0.61321,-0.24772 c -0.38048,-0.19185 -0.78565,-0.34931 -1.21551,-0.47236 -0.17891,-0.11819 -0.38048,-0.20076 -0.60472,-0.24771 -0.17972,-0.11901 -0.38251,-0.20037 -0.60837,-0.24408 -0.17647,-0.12062 -0.37845,-0.20117 -0.60593,-0.24164 l -0.60836,-0.24043 c -0.17,-0.11415 -0.36348,-0.19348 -0.58044,-0.238 -0.007,-0.003 -0.0135,-0.007 -0.0206,-0.0109 l -0.612,-0.23679 -0.60593,-0.25014 -1.2143,-0.48451 -0.60715,-0.23921 c -0.17971,-0.12143 -0.3825,-0.20239 -0.60836,-0.24287 -0.15705,-0.10605 -0.34041,-0.17526 -0.55008,-0.20764 0.007,-0.0283 -0.009,-0.0405 -0.0498,-0.0364 l -0.58893,-0.23557 c -0.007,-0.004 -0.0131,-0.008 -0.0194,-0.0122 l -1.22037,-0.48329 -0.60715,-0.23679 c -0.18214,-0.12467 -0.38452,-0.20602 -0.60714,-0.24407 -0.18215,-0.12629 -0.38332,-0.20927 -0.60351,-0.24894 l -1.228871,-0.49907 -0.229502,-0.10686 -6.275481,-2.53059 -0.06921,-0.0194 -0.579219,-0.23315 c -0.02024,-0.051 -0.04574,-0.0575 -0.0765,-0.0194 -0.147335,-0.11576 -0.314908,-0.18254 -0.502719,-0.20035 0.0049,-0.0187 -0.01294,-0.0308 -0.05343,-0.0364 -0.379669,-0.19834 -0.776744,-0.35701 -1.191224,-0.47601 -0.156239,-0.11414 -0.338789,-0.18497 -0.547648,-0.2125 0.0065,-0.0243 -0.0097,-0.036 -0.04857,-0.0352 l -0.593791,-0.2295 c -0.0041,-0.005 -0.0077,-0.01 -0.01093,-0.0146 -0.369146,-0.19186 -0.75853,-0.34446 -1.168153,-0.45779 0.0049,-0.0186 -0.01254,-0.0271 -0.05221,-0.0255 l -0.612006,-0.24286 -0.605933,-0.25379 -2.065518,-0.84515 -2.426163,-0.96293 c -0.655719,-0.31167 -1.333701,-0.58772 -2.033946,-0.82815 -0.0049,-0.017 -0.0251,-0.0259 -0.06071,-0.0267 l -1.165725,-0.47601 -0.04857,-0.01 c -0.178097,-0.11576 -0.385741,-0.19712 -0.622934,-0.24407 l -0.494219,-0.21372 -0.08986,-0.0413 -7.77878,-3.14138 -0.529433,-0.20157 c -0.03076,-0.0526 -0.06476,-0.0736 -0.102001,-0.0631 l -0.537933,-0.21129 c -0.0049,-0.003 -0.0093,-0.005 -0.01336,-0.007 l -0.61322,-0.24165 c 0.0065,-0.0283 -0.0093,-0.038 -0.04736,-0.0291 l -0.540361,-0.20764 c -0.0033,-0.004 -0.0069,-0.008 -0.01093,-0.0122 l -0.608362,-0.24893 -2.670237,-1.09408 -0.608362,-0.24286 -2.643522,-1.07587 -0.06072,-0.01 -5.27733,-2.15051 c -0.01215,-0.0275 -0.03117,-0.0376 -0.05707,-0.0303 l -1.802015,-0.73708 -0.267145,-0.12022 -0.333931,-0.153 c -1.820635,-0.69053 -3.375743,-1.76396 -4.665325,-3.22031 -4.902113,-5.53233 -9.212863,-10.61659 -14.905483,-17.27458 -1.321965,-1.54782 -2.487688,-2.97381 -3.497168,-4.27796 -1.181107,-1.52435 -1.97728,-3.3037 -2.38852,-5.338048 l -0.1275,-0.666648 -0.0583,-0.121432 c -0.005,-0.723718 -0.1445,-1.505726 -0.13965,-2.142018 0.01213,-1.302533 0.186993,-2.59333 0.52458,-3.872389 0.69822,-2.177234 1.86273,-4.174751 2.9471,-6.185625 8.581096,-15.916917 18.321809,-33.869435 29.222138,-53.857556 2.020589,-3.704412 3.665555,-6.701294 4.934899,-8.990647 0.746387,-1.34544 1.140223,-2.05216 1.18151,-2.120161 1.250725,-2.035969 2.936572,-3.651792 5.057542,-4.847469 l 0.459004,-0.24893 1.216724,-0.473576 0.02429,-0.02671 c 0.163525,-0.02347 0.296692,-0.06881 0.399503,-0.136002 l 0.340003,-0.07164 c 0.01538,-0.01619 0.02105,-0.0425 0.017,-0.07893 0.195097,0.02105 0.363074,0.0016 0.503933,-0.05829 l 0.01214,-0.08622 c 0.209668,0.04453 0.395455,0.03603 0.557361,-0.0255 0.01943,-0.01133 0.02914,-0.03521 0.02914,-0.07164 0.247716,0.01295 0.689315,-0.02105 1.324796,-0.102001 0.505147,-0.06476 1.369321,-0.05302 2.592522,0.03521 z"
         id="path522-7"
         style="fill:#ffc90e;fill-opacity:1;stroke:none;stroke-width:0.534673;stroke-miterlimit:4;stroke-dasharray:none;stroke-opacity:1"
         sodipodi:nodetypes="ccccccccccccccccccccccccsssccccscccccccccccccccccccccccccccccccccccccccccccscccccccccccccccccccccccccccccccccccccccccccccccccccccccccccccccccccccccccccccccccccccccccccccccccccsc" /><path
         fill="#ffd800"
         d="m 79.798002,14.59852 c 16.338031,4.774486 32.444598,10.409178 48.689628,15.527202 10.74313,3.645313 21.71538,6.774067 32.26749,10.886167 6.60751,2.936349 7.0325,11.154791 4.85719,17.698349 -8.46133,25.226403 -16.88304,50.469262 -25.6828,75.576412 -3.87641,6.10638 -8.1367,12.09927 -12.95079,17.49985 -4.91486,4.60767 -11.65874,2.13209 -16.89251,-0.30285 C 91.022719,143.76196 71.897014,136.20581 52.920207,128.2679 46.711586,122.22191 40.754401,115.51114 34.946367,109.12035 30.3533,104.04446 26.38385,97.078283 29.58109,90.341958 42.046629,66.778984 54.816128,43.353265 67.75349,20.046309 70.506293,16.077459 75.140144,13.94753 79.798002,14.59852 Z"
         id="path522-6-2"
         style="fill:none;stroke:#0a0804;stroke-width:3.728;stroke-miterlimit:4;stroke-dasharray:none;stroke-opacity:1"
         sodipodi:nodetypes="cccccccccccc" /><path
         fill="#ffd800"
         d="m 73.357378,73.816089 c 5.561475,1.548227 6.242695,8.265713 5.26033,12.912823 -0.884008,4.178393 -3.543316,6.191696 -7.758137,6.372626 q -2.082517,0.08986 -4.167463,0.04374 -0.07407,-0.0014 -0.07407,-0.07529 V 73.483372 q 0,-0.07771 0.07893,-0.08014 c 2.17359,-0.04129 4.594896,-0.162714 6.660413,0.412861 z"
         id="path590-3"
         style="fill:#ffc90e;fill-opacity:1;stroke-width:0.121429" /><path
         fill="#ffd800"
         d="m 90.684166,86.557697 4.24275,-12.484177 q 0.03157,-0.09471 0.068,-0.0012 0.216145,0.548861 0.427432,1.08558 c 0.02914,0.0765 -0.01335,0.201573 0.03036,0.313289 0.563434,1.414654 0.913151,2.626522 1.349083,3.68053 q 0.03157,0.0765 0.04979,0.184573 c 0.109287,0.636292 0.440789,1.255583 0.60472,1.891873 0.05707,0.225859 0.178501,0.456576 0.244073,0.644792 q 0.801435,2.316876 1.595585,4.634967 0.02185,0.06314 -0.04372,0.0765 c -0.37886,0.08014 -0.789292,0.01943 -1.090437,0.01822 q -3.720603,-0.01822 -7.44242,0.0036 -0.051,0 -0.03521,-0.04857 z"
         id="path592-9"
         style="fill:#ffc90e;fill-opacity:1;stroke-width:0.121429" /></g></g></svg>
