<?xml version="1.0" encoding="UTF-8" standalone="no"?>
<!-- Created with Inkscape (http://www.inkscape.org/) -->

<svg
   width="144mm"
   height="145.94058mm"
   viewBox="0 0 144.00001 145.94058"
   version="1.1"
   id="svg1641"
   inkscape:version="1.3 (0e150ed6c4, 2023-07-21)"
   sodipodi:docname="DAVE.svg"
   inkscape:export-filename="DAVE.png"
   inkscape:export-xdpi="89.110245"
   inkscape:export-ydpi="89.110245"
   xmlns:inkscape="http://www.inkscape.org/namespaces/inkscape"
   xmlns:sodipodi="http://sodipodi.sourceforge.net/DTD/sodipodi-0.dtd"
   xmlns="http://www.w3.org/2000/svg"
   xmlns:svg="http://www.w3.org/2000/svg">
  <sodipodi:namedview
     id="namedview1643"
     pagecolor="#ffffff"
     bordercolor="#666666"
     borderopacity="1.0"
     inkscape:pageshadow="2"
     inkscape:pageopacity="0.0"
     inkscape:pagecheckerboard="0"
     inkscape:document-units="mm"
     showgrid="false"
     inkscape:zoom="1.5554293"
     inkscape:cx="269.05755"
     inkscape:cy="214.73171"
     inkscape:window-width="3840"
     inkscape:window-height="2054"
     inkscape:window-x="-11"
     inkscape:window-y="-11"
     inkscape:window-maximized="1"
     inkscape:current-layer="layer1"
     fit-margin-top="0"
     fit-margin-left="0"
     fit-margin-right="0"
     fit-margin-bottom="0"
     inkscape:showpageshadow="2"
     inkscape:deskcolor="#d1d1d1" />
  <defs
     id="defs1638" />
  <g
     inkscape:label="Layer 1"
     inkscape:groupmode="layer"
     id="layer1"
     transform="translate(-25.514209,-11.560533)">
    <path
       fill="#ffd800"
       d="m 79.433715,14.466162 0.632648,0.128716 0.607148,0.110501 0.364289,0.132358 0.491789,0.134787 8.769645,2.790452 4.139535,1.328439 4.933685,1.572514 2.228236,0.739506 3.7206,1.209439 3.3721,1.092866 5.95127,1.934373 3.8056,1.233725 7.09149,2.282877 0.42015,0.128715 2.16144,0.707934 q 1.51787,0.579219 3.07946,0.982366 l 1.4438,0.496647 5.91969,1.944088 3.79467,1.20701 12.47325,4.132249 c 1.5968,0.53429 3.30653,0.994508 4.82076,1.738871 q 0.15907,0.07772 0.28171,0.207645 0.14815,0.231931 0.45415,0.177287 c 0.18579,0.318146 0.44565,0.304789 0.64115,0.562219 q 0.034,0.04493 0.0899,0.04493 h 0.0534 q 0.0437,0 0.0668,0.03643 c 0.14693,0.223431 0.37521,0.295074 0.52457,0.429861 0.30236,0.272002 0.48329,0.469933 0.87187,0.738292 0.26836,0.185787 0.38857,0.499076 0.57922,0.694577 0.25743,0.262288 0.50271,0.473576 0.71158,0.790507 q 0.26228,0.398289 0.57193,0.761363 0.2635,0.31086 0.89372,1.627157 l 0.0874,0.297502 0.15786,0.304789 0.0899,0.299931 0.38736,1.151152 0.0984,0.427432 q 0.0134,0.09957 0.0486,0.04736 l 0.0643,0.473575 0.0437,0.02914 0.0814,0.667863 q 0.005,0.04493 0.0401,0.06193 l 0.0826,0.938651 0.034,0.365503 0.0158,1.213082 -0.1615,1.63687 -0.31572,1.304154 -0.66179,2.066732 -0.2295,0.699435 q -0.005,0.01457 -0.01,0.02793 l -4.37268,13.11561 -0.357,1.092866 -0.57679,1.704871 -4.02661,11.828456 -0.38007,1.162082 -0.119,0.360645 -0.13479,0.392218 -0.10929,0.337574 -0.2465,0.76015 -0.663,1.972016 -3.58946,10.502458 -0.11779,0.36671 -0.23436,0.72615 -0.4845,1.46201 -0.75044,2.20516 -0.18457,0.49058 -2.72124,8.01314 -0.47115,1.44258 q -0.006,0.007 -0.0109,0.0134 l -0.289,0.82936 -3.21546,9.39865 -0.32907,0.97387 q -0.98844,2.83295 -1.99387,5.67683 -0.51122,1.44987 -1.81659,3.28589 -4.15411,5.84319 -8.477,11.56374 c -0.73829,0.97872 -1.51665,2.03516 -2.34602,2.83781 -1.62837,1.57494 -3.3636,2.52209 -5.60276,2.99567 q -1.75709,0.28657 -3.5251,0.14328 -0.0741,-0.0474 -0.0935,-0.0122 -1.05765,-0.14571 -2.08616,-0.44929 l -1.3418,-0.47843 q -0.10929,-0.0862 -0.26957,-0.1275 -0.16151,-0.0996 -0.33394,-0.119 l -0.61321,-0.24772 q -0.57072,-0.28778 -1.21551,-0.47236 -0.26836,-0.17728 -0.60472,-0.24771 -0.26958,-0.17851 -0.60837,-0.24408 -0.26471,-0.18093 -0.60593,-0.24164 l -0.60836,-0.24043 q -0.255,-0.17122 -0.58044,-0.238 -0.01,-0.005 -0.0206,-0.0109 l -0.612,-0.23679 -0.60593,-0.25014 -1.2143,-0.48451 -0.60715,-0.23921 q -0.26957,-0.18215 -0.60836,-0.24287 -0.23557,-0.15907 -0.55008,-0.20764 0.0109,-0.0425 -0.0498,-0.0364 l -0.58893,-0.23557 q -0.01,-0.006 -0.0194,-0.0122 l -1.22037,-0.48329 -0.60715,-0.23679 q -0.27321,-0.187 -0.60714,-0.24407 -0.27322,-0.18943 -0.60351,-0.24894 l -1.228871,-0.49907 -0.229502,-0.10686 -6.275481,-2.53059 -0.06921,-0.0194 -0.579219,-0.23315 q -0.03036,-0.0765 -0.0765,-0.0194 -0.221002,-0.17364 -0.502719,-0.20035 0.0073,-0.028 -0.05343,-0.0364 -0.569504,-0.29751 -1.191224,-0.47601 -0.234359,-0.17121 -0.547648,-0.2125 0.0097,-0.0364 -0.04857,-0.0352 l -0.593791,-0.2295 q -0.0061,-0.007 -0.01093,-0.0146 -0.553719,-0.28779 -1.168153,-0.45779 0.0073,-0.0279 -0.05221,-0.0255 l -0.612006,-0.24286 -0.605933,-0.25379 -2.065518,-0.84515 -2.426163,-0.96293 q -0.983579,-0.46751 -2.033946,-0.82815 -0.0073,-0.0255 -0.06071,-0.0267 l -1.165725,-0.47601 -0.04857,-0.01 q -0.267145,-0.17364 -0.622934,-0.24407 l -0.494219,-0.21372 -0.08986,-0.0413 -7.77878,-3.14138 -0.529433,-0.20157 q -0.04614,-0.0789 -0.102001,-0.0631 l -0.537933,-0.21129 q -0.0073,-0.004 -0.01336,-0.007 l -0.61322,-0.24165 q 0.0097,-0.0425 -0.04736,-0.0291 l -0.540361,-0.20764 q -0.0049,-0.006 -0.01093,-0.0122 l -0.608362,-0.24893 -2.670237,-1.09408 -0.608362,-0.24286 -2.643522,-1.07587 -0.06072,-0.01 -5.27733,-2.15051 q -0.01822,-0.0413 -0.05707,-0.0303 l -1.802015,-0.73708 -0.267145,-0.12022 -0.333931,-0.153 q -2.730952,-1.03579 -4.665325,-3.22031 c -4.902113,-5.53233 -9.212863,-10.61659 -14.905483,-17.27458 q -1.982948,-2.32173 -3.497168,-4.27796 -1.77166,-2.28652 -2.38852,-5.338048 l -0.1275,-0.666648 -0.0583,-0.121432 c -0.005,-0.723718 -0.1445,-1.505726 -0.13965,-2.142018 q 0.0182,-1.9538 0.52458,-3.872389 c 0.69822,-2.177234 1.86273,-4.174751 2.9471,-6.185625 q 12.871644,-23.875375 29.222138,-53.857556 3.030883,-5.556618 4.934899,-8.990647 1.11958,-2.01816 1.18151,-2.120161 1.876087,-3.053953 5.057542,-4.847469 l 0.459004,-0.24893 1.216724,-0.473576 q 0.01214,-0.01335 0.02429,-0.02671 0.245287,-0.03521 0.399503,-0.136002 l 0.340003,-0.07164 q 0.02307,-0.02429 0.017,-0.07893 0.292645,0.03157 0.503933,-0.05829 l 0.01214,-0.08622 q 0.314502,0.06679 0.557361,-0.0255 0.02914,-0.017 0.02914,-0.07164 0.371574,0.01943 1.324796,-0.102001 0.757721,-0.09714 2.592522,0.03521 z m 20.777815,74.889272 c 0.62415,1.763158 1.21066,3.543314 1.88095,5.287045 0.27322,0.710362 0.14572,1.283513 1.13173,1.385514 0.47721,0.04978 2.15416,0.159071 2.50509,-0.156648 0.30843,-0.276859 0.0352,-1.007865 -0.0971,-1.381869 q -4.13468,-11.648739 -8.290005,-23.28898 -0.184573,-0.514861 -0.63872,-0.60229 -1.301725,-0.248931 -2.894881,-0.06921 -0.667863,0.0765 -0.880365,0.669077 -1.868801,5.233615 -8.498857,23.931344 -0.123858,0.350929 0.06193,0.624149 c 0.315717,0.465073 1.930731,0.329074 2.421306,0.253788 0.502719,-0.0765 0.734649,-0.224645 0.893722,-0.697006 q 0.998152,-2.972597 1.998731,-5.920909 a 0.13357255,0.13235826 9.2 0 1 0.126287,-0.08986 h 10.200042 q 0.0595,0 0.0801,0.05586 z m 5.40605,-17.863507 c 0.40436,1.352726 0.91558,2.723666 1.36973,4.032677 q 3.09645,8.937217 6.20019,17.873221 c 0.18458,0.533076 0.34608,0.920436 0.46144,1.465655 q 0.19064,0.904653 1.003,1.120798 c 0.62172,0.165143 1.85302,0.115356 2.64231,0.02185 1.02851,-0.122644 0.95444,-0.656936 1.24466,-1.436512 q 0.20643,-0.551291 0.62293,-1.751014 3.66717,-10.580161 7.31735,-21.166393 c 0.10686,-0.309645 0.25743,-1.001794 -0.23922,-1.08558 q -1.07586,-0.183359 -2.24523,-0.0255 c -0.44565,0.0595 -0.60958,0.144501 -0.75651,0.595005 q -3.48624,10.655454 -6.96277,21.302399 a 0.0303574,0.0303574 0 0 1 -0.0583,0 q -3.3891,-10.112655 -6.78427,-20.238668 c -0.18093,-0.541576 -0.36065,-1.557942 -1.02365,-1.645371 q -0.93137,-0.122644 -1.87245,-0.05586 c -0.65815,0.04736 -1.16087,0.18943 -0.91922,0.993294 z M 63.298151,94.726264 c 0.0012,0.618077 0.471146,1.211867 1.103795,1.219155 q 1.549441,0.01579 5.062399,0 c 1.662371,-0.0085 3.028454,-0.07893 4.466181,-0.394648 4.290107,-0.942291 7.030773,-3.815319 8.033782,-7.999781 1.921016,-8.011924 -1.041866,-16.700211 -10.581375,-16.907856 q -3.152312,-0.068 -6.304624,-0.04129 c -0.982366,0.0073 -1.795944,0.138429 -1.797159,1.281082 q -0.0073,11.420452 0.017,22.843334 z M 133.95075,93.091822 V 84.17039 q 0,-0.06193 0.0619,-0.06071 4.12132,0.0073 8.24386,-0.03886 c 0.88886,-0.0097 0.75164,-1.498441 0.63386,-2.080089 -0.0814,-0.405575 -0.24043,-0.622934 -0.69337,-0.626576 q -4.05696,-0.03522 -8.17464,-0.01214 a 0.07164346,0.07285776 0 0 1 -0.0716,-0.07286 v -7.823707 a 0.06314339,0.06314339 0 0 1 0.0631,-0.06314 q 4.86326,0.0012 9.73501,-0.0012 0.14693,0 0.34851,-0.166358 a 0.19428735,0.19428735 0 0 0 0.0644,-0.09229 c 0.14328,-0.428646 0.42378,-2.533021 -0.38372,-2.533021 q -5.73512,0.0012 -11.4751,-0.0012 c -1.63444,-0.0012 -1.68908,0.629005 -1.68908,2.12866 q -0.005,10.639661 0,21.278108 c 0.001,1.114722 0.0437,1.939228 1.43044,1.940444 q 5.77883,0.0037 11.56009,0.0023 c 0.56101,0 0.77594,-0.191858 0.84758,-0.732221 0.0874,-0.663004 0.23679,-2.021802 -0.72736,-2.027874 q -4.8584,-0.02671 -9.71558,-0.03763 -0.0583,0 -0.0583,-0.05829 z"
       id="path522"
       style="fill:#ffc90e;fill-opacity:1;stroke:none;stroke-width:0.534673;stroke-miterlimit:4;stroke-dasharray:none;stroke-opacity:1" />
    <path
       fill="#ffd800"
       d="m 79.798002,14.59852 c 16.338031,4.774486 32.444598,10.409178 48.689628,15.527202 10.74313,3.645313 21.71538,6.774067 32.26749,10.886167 6.60751,2.936349 7.0325,11.154791 4.85719,17.698349 -8.46133,25.226403 -16.88304,50.469262 -25.6828,75.576412 -3.87641,6.10638 -8.1367,12.09927 -12.95079,17.49985 -4.91486,4.60767 -11.65874,2.13209 -16.89251,-0.30285 C 91.022719,143.76196 71.897014,136.20581 52.920207,128.2679 46.711586,122.22191 40.754401,115.51114 34.946367,109.12035 30.3533,104.04446 26.38385,97.078283 29.58109,90.341958 42.046629,66.778984 54.816128,43.353265 67.75349,20.046309 70.506293,16.077459 75.140144,13.94753 79.798002,14.59852 Z"
       id="path522-6"
       style="fill:none;stroke:#0a0804;stroke-width:3.728;stroke-miterlimit:4;stroke-dasharray:none;stroke-opacity:1"
       sodipodi:nodetypes="cccccccccccc" />
    <path
       fill="#000000"
       d="m 102.09248,94.642479 c -0.67029,-1.743731 -1.2568,-3.523887 -1.88095,-5.287045 q -0.0206,-0.05586 -0.0801,-0.05586 H 89.931306 a 0.13357255,0.13235826 9.2 0 0 -0.126287,0.08986 q -1.000579,2.948312 -1.998731,5.920909 c -0.159073,0.472361 -0.391003,0.620505 -0.893722,0.697006 -0.490575,0.07529 -2.105589,0.211285 -2.421306,-0.253788 q -0.185787,-0.27322 -0.06193,-0.624149 6.630056,-18.697729 8.498857,-23.931344 0.212502,-0.592576 0.880365,-0.669077 1.593156,-0.179716 2.894881,0.06921 0.454147,0.08743 0.63872,0.60229 4.155327,11.64024 8.290007,23.28898 c 0.13235,0.374004 0.40557,1.10501 0.0971,1.381869 -0.35094,0.315719 -2.02788,0.20643 -2.5051,0.156648 -0.986,-0.102001 -0.8585,-0.675152 -1.13172,-1.385514 z M 94.926916,74.07352 90.684166,86.557697 q -0.01578,0.04857 0.03522,0.04857 3.721817,-0.02186 7.44242,-0.0036 c 0.301145,0.0012 0.711577,0.06193 1.090437,-0.01822 q 0.06557,-0.01336 0.04371,-0.0765 -0.79415,-2.318091 -1.595585,-4.634968 c -0.06557,-0.188215 -0.187001,-0.418932 -0.244073,-0.644791 -0.16393,-0.636291 -0.495433,-1.255582 -0.60472,-1.891873 q -0.01821,-0.108072 -0.04979,-0.184573 c -0.435932,-1.054009 -0.785649,-2.265876 -1.349082,-3.680531 -0.04371,-0.111715 -0.0012,-0.236788 -0.03036,-0.313288 q -0.211287,-0.536719 -0.427432,-1.085581 -0.03643,-0.0935 -0.068,0.0012 z"
       id="path578"
       style="stroke:#000000;stroke-width:0.7;stroke-dasharray:none;stroke-opacity:1" />
    <path
       fill="#000000"
       d="m 106.98731,75.524604 c -0.45415,-1.309011 -0.96537,-2.679951 -1.36973,-4.032677 -0.24164,-0.803864 0.26108,-0.945936 0.91922,-0.993294 q 0.94108,-0.06679 1.87245,0.05586 c 0.663,0.08743 0.84272,1.103795 1.02365,1.645371 q 3.39517,10.126013 6.78427,20.238668 a 0.0303574,0.0303574 0 0 0 0.0583,0 q 3.47653,-10.646945 6.96277,-21.302391 c 0.14693,-0.450504 0.31087,-0.535505 0.75651,-0.595006 q 1.16937,-0.157858 2.24523,0.0255 c 0.49665,0.08379 0.34608,0.775934 0.23922,1.08558 q -3.65017,10.586232 -7.31735,21.166394 -0.4165,1.199723 -0.62293,1.751014 c -0.29022,0.779576 -0.21614,1.313868 -1.24465,1.436512 -0.7893,0.0935 -2.02059,0.143288 -2.64231,-0.02185 q -0.81237,-0.216145 -1.00301,-1.120798 c -0.11536,-0.545219 -0.27686,-0.932579 -0.46143,-1.465654 q -3.10374,-8.936014 -6.2002,-17.873231 z"
       id="path580"
       style="stroke:#000000;stroke-width:0.7;stroke-dasharray:none;stroke-opacity:1" />
    <path
       fill="#000000"
       d="m 64.401946,95.945419 c -0.632649,-0.0073 -1.102581,-0.601078 -1.103795,-1.219155 q -0.02429,-11.422881 -0.017,-22.843333 c 0.0012,-1.142653 0.814793,-1.273797 1.797158,-1.281083 q 3.152313,-0.02671 6.304625,0.04129 c 9.539509,0.207645 12.502391,8.895932 10.581375,16.907856 -1.003009,4.184461 -3.743675,7.057489 -8.033782,7.99978 -1.437727,0.315718 -2.80381,0.386148 -4.466181,0.394648 q -3.512958,0.01579 -5.062399,0 z m 14.215762,-9.216507 c 0.982365,-4.64711 0.301145,-11.364596 -5.26033,-12.912823 -2.065517,-0.575575 -4.486823,-0.454146 -6.660413,-0.412861 q -0.07893,0.0024 -0.07893,0.08014 v 19.586595 q 0,0.07407 0.07407,0.07529 2.084946,0.04614 4.167463,-0.04374 c 4.214821,-0.180907 6.874129,-2.19421 7.758137,-6.372603 z"
       id="path582"
       style="stroke:#000000;stroke-width:0.7;stroke-dasharray:none;stroke-opacity:1" />
    <path
       fill="#000000"
       d="m 134.00904,93.150109 q 4.85718,0.01092 9.71558,0.03763 c 0.96415,0.0061 0.81479,1.364871 0.72736,2.027874 -0.0716,0.540364 -0.28657,0.732222 -0.84758,0.732222 q -5.78126,0.0014 -11.56009,-0.0023 c -1.38673,-0.0014 -1.42923,-0.825723 -1.43044,-1.940444 q -0.005,-10.638448 0,-21.278109 c 0,-1.499655 0.0546,-2.129875 1.68908,-2.12866 q 5.73998,0.0024 11.47509,0.0012 c 0.80751,0 0.52701,2.104375 0.38372,2.533022 a 0.19428735,0.19428735 0 0 1 -0.0644,0.09229 q -0.20157,0.166358 -0.3485,0.166358 -4.87175,0.0024 -9.73501,0.0012 a 0.06314339,0.06314339 0 0 0 -0.0631,0.06314 v 7.823709 a 0.07164346,0.07285776 0 0 0 0.0716,0.07286 q 4.11768,-0.02307 8.17464,0.01214 c 0.45294,0.0036 0.61201,0.221001 0.69337,0.626576 0.11778,0.581648 0.255,2.070374 -0.63386,2.080089 q -4.12254,0.04614 -8.24386,0.03886 -0.0619,-0.0012 -0.0619,0.06071 v 8.921431 q 0,0.05829 0.0583,0.05829 z"
       id="path584"
       style="stroke:#000000;stroke-width:0.7;stroke-dasharray:none;stroke-opacity:1" />
    <path
       fill="#ffd800"
       d="m 73.357378,73.816089 c 5.561475,1.548227 6.242695,8.265713 5.26033,12.912823 -0.884008,4.178393 -3.543316,6.191696 -7.758137,6.372626 q -2.082517,0.08986 -4.167463,0.04374 -0.07407,-0.0014 -0.07407,-0.07529 V 73.483372 q 0,-0.07771 0.07893,-0.08014 c 2.17359,-0.04129 4.594896,-0.162714 6.660413,0.412861 z"
       id="path590"
       style="fill:#ffc90e;fill-opacity:1;stroke-width:0.121429" />
    <path
       fill="#ffd800"
       d="m 90.684166,86.557697 4.24275,-12.484177 q 0.03157,-0.09471 0.068,-0.0012 0.216145,0.548861 0.427432,1.08558 c 0.02914,0.0765 -0.01335,0.201573 0.03036,0.313289 0.563434,1.414654 0.913151,2.626522 1.349083,3.68053 q 0.03157,0.0765 0.04979,0.184573 c 0.109287,0.636292 0.440789,1.255583 0.60472,1.891873 0.05707,0.225859 0.178501,0.456576 0.244073,0.644792 q 0.801435,2.316876 1.595585,4.634967 0.02185,0.06314 -0.04372,0.0765 c -0.37886,0.08014 -0.789292,0.01943 -1.090437,0.01822 q -3.720603,-0.01822 -7.44242,0.0036 -0.051,0 -0.03521,-0.04857 z"
       id="path592"
       style="fill:#ffc90e;fill-opacity:1;stroke-width:0.121429" />
  </g>
</svg>
