<?xml version="1.0" encoding="UTF-8" standalone="no"?>
<!-- Created with Inkscape (http://www.inkscape.org/) -->

<svg
   width="40mm"
   height="40mm"
   viewBox="0 0 40 40"
   version="1.1"
   id="svg1"
   xml:space="preserve"
   inkscape:version="1.3.1 (91b66b0783, 2023-11-16)"
   sodipodi:docname="canvas.svg"
   inkscape:export-filename="explode.svg"
   inkscape:export-xdpi="96"
   inkscape:export-ydpi="96"
   xmlns:inkscape="http://www.inkscape.org/namespaces/inkscape"
   xmlns:sodipodi="http://sodipodi.sourceforge.net/DTD/sodipodi-0.dtd"
   xmlns="http://www.w3.org/2000/svg"
   xmlns:svg="http://www.w3.org/2000/svg"><sodipodi:namedview
     id="namedview1"
     pagecolor="#ffffff"
     bordercolor="#000000"
     borderopacity="0.25"
     inkscape:showpageshadow="2"
     inkscape:pageopacity="0.0"
     inkscape:pagecheckerboard="0"
     inkscape:deskcolor="#d1d1d1"
     inkscape:document-units="mm"
     inkscape:zoom="10.330712"
     inkscape:cx="99.84791"
     inkscape:cy="91.184422"
     inkscape:window-width="3840"
     inkscape:window-height="2054"
     inkscape:window-x="-11"
     inkscape:window-y="-11"
     inkscape:window-maximized="1"
     inkscape:current-layer="layer1"
     showguides="true"
     showgrid="true"><inkscape:grid
       id="grid79"
       units="mm"
       originx="0"
       originy="0"
       spacingx="0.99999998"
       spacingy="0.99999997"
       empcolor="#0099e5"
       empopacity="0.30196078"
       color="#0099e5"
       opacity="0.14901961"
       empspacing="5"
       dotted="false"
       gridanglex="30"
       gridanglez="30"
       visible="true" /></sodipodi:namedview><defs
     id="defs1" /><g
     inkscape:label="Layer 1"
     inkscape:groupmode="layer"
     id="layer1"
     transform="translate(-98.500597,-113.80108)"><path
       style="fill:#000000;stroke-width:1.07488"
       d="m 120.82931,149.44483 c -0.0199,-0.0184 -0.28574,-0.0447 -0.59058,-0.0583 l -0.55425,-0.0249 -0.37572,-0.17573 c -0.93785,-0.43861 -0.75026,-1.43932 0.25201,-1.3444 l 0.25778,0.0244 0.0291,-0.13379 c 0.15024,-0.68932 1.73054,-0.7364 1.73054,-0.0516 0,0.0411 0.0357,0.0429 0.14698,0.008 0.6169,-0.19733 0.96833,0.35337 0.62629,0.98139 -0.29684,0.54504 -1.24681,1.02901 -1.52222,0.7755 z m -0.7087,-0.47378 c 0,-0.009 -0.0383,-0.0444 -0.0851,-0.0779 -0.0771,-0.0554 -0.0788,-0.0539 -0.0183,0.0169 0.0635,0.0743 0.10343,0.0979 0.10343,0.0612 z m 0.74483,-0.0537 c -0.0219,-0.0525 -0.0389,-0.0566 -0.0664,-0.0158 -0.0203,0.0301 -0.0733,0.042 -0.11779,0.0263 -0.0444,-0.0157 -0.0658,-0.0508 -0.0473,-0.078 0.0235,-0.0351 0.0452,-0.0322 0.0733,0.0102 0.0311,0.0462 0.0472,0.0417 0.0735,-0.0212 0.0266,-0.0635 0.0425,-0.0679 0.0755,-0.021 0.0266,0.0379 0.055,0.0433 0.0782,0.0149 0.0751,-0.0919 0.16548,-0.0741 0.10969,0.0216 -0.0294,0.0505 -0.0326,0.0898 -0.007,0.0898 0.0464,0 0.12504,-0.13134 0.11237,-0.18786 -0.004,-0.0175 0.0254,-0.0203 0.0652,-0.006 0.0454,0.016 0.0722,-0.001 0.0722,-0.0462 0,-0.0394 -0.0218,-0.0716 -0.0486,-0.0716 -0.0267,0 -0.0486,-0.0513 -0.0486,-0.11408 0,-0.0627 0.0194,-0.10306 0.043,-0.0897 0.0236,0.0134 0.0561,-0.0205 0.0721,-0.0753 0.0447,-0.15322 0.0359,-0.30042 -0.0181,-0.30042 -0.0267,0 -0.0486,-0.0313 -0.0486,-0.0695 0,-0.0382 0.0198,-0.0582 0.0441,-0.0445 0.0242,0.0138 0.0324,-0.0157 0.0182,-0.0657 -0.0284,-0.0998 -0.18458,-0.19555 -0.25428,-0.15602 -0.0244,0.0138 -0.0586,0.003 -0.0761,-0.0224 -0.0218,-0.0324 -0.0561,-0.0292 -0.10843,0.011 -0.0627,0.0476 -0.0802,0.0475 -0.0979,-5.7e-4 -0.0165,-0.045 -0.0426,-0.0409 -0.11357,0.0181 -0.051,0.0424 -0.0922,0.0542 -0.0922,0.0264 0,-0.0276 -0.0341,-0.0381 -0.0757,-0.0235 -0.0417,0.0146 -0.0635,0.0558 -0.0485,0.0914 0.0164,0.0391 0.003,0.0575 -0.0332,0.0465 -0.1092,-0.0334 -0.16983,0.0785 -0.16407,0.30281 0.004,0.15781 0.024,0.21738 0.07,0.20863 0.0353,-0.006 0.0505,0.009 0.0335,0.0334 -0.0169,0.0251 -0.0581,0.0456 -0.0914,0.0456 -0.0334,0 -0.10323,0.0315 -0.15505,0.0702 -0.0519,0.0385 -0.067,0.0575 -0.0335,0.042 0.0334,-0.0155 0.0607,-0.0102 0.0607,0.0128 0,0.0226 0.0601,0.0346 0.13361,0.0265 0.0735,-0.008 0.0954,-0.003 0.0486,0.0102 -0.0467,0.0131 -0.0851,0.0433 -0.0851,0.0668 0,0.0251 -0.0427,0.0219 -0.10269,-0.008 -0.0819,-0.0402 -0.0985,-0.0383 -0.081,0.0102 0.012,0.033 0.0658,0.0601 0.11963,0.0601 0.0538,0 0.13396,0.0275 0.17816,0.0612 0.0497,0.0378 0.0803,0.0426 0.0803,0.0125 0,-0.0267 0.0341,-0.0367 0.0757,-0.022 0.0416,0.0146 0.0637,0.0552 0.0491,0.09 -0.0145,0.035 -0.006,0.052 0.0181,0.0381 0.0246,-0.0139 0.0584,-0.005 0.0752,0.0199 0.0531,0.079 0.26903,0.0558 0.23515,-0.0253 z m -0.59907,-0.39751 c 0,-0.0123 0.011,-0.0223 0.0243,-0.0223 0.0134,0 0.0242,0.0102 0.0242,0.0223 0,0.0123 -0.011,0.0224 -0.0242,0.0224 -0.0134,0 -0.0243,-0.0102 -0.0243,-0.0224 z m 0.92319,-0.20061 c 0,-0.0326 0.0145,-0.0461 0.0324,-0.0297 0.0178,0.0164 0.0178,0.0432 0,0.0594 -0.0178,0.0164 -0.0324,0.003 -0.0324,-0.0297 z m -0.0486,-0.11146 c 0,-0.0123 0.011,-0.0223 0.0242,-0.0223 0.0134,0 0.0242,0.0102 0.0242,0.0223 0,0.0123 -0.011,0.0224 -0.0242,0.0224 -0.0134,0 -0.0242,-0.0102 -0.0242,-0.0224 z m -0.87459,-0.0669 c 0,-0.0327 0.0145,-0.0461 0.0324,-0.0297 0.0178,0.0164 0.0178,0.043 0,0.0594 -0.0178,0.0164 -0.0324,0.003 -0.0324,-0.0297 z m 0.97177,-0.0224 c 0,-0.0123 0.011,-0.0224 0.0242,-0.0224 0.0134,0 0.0243,0.0102 0.0243,0.0224 0,0.0123 -0.011,0.0224 -0.0243,0.0224 -0.0134,0 -0.0242,-0.0102 -0.0242,-0.0224 z m -0.92318,0.75788 c 0,-0.0123 -0.011,-0.0223 -0.0242,-0.0223 -0.0134,0 -0.0242,0.0102 -0.0242,0.0223 0,0.0123 0.011,0.0224 0.0242,0.0224 0.0134,0 0.0242,-0.0102 0.0242,-0.0224 z m 1.21397,-0.12523 c 4.1e-4,-0.0198 -0.0211,-0.0237 -0.0478,-0.009 -0.0267,0.0151 -0.0482,0.0615 -0.0478,0.10294 7.8e-4,0.0799 0.094,-0.0122 0.0956,-0.0944 z m -1.57028,-0.016 c -0.0178,-0.0164 -0.0324,-0.003 -0.0324,0.0297 0,0.0326 0.0145,0.0461 0.0324,0.0297 0.0178,-0.0164 0.0178,-0.0432 0,-0.0594 z m 1.5712,-0.17072 c -0.0626,-0.0612 -0.1266,-0.0996 -0.14209,-0.0854 -0.0155,0.0142 0.0234,0.0644 0.0866,0.11128 0.16123,0.11992 0.19077,0.10612 0.0555,-0.0259 z m -0.19454,-0.0448 c 0,-0.0123 -0.011,-0.0222 -0.0243,-0.0222 -0.0134,0 -0.0242,0.0102 -0.0242,0.0222 0,0.0123 0.011,0.0224 0.0242,0.0224 0.0134,0 0.0243,-0.0102 0.0243,-0.0224 z m 0.0878,-0.22409 c -0.015,-0.0137 -0.0421,0.0111 -0.0603,0.055 -0.0264,0.0635 -0.0208,0.0687 0.0272,0.025 0.0332,-0.0302 0.0481,-0.0663 0.0332,-0.08 z m -2.84534,-1.35857 c -0.14606,-0.44609 -0.13318,-0.59437 0.0174,-0.20061 0.0656,0.17164 0.11322,0.36222 0.10572,0.42353 -0.009,0.0763 -0.0482,0.005 -0.12314,-0.22292 z m 6.70868,0.0411 c -0.24671,-0.0837 -0.267,-0.57742 -0.0411,-1.00099 0.30829,-0.57815 0.66081,-0.43342 0.65495,0.26888 -0.004,0.51325 -0.28215,0.84468 -0.6138,0.73211 z m -11.36088,-0.33586 c -0.0535,-0.011 -0.24373,-0.0502 -0.42287,-0.0877 -0.18649,-0.0391 -0.60185,-0.0719 -0.97176,-0.0768 -1.09899,-0.0148 -1.77508,-0.43848 -2.13519,-1.33804 -0.0508,-0.12707 -0.12653,-0.3163 -0.16815,-0.42051 -0.0653,-0.16352 -0.0951,-0.18946 -0.2169,-0.18946 -0.0777,0 -0.25418,-0.0394 -0.39223,-0.0875 -0.13806,-0.0481 -0.2687,-0.0775 -0.29029,-0.0652 -0.0216,0.0123 -0.0832,-0.018 -0.13681,-0.0673 -0.1315,-0.12065 -0.64662,-0.35702 -0.97496,-0.44737 -0.47031,-0.12942 -0.61628,-0.48513 -0.46947,-1.14408 0.11695,-0.52489 0.13097,-0.49142 -0.41997,-1.00163 -0.37171,-0.34421 -0.55012,-0.54985 -0.69239,-0.79805 l -0.19165,-0.33437 0.005,-0.37894 c 0.003,-0.22191 0.0458,-0.52031 0.10323,-0.72004 l 0.0978,-0.34108 -0.30323,-0.2043 c -0.86291,-0.58134 -1.14724,-1.3078 -0.85112,-2.17456 0.053,-0.15543 0.0968,-0.28455 0.0972,-0.28694 0.003,-0.0249 -1.43304,-0.0463 -1.5785,-0.0236 l -0.19435,0.0305 0.38267,0.0776 c 0.46833,0.095 0.66198,0.20913 0.66198,0.38985 0,0.45551 -2.05386,0.31925 -2.33023,-0.1546 -0.0707,-0.12114 -0.16488,-0.13563 -1.20715,-0.18556 -0.32878,-0.0157 -0.59057,-0.0353 -0.58177,-0.0434 0.0205,-0.0187 0.88935,-0.1001 1.52041,-0.14229 0.26683,-0.0179 1.13402,-0.0324 1.92708,-0.0323 l 1.44195,1.8e-4 0.0764,-0.14709 c 0.16251,-0.31268 0.16959,-0.31032 -3.03322,-1.00887 -0.5211,-0.11366 -1.01306,-0.23473 -1.09324,-0.26906 -0.0801,-0.0343 -0.27475,-0.0747 -0.43239,-0.0896 -0.31666,-0.03 -0.9143,-0.15683 -0.95238,-0.20208 -0.0134,-0.0159 -0.1008,-0.0506 -0.19436,-0.0773 l -0.170059,-0.0484 0.170059,-0.002 c 0.3817,-0.005 5.03972,0.92153 5.69696,1.13429 0.26291,0.0851 0.34525,0.0795 0.45411,-0.031 0.2615,-0.26532 1.13622,-0.397 1.36758,-0.2059 0.11558,0.0955 0.15766,0.0606 0.28387,-0.23518 0.32077,-0.75172 0.70943,-1.00952 1.45277,-0.96362 0.35836,0.0222 0.42196,0.017 0.34933,-0.0284 -0.0488,-0.0306 -0.29638,-0.18026 -0.55007,-0.33268 -0.25371,-0.15243 -0.56359,-0.35531 -0.68863,-0.45086 -0.42748,-0.32664 -2.07635,-1.26804 -2.82219,-1.61132 -0.42181,-0.19413 -0.83446,-0.44988 -0.8025,-0.49735 0.0144,-0.0213 -0.0242,-0.0392 -0.086,-0.0395 -0.0814,-4.9e-4 -0.0941,-0.0112 -0.0463,-0.039 0.0675,-0.0392 0.4192,0.12865 1.82912,0.87312 1.35041,0.71305 2.23002,1.11004 2.19258,0.98955 -0.16838,-0.54181 -0.18665,-0.65688 -0.15672,-0.98658 0.0508,-0.55983 0.37739,-1.32056 0.77897,-1.81477 0.16887,-0.20781 0.19014,-0.16844 -0.40661,-0.75275 -0.55131,-0.53983 -0.88607,-0.90642 -0.85431,-0.93555 0.0489,-0.0449 0.542,0.32739 1.03532,0.78162 l 0.54852,0.50503 0.27402,-0.20481 c 0.53152,-0.39726 0.98735,-0.53716 1.60128,-0.49145 l 0.40402,0.0301 0.18646,-0.13749 c 0.61397,-0.45271 2.19456,-0.42573 2.51019,0.0428 0.055,0.0818 0.10154,0.0481 0.16775,-0.12175 0.0359,-0.092 0.13272,-0.25746 0.2152,-0.36781 0.0824,-0.11034 0.14639,-0.24074 0.14204,-0.28978 -0.006,-0.0705 -0.003,-0.0729 0.0168,-0.0112 0.0136,0.0429 0.0335,0.078 0.0443,0.078 0.0517,0 0.33142,-0.17889 0.28914,-0.18495 -0.14432,-0.0207 -0.1978,-0.0143 -0.23006,0.0273 -0.0227,0.0293 -0.0359,0.0247 -0.0364,-0.0123 -4.1e-4,-0.0321 -0.0219,-0.0463 -0.0479,-0.0316 -0.0725,0.0412 -0.13265,-0.31562 -0.10676,-0.63448 0.008,-0.10666 0.12909,-0.13812 0.17045,-0.0446 0.0195,0.0441 0.0339,0.0437 0.0688,-0.002 0.0422,-0.055 0.35191,0.47704 0.35191,0.60456 0,0.09 0.0842,0.0997 0.28955,0.0332 0.11151,-0.0362 0.34342,-0.0789 0.51536,-0.095 l 0.31262,-0.0294 v -0.14988 c 0,-0.14712 0.10017,-0.20913 0.17007,-0.10524 0.0938,0.13919 0.12069,-0.0396 0.13262,-0.8805 l 0.0132,-0.92507 0.0908,0.15299 c 0.0838,0.141 0.12178,1.18167 0.0653,1.78632 -0.007,0.0815 0.0157,0.11491 0.0868,0.12431 l 0.0972,0.0128 -0.0152,-0.72615 c -0.008,-0.39939 0.0188,-1.11736 0.0602,-1.59551 0.0414,-0.47814 0.0977,-1.56147 0.12504,-2.40741 0.0624,-1.9386 0.1008,-2.58575 0.15298,-2.58575 0.0548,0 0.0634,1.35748 0.0172,2.7195 -0.0129,0.38006 -0.033,1.32296 -0.0448,2.09534 l -0.0213,1.40433 0.18298,-0.67345 c 0.37242,-1.37059 0.42492,-1.06362 0.12939,0.75665 -0.14181,0.87345 -0.14828,1.13931 -0.0109,0.44479 0.13995,-0.70725 0.25961,-1.1584 0.29792,-1.12325 0.0246,0.0226 -0.0722,0.61214 -0.21476,1.30602 -0.055,0.26832 -0.10006,0.49273 -0.10006,0.49868 0,0.005 0.13648,0.0745 0.30332,0.15226 0.30982,0.14447 0.57691,0.31628 0.84128,0.54122 l 0.14854,0.12637 0.26396,-0.18069 c 0.89716,-0.61419 3.02063,-0.49744 4.00081,0.21995 0.23994,0.1756 0.20734,0.1888 0.49136,-0.19914 0.45017,-0.6149 0.51248,-0.76384 0.26964,-0.64459 l -0.10312,0.0506 0.0744,-0.16355 c 0.0409,-0.0899 0.19796,-0.32522 0.34886,-0.52282 0.15092,-0.19762 0.4752,-0.68183 0.72061,-1.07604 0.24543,-0.3942 0.57649,-0.8973 0.73571,-1.11798 0.15922,-0.22067 0.36114,-0.51617 0.44867,-0.65664 0.0875,-0.14047 0.17876,-0.26651 0.20271,-0.28009 0.0422,-0.024 -0.18876,0.3498 -1.01966,1.65004 -0.64068,1.00257 -0.63519,1.00811 0.12272,0.12372 0.28947,-0.33777 0.69582,-0.80911 0.90301,-1.04743 0.20719,-0.23831 0.40305,-0.47906 0.43525,-0.53498 0.0322,-0.056 0.21472,-0.29226 0.40562,-0.52521 0.1909,-0.23293 0.48812,-0.59744 0.66051,-0.81003 0.17239,-0.21257 0.32151,-0.37909 0.33139,-0.37003 0.009,0.009 -0.0903,0.1529 -0.22234,0.31964 -0.13216,0.16673 -0.2994,0.40033 -0.37166,0.51908 -0.0722,0.11876 -0.24798,0.34947 -0.39051,0.51268 -0.14253,0.16323 -0.28292,0.33884 -0.31197,0.39026 -0.029,0.0513 -0.29984,0.38582 -0.60173,0.74311 -0.89869,1.06363 -1.7836,2.23607 -1.72694,2.28807 0.0275,0.0252 0.11123,-0.0481 0.27412,-0.24006 0.20455,-0.24105 0.25942,-0.20842 0.0769,0.0457 -0.13085,0.18222 -1.12117,1.39907 -1.34,1.64655 l -0.10491,0.11871 0.10977,0.14147 c 0.0603,0.0777 0.14788,0.23353 0.19444,0.34607 0.0729,0.17624 0.11148,0.21189 0.27813,0.25704 0.10642,0.0288 0.29579,0.11699 0.42082,0.19592 0.20745,0.13096 0.27455,0.20583 0.53746,0.59969 l 0.0855,0.12808 0.44441,-0.41627 c 2.22743,-2.08636 4.6967,-4.36277 4.82725,-4.4502 0.34989,-0.23436 0.23418,0.005 -0.22288,0.46207 -0.15008,0.14992 -0.49063,0.49259 -0.75676,0.7615 -0.26613,0.2689 -1.24909,1.19525 -2.18437,2.05853 -1.6037,1.48028 -1.969,1.86326 -1.81566,1.90351 0.0343,0.009 0.15652,0.0398 0.2716,0.0686 0.23189,0.0578 0.54177,0.3176 0.6409,0.53719 0.097,0.21487 0.20325,0.16178 1.53303,-0.76621 0.3621,-0.2527 0.85209,-0.58986 1.08885,-0.74924 0.23675,-0.15938 0.66665,-0.4603 0.95533,-0.66873 0.71066,-0.51309 1.63172,-1.12041 1.65994,-1.09451 0.0813,0.0747 -0.89266,0.85759 -2.15163,1.72962 -0.37412,0.25913 -0.83329,0.58833 -1.02035,0.73152 -0.18707,0.14321 -0.65716,0.47806 -1.04465,0.74415 -0.77374,0.5313 -0.75183,0.51013 -0.79432,0.76747 l -0.0298,0.18103 0.37567,0.14124 c 0.82068,0.30853 1.40342,0.71681 1.6305,1.14235 0.11952,0.22393 0.1484,0.24906 0.28616,0.24906 1.45533,0 2.16249,2.69069 1.2244,4.65881 -0.22081,0.46325 -0.22194,0.43311 0.019,0.50491 0.27952,0.0833 0.23235,0.11395 -0.0538,0.0349 l -0.2251,-0.0622 -0.17424,0.1951 -0.17425,0.19512 0.10763,0.21248 c 0.0848,0.16731 0.11226,0.31929 0.12937,0.71504 0.0255,0.58943 -0.0526,0.51514 0.83348,0.79207 2.55671,0.79899 3.11323,0.98875 2.72466,0.92912 -0.4271,-0.0657 -1.85361,-0.39877 -2.65504,-0.62015 -1.0792,-0.29811 -0.9792,-0.30254 -1.18346,0.0524 -0.0936,0.16256 -0.25246,0.35664 -0.35317,0.43127 l -0.18311,0.1357 0.14156,0.0547 c 0.55933,0.21579 0.87786,0.90989 0.52728,1.149 -0.48284,0.32932 -1.46444,-0.36311 -1.38623,-0.97785 0.017,-0.13369 0.006,-0.15286 -0.0888,-0.15286 -0.10937,0 -0.26095,0.10535 -0.26095,0.18137 0,0.0794 -0.35812,0.40412 -0.57306,0.51969 -0.17272,0.0929 -0.20316,0.12634 -0.14983,0.16471 0.0368,0.0265 0.16022,0.16074 0.27419,0.29835 0.11399,0.13761 0.27417,0.29726 0.35596,0.35478 0.0817,0.0575 0.17218,0.14479 0.20086,0.19395 l 0.0521,0.0893 -0.14086,-0.0854 c -0.97836,-0.59249 -1.42302,-0.67969 -2.20587,-0.43263 -0.14698,0.0464 -0.3875,0.10991 -0.53447,0.14115 -0.14698,0.0312 -0.31098,0.091 -0.36442,0.13292 -0.0535,0.0419 -0.22155,0.13053 -0.37357,0.19703 l -0.27638,0.1209 -0.34897,0.5355 c -0.70847,1.08717 -1.15573,1.36238 -2.3051,1.41843 -0.4541,0.0222 -0.63143,0.0498 -0.80171,0.12534 -0.77427,0.3432 -1.52282,0.19277 -2.2817,-0.45854 l -0.23485,-0.20155 -0.18084,0.1126 c -0.50511,0.31449 -1.30069,0.30529 -1.81105,-0.0209 l -0.20833,-0.13318 -0.13178,0.0628 c -0.0724,0.0345 -0.21923,0.12734 -0.32612,0.20622 -0.5581,0.41181 -1.37151,0.68143 -1.79778,0.59589 z m 6.04928,-3.50664 c 0,-0.72161 0.81988,-1.38056 1.63121,-1.31105 0.31353,0.0268 1.00183,-0.0573 1.1787,-0.14416 0.0876,-0.043 0.23533,-0.19295 0.48566,-0.49281 0.11831,-0.14174 0.2399,-0.16802 0.40414,-0.0874 0.0538,0.0264 0.13434,0.0333 0.17902,0.0152 0.0446,-0.0181 0.0976,-0.0297 0.11767,-0.0257 0.02,0.004 0.0364,-0.0141 0.0364,-0.0401 0,-0.0259 0.0179,-0.037 0.0399,-0.0246 0.0219,0.0125 0.12579,-0.0462 0.23079,-0.13025 0.10501,-0.0841 0.20828,-0.15327 0.22948,-0.15375 0.0212,-4.6e-4 0.035,-0.0259 0.0307,-0.0566 -0.0166,-0.11731 0.006,-0.16718 0.0764,-0.16718 0.0401,0 0.0756,-0.02 0.0789,-0.0446 0.0198,-0.14563 0.1888,-0.46233 0.28541,-0.53498 0.16061,-0.12077 0.46292,-0.73468 0.50492,-1.02539 0.005,-0.0368 0.0469,-0.14455 0.0926,-0.23949 0.0456,-0.0949 0.0828,-0.19883 0.0828,-0.23087 0,-0.0321 0.0344,-0.0898 0.0764,-0.1283 0.0574,-0.0526 0.0604,-0.0704 0.0121,-0.0714 -0.0404,-8.6e-4 -0.0327,-0.0182 0.0208,-0.0468 0.0467,-0.025 0.085,-0.0659 0.085,-0.091 0,-0.0251 0.0344,-0.0771 0.0765,-0.11572 0.0621,-0.057 0.0643,-0.0773 0.0121,-0.10831 -0.0482,-0.0285 -0.0369,-0.045 0.0449,-0.0655 0.0601,-0.0151 0.10932,-0.0452 0.10932,-0.0669 0,-0.0216 0.0307,-0.0394 0.0683,-0.0394 0.043,0 0.0595,-0.0311 0.0443,-0.0841 -0.0132,-0.0462 0.003,-0.0996 0.0364,-0.11835 0.0375,-0.0212 0.048,-0.0159 0.0277,0.0141 -0.0179,0.0266 -0.0129,0.0596 0.0113,0.0733 0.0241,0.0137 0.0544,-0.0123 0.0674,-0.0576 0.0268,-0.0939 0.31308,-0.24168 0.35307,-0.1823 0.0145,0.0214 0.0582,0.0278 0.0974,0.014 0.039,-0.0138 0.0599,-0.0416 0.0462,-0.0619 -0.0136,-0.0202 -1.4e-4,-0.0508 0.0299,-0.0679 0.0302,-0.0171 0.0739,-0.003 0.0973,0.0303 0.0404,0.0586 0.0482,0.0523 0.0621,-0.0501 0.003,-0.0245 0.0255,-0.0428 0.0492,-0.0408 0.0237,0.002 0.0617,-0.023 0.0843,-0.0558 0.0308,-0.0446 0.0413,-0.0382 0.0419,0.0254 l 7.3e-4,0.0849 0.0889,-0.0738 c 0.0488,-0.0406 0.11447,-0.0738 0.14577,-0.0738 0.0313,0 0.0572,-0.0251 0.0577,-0.0558 5e-4,-0.0371 0.0164,-0.0334 0.0478,0.0112 0.0363,0.0516 0.0472,0.0531 0.0478,0.006 4.4e-4,-0.036 0.031,-0.0498 0.0754,-0.0341 0.0428,0.0151 0.0868,-0.002 0.10302,-0.0412 0.0245,-0.0584 0.0361,-0.0575 0.0879,0.008 0.0359,0.045 0.0843,0.0611 0.12116,0.0401 0.0356,-0.0202 0.0791,-0.009 0.10386,0.0266 0.0329,0.0478 0.0426,0.0428 0.0431,-0.0221 6.3e-4,-0.0709 0.0122,-0.0747 0.0773,-0.0252 0.0635,0.0483 0.0841,0.0475 0.12072,-0.005 0.0275,-0.0399 0.0444,-0.0441 0.0448,-0.0111 4.1e-4,0.0292 0.0445,0.0499 0.0978,0.0462 0.0535,-0.003 0.0972,-0.0213 0.0972,-0.0392 0,-0.0179 0.0593,-0.004 0.13177,0.0302 0.10206,0.0487 0.14022,0.0505 0.16932,0.009 0.0274,-0.0396 0.0386,-0.0363 0.0417,0.0126 0.003,0.045 0.0178,0.0378 0.0459,-0.0224 0.0348,-0.0744 0.0423,-0.0764 0.0451,-0.0125 0.002,0.0495 0.0294,0.0675 0.077,0.0507 0.0404,-0.0142 0.10048,-0.006 0.13361,0.0176 0.033,0.024 0.093,0.0437 0.13301,0.0439 0.13362,7.4e-4 0.21258,0.0331 0.31321,0.12883 0.0974,0.0926 0.12483,0.10579 0.21798,0.10579 0.0249,0 0.0591,0.0401 0.0761,0.0892 0.0854,0.24683 0.4559,-0.0404 0.50906,-0.39463 0.14502,-0.96627 -0.52938,-1.8795 -1.48011,-2.00429 l -0.23944,-0.0314 -0.0623,-0.28259 c -0.25092,-1.13749 -2.01618,-2.03273 -3.34312,-1.69544 -0.56054,0.14248 -1.53195,0.92646 -1.87044,1.50955 l -0.0641,0.11054 -0.048,-0.0988 c -0.0978,-0.20101 0.50721,-0.97059 1.10222,-1.40215 0.46449,-0.33687 0.88286,-0.48011 1.59708,-0.54681 l 0.32796,-0.0307 -0.002,-0.16363 c -0.006,-0.47268 -0.32911,-0.80238 -0.86265,-0.88066 -0.24936,-0.0366 -0.41984,0.0954 -0.38715,0.29976 0.0162,0.10174 0.004,0.12805 -0.0559,0.11725 -0.0781,-0.0141 -0.0809,-0.0494 -0.0512,-0.66132 0.0512,-1.05951 -1.58584,-1.45249 -2.64355,-0.63457 -0.18384,0.14215 -0.37856,0.28806 -0.43272,0.32424 l -0.0986,0.0658 0.054,-0.0926 c 0.23299,-0.39945 1.07619,-0.96627 1.57686,-1.05996 l 0.28918,-0.0541 -0.24356,-0.24451 c -1.07647,-1.08071 -3.38474,-1.05858 -4.5645,0.0438 -0.40851,0.38171 -0.41796,0.37839 -0.1583,-0.0557 l 0.19396,-0.32426 -0.13323,-0.11488 c -0.62774,-0.54129 -1.537,-0.78083 -2.5119,-0.6618 -0.54644,0.0667 -0.51578,0.0373 -0.40875,0.39153 0.12324,0.40778 0.0886,0.44819 -0.0968,0.11281 -0.16816,-0.30434 -0.21074,-0.32148 -0.48247,-0.19422 -0.39623,0.18555 -0.50567,0.58344 -0.32704,1.18896 0.11705,0.39671 0.0703,0.44401 -0.11797,0.1197 -0.65316,-1.12438 -2.48352,-1.36434 -2.98665,-0.39154 -0.0974,0.18845 -0.16208,0.20142 -0.18303,0.0367 -0.0187,-0.14711 -0.25809,-0.21083 -0.65931,-0.17552 -1.07466,0.0946 -2.21227,1.49211 -2.21978,2.72693 l -0.003,0.49126 0.16655,0.31121 c 0.1618,0.30236 0.83075,1.00225 0.95794,1.00225 0.0289,0 0.1344,-0.0597 0.23443,-0.13261 0.60705,-0.44263 2.30952,0.2038 2.30952,0.87694 0,0.1141 -0.0789,0.0539 -0.32569,-0.24875 -0.59669,-0.73159 -1.48862,-0.6721 -2.60085,0.1735 l -0.47281,0.35946 0.0248,0.22873 c 0.0218,0.20139 0.26488,0.56922 0.26488,0.40089 0,-0.0611 0.15457,-0.0343 0.35477,0.0615 0.13295,0.0636 0.25825,0.0879 0.60485,0.11787 0.0334,0.003 0.0607,0.0244 0.0607,0.0479 0,0.0235 0.0334,0.0172 0.0743,-0.014 0.0574,-0.0437 0.10228,-0.0449 0.19664,-0.005 0.14558,0.0609 0.41971,0.0673 0.48458,0.0113 0.0528,-0.0455 0.36199,-0.012 0.36199,0.0393 0,0.0186 0.0874,-0.005 0.19436,-0.0543 0.29073,-0.13197 0.1718,-0.31209 -0.45367,-0.68714 -0.19142,-0.11479 -0.36991,-0.22811 -0.39663,-0.25183 -0.0973,-0.0864 0.42197,0.0128 0.56854,0.10853 0.081,0.0528 0.24803,0.11349 0.37118,0.13459 0.42761,0.0733 0.76396,0.46958 0.48769,0.57459 -0.17099,0.0649 -0.42805,0.40178 -0.5413,0.7092 -0.10312,0.27981 -0.0422,0.42374 0.29658,0.7006 0.57805,0.47243 1.13445,1.66215 0.77819,1.66392 -0.15847,7.9e-4 -0.0496,0.12391 0.11138,0.12594 0.44629,0.005 0.43171,0.51155 -0.0239,0.83042 l -0.17301,0.12108 -0.1773,-0.0588 c -0.30183,-0.1002 -0.4799,-0.41198 -0.31394,-0.54978 0.15476,-0.12851 0.11786,-0.16643 -0.13173,-0.13537 -0.12627,0.0157 -0.23778,0.0362 -0.24781,0.0452 -0.0354,0.0325 0.0468,0.11181 0.11586,0.11181 0.0888,0 0.0913,0.072 0.003,0.10305 -0.0827,0.0292 -0.12661,0.22634 -0.0929,0.41688 0.0256,0.14517 0.38881,0.36763 0.49854,0.3054 0.0235,-0.0133 0.0559,-0.004 0.072,0.0191 0.016,0.0239 0.16731,0.0392 0.33608,0.0342 l 0.30688,-0.009 0.31107,0.24894 c 0.30201,0.24169 0.6386,0.46126 1.11523,0.72748 0.25581,0.14288 0.33767,0.26406 0.33767,0.4998 0,0.2533 0.0682,0.31765 0.44627,0.42096 0.2234,0.061 0.39796,0.14115 0.48841,0.22415 l 0.14077,0.12915 0.20281,-0.0419 c 0.52114,-0.10744 0.63465,-0.0285 0.80617,0.5605 0.0674,0.23148 0.24057,0.4429 0.31032,0.3789 0.0343,-0.0314 0.0341,-0.0639 -7.8e-4,-0.10348 -0.10798,-0.12252 -0.18864,-0.96813 -0.10196,-1.06864 0.0736,-0.0855 0.25644,-0.11356 0.41677,-0.0643 0.14019,0.0432 0.13776,0.0951 -0.0121,0.25863 -0.0667,0.0729 -0.12148,0.15938 -0.12148,0.19226 0,0.0328 -0.0133,0.0916 -0.0295,0.13033 -0.0426,0.10196 0.0759,0.0879 0.20603,-0.0242 0.14634,-0.12616 0.26139,-0.11858 0.72236,0.0477 0.35399,0.12758 0.93284,0.22581 1.23482,0.20951 0.1056,-0.005 0.12408,0.0214 0.18557,0.27231 0.0973,0.39687 0.15874,0.34475 0.15874,-0.13454 z m -1.82,-1.05495 c -0.0332,-0.0493 0.0434,-0.1025 0.0883,-0.0614 0.0462,0.0424 0.0375,0.10285 -0.0147,0.10285 -0.0251,0 -0.0583,-0.0187 -0.0736,-0.0415 z m 1.49202,0.0119 c -0.0334,-0.0124 -0.0607,-0.0488 -0.0607,-0.0808 0,-0.10349 0.2501,-0.1493 0.38558,-0.0706 0.16078,0.0933 -0.12364,0.22601 -0.32485,0.15152 z m -2.15004,-0.17312 c 0,-0.0775 0.21133,-0.28775 0.28932,-0.28775 0.0844,0 0.0569,0.20394 -0.0381,0.28287 -0.11184,0.0929 -0.25126,0.0956 -0.25126,0.004 z m 0.6681,-0.15757 c -0.10186,-0.0545 -0.11328,-0.25678 -0.0166,-0.29086 0.0755,-0.0266 0.34258,0.0857 0.39743,0.16713 0.0788,0.11683 -0.21517,0.21229 -0.38089,0.12373 z m -1.92967,-0.27207 c -0.34763,-0.11799 0.22253,-0.90883 0.5936,-0.82338 0.19977,0.046 0.19051,0.47486 -0.0105,0.47486 -0.0243,0 -0.0567,0.0367 -0.0722,0.0817 -0.0474,0.13687 -0.38089,0.31104 -0.51105,0.26686 z m 3.73959,-0.30394 c 0,-0.14433 0.24901,-0.1995 0.37572,-0.0832 0.14829,0.13606 0.27221,-0.0901 0.14875,-0.27153 -0.0504,-0.0742 -0.0391,-0.1003 0.0819,-0.18888 0.3177,-0.23245 0.39659,-0.19286 0.37265,0.18699 -0.0187,0.29693 -0.0798,0.36152 -0.40915,0.43214 -0.44978,0.0964 -0.56989,0.0805 -0.56989,-0.0755 z m -2.63317,-0.39008 c -0.11478,-0.12263 -0.13829,-0.22602 -0.0787,-0.34604 0.11324,-0.22805 0.23384,-0.11093 0.23384,0.22709 0,0.21183 -0.0396,0.24228 -0.15515,0.11895 z m 4.43201,-0.0984 c -0.11086,-0.19941 -0.0771,-0.24719 0.15331,-0.21724 0.0966,0.0126 0.11285,0.0404 0.11285,0.1924 0,0.25373 -0.13203,0.26605 -0.26616,0.0249 z m -0.53607,-0.13614 c -0.086,-0.0738 -0.20869,-0.1462 -0.27238,-0.16087 -0.19255,-0.0443 -0.10438,-0.15075 0.12501,-0.15075 0.12978,0 0.45817,0.29213 0.42297,0.37628 -0.0419,0.1002 -0.0988,0.0869 -0.2756,-0.0646 z m 3.35313,-0.20017 c 0,-0.0123 0.011,-0.0223 0.0242,-0.0223 0.0134,0 0.0242,0.0102 0.0242,0.0223 0,0.0123 -0.011,0.0224 -0.0242,0.0224 -0.0134,0 -0.0242,-0.0102 -0.0242,-0.0224 z m -0.51189,-1.62977 c -0.0837,-0.12435 0.0991,-0.35602 0.22475,-0.28476 0.0801,0.0454 0.0466,0.23839 -0.0498,0.28574 -0.11739,0.0576 -0.13555,0.0575 -0.17496,-9.8e-4 z m 2.01814,-1.1343 c 0,-0.0123 0.011,-0.0223 0.0242,-0.0223 0.0134,0 0.0243,0.0102 0.0243,0.0223 0,0.0123 -0.011,0.0223 -0.0243,0.0223 -0.0134,0 -0.0242,-0.0102 -0.0242,-0.0223 z m 0.82601,-0.44581 c 0,-0.0123 0.011,-0.0224 0.0243,-0.0224 0.0134,0 0.0242,0.0102 0.0242,0.0224 0,0.0123 -0.011,0.0223 -0.0242,0.0223 -0.0134,0 -0.0243,-0.0102 -0.0243,-0.0223 z m 0.34012,-0.0669 c 0,-0.0327 0.0145,-0.0461 0.0324,-0.0297 0.0178,0.0164 0.0178,0.043 0,0.0594 -0.0178,0.0164 -0.0324,0.003 -0.0324,-0.0297 z m -13.96921,-0.0418 c -0.8939,-0.19967 -0.59852,-0.76564 0.30424,-0.58298 0.49401,0.1 0.7425,0.46395 0.39304,0.57574 -0.16929,0.0541 -0.47319,0.0573 -0.69728,0.008 z m 14.74662,-0.11433 c 0,-0.0123 0.011,-0.0224 0.0242,-0.0224 0.0134,0 0.0242,0.0102 0.0242,0.0224 0,0.0123 -0.011,0.0224 -0.0242,0.0224 -0.0134,0 -0.0242,-0.0102 -0.0242,-0.0224 z m -2.51355,-0.74725 c -0.0681,-0.0808 -0.10762,-0.1988 -0.0761,-0.22764 0.0519,-0.0477 0.2089,0.0644 0.2089,0.14905 0,0.10787 -0.072,0.15056 -0.13271,0.0787 z m -2.3195,-0.34278 c -0.0157,-0.0234 0.0158,-0.064 0.07,-0.0907 0.0542,-0.0266 0.0986,-0.0747 0.0986,-0.10678 0,-0.0958 0.17037,-0.20799 0.35838,-0.23597 0.21084,-0.0314 0.2356,0.051 0.0768,0.25562 -0.12562,0.16187 -0.53358,0.28206 -0.60375,0.17787 z m -1.38628,-0.67364 c 0,-0.21159 0.44655,-0.6085 0.62586,-0.55628 0.17249,0.0503 0.11799,0.13907 -0.23095,0.3764 -0.34827,0.23689 -0.39491,0.25814 -0.39491,0.17988 z m 0.98392,-0.38351 c -0.11802,-0.0437 0.0137,-0.23795 0.16138,-0.23795 0.0844,0 0.0917,0.14008 0.0111,0.21398 -0.0621,0.0571 -0.0774,0.0592 -0.17249,0.024 z m -2.07934,-0.52136 c -0.10652,-0.10698 -0.11297,-0.15368 -0.0506,-0.36663 0.30926,-1.0569 0.97702,-1.6807 0.95986,-0.89664 -0.0112,0.51053 -0.70236,1.47094 -0.90917,1.26327 z m -7.94428,-2.18116 c -0.35736,-0.25839 -0.31869,-0.78991 0.0575,-0.78991 0.2367,0 0.77188,0.33698 0.76967,0.48462 -0.004,0.26336 -0.58735,0.47868 -0.82715,0.30529 z m 6.01208,-0.20106 c -0.24138,-0.24472 0.11192,-0.97097 0.3749,-0.77071 0.12308,0.0938 0.10354,0.49004 -0.0335,0.6765 -0.13221,0.18002 -0.23013,0.20703 -0.34139,0.0942 z m -6.93303,-0.30254 c -0.28939,-0.18668 -0.17516,-0.31008 0.16597,-0.1793 0.15326,0.0588 0.27041,0.17977 0.21659,0.22374 -0.0836,0.0682 -0.23517,0.0506 -0.38256,-0.0444 z m 1.89496,-0.21943 c 0,-0.0964 0.0196,-0.1151 0.10932,-0.10338 0.0717,0.0102 0.10931,0.0449 0.10931,0.10338 0,0.0584 -0.0375,0.0941 -0.10931,0.10338 -0.0896,0.0117 -0.10932,-0.006 -0.10932,-0.10338 z m 0.44191,11.58615 c 0.083,-0.0918 -0.13756,-0.28466 -0.32557,-0.28466 -0.1825,0 -0.41666,0.12585 -0.39816,0.21399 0.0285,0.13554 0.61339,0.19266 0.72373,0.0706 z m 14.90189,-0.84489 c 0.22844,-0.1468 0.44567,-0.7535 0.44588,-1.24534 1.6e-4,-0.33998 -0.0436,-0.36692 -0.29457,-0.18155 -0.11772,0.087 -0.31876,0.21347 -0.44677,0.28125 -0.17787,0.0942 -0.22807,0.14424 -0.21289,0.21238 0.011,0.0491 0.0586,0.26971 0.10593,0.49038 0.0473,0.22068 0.0932,0.42633 0.10206,0.45698 0.022,0.0767 0.16981,0.0698 0.30041,-0.0141 z m -17.54649,-4.106 c -0.0178,-0.0164 -0.0469,-0.0164 -0.0647,0 -0.0178,0.0164 -0.003,0.0297 0.0324,0.0297 0.0356,0 0.0502,-0.0134 0.0324,-0.0297 z m -5.18278,-0.23338 c 0,-0.0169 0.0879,-0.11713 0.19535,-0.22284 l 0.19534,-0.19222 -0.0309,-0.21356 c -0.035,-0.24213 0.0682,-0.32281 0.28003,-0.2188 0.0918,0.045 0.1171,0.0411 0.15975,-0.0253 0.0278,-0.0434 0.10375,-0.15166 0.16857,-0.24055 0.24715,-0.33894 0.34053,-0.86696 0.16151,-0.91321 -0.64736,-0.16725 -1.09832,0.06 -1.43692,0.72376 -0.24339,0.47718 -0.20466,0.98834 0.0991,1.30651 0.0661,0.0693 0.20822,0.0668 0.20822,-0.003 z m 20.31001,-0.38334 c 0,-0.0123 -0.011,-0.0223 -0.0243,-0.0223 -0.0134,0 -0.0242,0.0102 -0.0242,0.0223 0,0.0123 0.011,0.0223 0.0242,0.0223 0.0134,0 0.0243,-0.0102 0.0243,-0.0223 z m 3.01249,-2.52093 c 0,-0.0604 -0.4771,-0.26444 -0.6195,-0.265 -0.0887,-3.5e-4 -0.10933,0.0243 -0.10933,0.13086 v 0.13131 l 0.2308,0.0167 c 0.45841,0.0332 0.49803,0.0321 0.49803,-0.0139 z m -29.39606,-0.19856 c 0,-0.0123 -0.011,-0.0224 -0.0242,-0.0224 -0.0134,0 -0.0243,0.0102 -0.0243,0.0224 0,0.0123 0.011,0.0223 0.0243,0.0223 0.0134,0 0.0242,-0.0102 0.0242,-0.0223 z m 17.54046,-6.55354 c 0,-0.0368 -0.008,-0.0669 -0.0191,-0.0669 -0.0106,0 -0.0316,0.0301 -0.047,0.0669 -0.0154,0.0368 -0.006,0.0669 0.0191,0.0669 0.0258,0 0.047,-0.0301 0.047,-0.0669 z m 0.43729,17.9219 c 0,-0.0123 0.011,-0.0224 0.0242,-0.0224 0.0134,0 0.0243,0.0102 0.0243,0.0224 0,0.0123 -0.011,0.0223 -0.0243,0.0223 -0.0134,0 -0.0242,-0.0102 -0.0242,-0.0223 z m 9.7663,-0.42708 c -0.40359,-0.33134 -1.60211,-1.43913 -1.57946,-1.45991 0.0498,-0.0457 1.50979,1.23044 1.72517,1.50797 0.13473,0.17362 0.11733,0.16788 -0.14571,-0.0481 z m -29.226871,-0.0258 c -0.177894,-0.16324 0.09173,-0.65054 0.632509,-1.143 0.323346,-0.29447 0.746922,-0.31978 0.673632,-0.0401 -0.164379,0.62688 -1.044013,1.42374 -1.306141,1.18323 z m 27.817811,-0.73191 c -0.62563,-0.50115 -0.775,-0.63434 -0.55877,-0.49823 0.0801,0.0505 0.34254,0.256 0.58306,0.45675 0.53523,0.44673 0.58555,0.49097 0.55703,0.48991 -0.0124,-4.5e-4 -0.274,-0.20224 -0.58132,-0.44843 z m 0.0485,0.3824 c 0,-0.0123 0.011,-0.0224 0.0242,-0.0224 0.0134,0 0.0242,0.0102 0.0242,0.0224 0,0.0123 -0.011,0.0223 -0.0242,0.0223 -0.0134,0 -0.0242,-0.0102 -0.0242,-0.0223 z m -0.24556,-0.23405 -0.16744,-0.16718 0.1822,0.15363 c 0.16959,0.143 0.20454,0.18073 0.16744,0.18073 -0.008,0 -0.09,-0.0752 -0.1822,-0.16718 z m 1.52853,-0.0224 -0.0926,-0.1003 0.10931,0.0849 c 0.0601,0.0466 0.10933,0.0919 0.10933,0.1003 0,0.0357 -0.0391,0.0102 -0.12609,-0.085 z m -1.86603,-0.27864 c 0,-0.0123 0.011,-0.0223 0.0242,-0.0223 0.0134,0 0.0242,0.0102 0.0242,0.0223 0,0.0123 -0.011,0.0224 -0.0242,0.0224 -0.0134,0 -0.0242,-0.0102 -0.0242,-0.0224 z m -0.11337,-0.0966 c -0.0178,-0.0164 -0.0324,-0.0505 -0.0324,-0.0758 0,-0.028 0.0226,-0.0253 0.0575,0.006 0.0316,0.0291 0.0462,0.0631 0.0324,0.0758 -0.0138,0.0127 -0.0396,0.0102 -0.0575,-0.006 z m -0.18437,-0.22663 c -0.0604,-0.0707 -0.0587,-0.0723 0.0183,-0.0169 0.0467,0.0336 0.0851,0.0688 0.0851,0.0779 0,0.0367 -0.0399,0.013 -0.10344,-0.0612 z m 0.49209,-0.39008 c 0,-0.0123 0.011,-0.0224 0.0242,-0.0224 0.0134,0 0.0242,0.0102 0.0242,0.0224 0,0.0123 -0.011,0.0223 -0.0242,0.0223 -0.0134,0 -0.0242,-0.0102 -0.0242,-0.0223 z m -21.69645,-1.3121 c -0.75177,-0.1215 -1.1294,-0.42836 -0.79313,-0.64448 0.28971,-0.18618 1.93965,0.0399 2.08285,0.28555 0.23694,0.40621 -0.21645,0.5324 -1.28972,0.35893 z m 29.19149,-2.25595 c -0.059,-0.038 -0.11524,-0.0485 -0.13135,-0.0245 -0.0175,0.0259 -0.0877,0.0258 -0.18539,-4.4e-4 -0.0865,-0.0233 -0.24472,-0.0509 -0.35161,-0.0617 -0.50867,-0.0507 -0.97242,-0.12593 -1.50625,-0.24423 -0.32068,-0.071 -0.71424,-0.153 -0.87458,-0.18208 -0.16035,-0.0291 -0.34621,-0.0817 -0.41302,-0.11707 l -0.12146,-0.0642 0.14457,0.028 c 0.0795,0.0153 0.26535,0.0479 0.413,0.072 0.14763,0.0242 0.47614,0.0814 0.73002,0.12689 0.25388,0.0455 0.59279,0.095 0.75313,0.11001 0.41091,0.0383 1.05805,0.1593 1.12678,0.21059 0.0318,0.0238 0.0974,0.0394 0.14577,0.0349 0.16341,-0.0155 0.47735,0.0121 0.38454,0.0338 -0.0723,0.017 -0.0778,0.0297 -0.0257,0.0593 0.0365,0.0207 0.0547,0.0483 0.0406,0.0613 -0.0142,0.013 -0.0722,-0.006 -0.12902,-0.0426 z m 0.29532,-0.005 c 0.0178,-0.0164 0.0469,-0.0164 0.0647,0 0.0178,0.0164 0.003,0.0297 -0.0324,0.0297 -0.0356,0 -0.0502,-0.0133 -0.0324,-0.0297 z m -34.0497,-0.2031 c -0.11142,-0.14595 -0.0931,-0.31863 0.0477,-0.44771 0.3879,-0.35591 0.75849,-0.0102 0.40766,0.38058 -0.17292,0.1925 -0.34071,0.21722 -0.4553,0.0672 z m 31.04531,-0.0112 c -0.25991,-0.0787 -0.11198,-0.0804 0.19435,-0.002 0.14045,0.0358 0.1917,0.0618 0.12148,0.0615 -0.0668,-2.4e-4 -0.20894,-0.0268 -0.31583,-0.0592 z m 2.69667,-0.001 c 0,-0.0123 0.011,-0.0224 0.0242,-0.0224 0.0134,0 0.0242,0.0102 0.0242,0.0224 0,0.0123 -0.011,0.0223 -0.0242,0.0223 -0.0134,0 -0.0242,-0.0102 -0.0242,-0.0223 z m -0.19437,-0.0446 c 0,-0.0123 0.011,-0.0224 0.0243,-0.0224 0.0134,0 0.0242,0.0102 0.0242,0.0224 0,0.0123 -0.011,0.0224 -0.0242,0.0224 -0.0134,0 -0.0243,-0.0102 -0.0243,-0.0224 z m -2.89101,-0.067 c -0.064,-0.0253 -0.0723,-0.0392 -0.0242,-0.0408 0.0401,-0.001 0.10568,0.017 0.14577,0.0408 0.0888,0.0526 0.0121,0.0526 -0.12148,0 z m 2.73614,0.0141 c 0.0351,-0.0129 0.077,-0.0113 0.0932,0.003 0.0161,0.0147 -0.0125,0.0254 -0.0638,0.0235 -0.0566,-0.002 -0.0681,-0.0127 -0.0293,-0.0269 z m -0.19436,-0.0446 c 0.0351,-0.0129 0.077,-0.0113 0.0932,0.003 0.0161,0.0147 -0.0126,0.0253 -0.0637,0.0235 -0.0566,-0.002 -0.0681,-0.0127 -0.0293,-0.0269 z m -2.79281,-0.0438 c 0.0178,-0.0164 0.0469,-0.0164 0.0647,0 0.0178,0.0164 0.003,0.0297 -0.0324,0.0297 -0.0356,0 -0.0502,-0.0133 -0.0324,-0.0297 z m 2.49825,1.9e-4 c 0.0334,-0.0124 0.088,-0.0124 0.12148,0 0.0334,0.0124 0.006,0.0225 -0.0607,0.0225 -0.0668,0 -0.0942,-0.0102 -0.0607,-0.0225 z m -2.64402,-0.0448 c 0.0178,-0.0164 0.0469,-0.0164 0.0647,0 0.0178,0.0164 0.003,0.0297 -0.0324,0.0297 -0.0356,0 -0.0502,-0.0133 -0.0324,-0.0297 z m 2.40411,-7.3e-4 c 0.0351,-0.0129 0.077,-0.0113 0.0932,0.003 0.0161,0.0147 -0.0126,0.0254 -0.0637,0.0235 -0.0566,-0.002 -0.0681,-0.0127 -0.0293,-0.0269 z m -0.24293,-0.0446 c 0.035,-0.0129 0.077,-0.0113 0.0931,0.003 0.0161,0.0147 -0.0125,0.0253 -0.0638,0.0235 -0.0566,-0.002 -0.0681,-0.0127 -0.0293,-0.0269 z m -0.47678,-0.081 c 0,-0.0123 0.011,-0.0224 0.0243,-0.0224 0.0134,0 0.0243,0.0102 0.0243,0.0224 0,0.0123 -0.011,0.0223 -0.0243,0.0223 -0.0134,0 -0.0243,-0.0102 -0.0243,-0.0223 z m 2.30705,-0.0398 c -0.45098,-0.18031 -0.69082,-0.83613 -0.45418,-1.2419 0.14099,-0.24175 0.56203,0.0259 0.86735,0.55163 0.31064,0.53474 0.0958,0.89374 -0.41317,0.69027 z m -3.60275,-0.23508 c 0.0178,-0.0164 0.0469,-0.0164 0.0647,0 0.0178,0.0164 0.003,0.0297 -0.0324,0.0297 -0.0356,0 -0.0502,-0.0133 -0.0324,-0.0297 z m 0.96156,-2.86633 c -0.38151,-0.087 -0.57123,-0.47375 -0.29636,-0.60417 0.56401,-0.2676 2.52546,-0.21473 2.52546,0.0681 0,0.27053 -0.34484,0.42687 -1.08049,0.48984 -0.27426,0.0235 -0.60798,0.0519 -0.74159,0.0632 -0.13362,0.0113 -0.31677,0.003 -0.40702,-0.0169 z m 4.34269,-0.1203 c -0.33315,-0.16087 -0.55877,-0.43731 -0.55877,-0.68466 0,-0.43088 0.39326,-0.41749 0.8206,0.028 0.47194,0.49194 0.2984,0.92721 -0.26183,0.65671 z m -4.42155,-0.89418 c -0.61115,-0.13566 -0.23166,-1.1718 0.42918,-1.1718 0.32202,0 0.43198,0.27068 0.29862,0.73507 -0.12138,0.42275 -0.30214,0.53121 -0.7278,0.43673 z m -25.63045,-0.1687 c 0,-0.0123 0.011,-0.0224 0.0243,-0.0224 0.0134,0 0.0242,0.0102 0.0242,0.0224 0,0.0123 -0.011,0.0224 -0.0242,0.0224 -0.0134,0 -0.0243,-0.0102 -0.0243,-0.0224 z m -0.82601,-0.16057 c -0.30732,-0.0706 -0.85394,-0.17768 -1.21471,-0.23792 -0.64185,-0.10721 -2.51092,-0.53076 -2.56633,-0.58162 -0.0154,-0.0141 0.0299,-0.0789 0.10069,-0.14387 0.1115,-0.10228 0.12536,-0.10611 0.10322,-0.0284 -0.0213,0.0749 0.0131,0.10111 0.20876,0.159 0.23726,0.0702 0.37241,0.0597 0.25165,-0.0194 -0.047,-0.0309 -0.0381,-0.034 0.0312,-0.011 0.0535,0.0178 0.15186,0.0418 0.21865,0.0533 0.0667,0.0116 0.43852,0.0981 0.82601,0.19193 0.3875,0.094 0.87946,0.20374 1.09325,0.24401 0.21378,0.0403 0.55269,0.12919 0.75312,0.19758 0.20042,0.0684 0.50654,0.16533 0.68023,0.21541 0.46398,0.13375 0.15968,0.10929 -0.48588,-0.039 z m -5.402444,-0.8284 c 0.03511,-0.0129 0.07708,-0.0113 0.09321,0.003 0.01613,0.0147 -0.01255,0.0253 -0.06379,0.0235 -0.05662,-0.002 -0.06811,-0.0127 -0.02931,-0.0269 z m 35.114334,-0.22246 c -0.0534,-0.0123 -0.2199,-0.10874 -0.36992,-0.21429 -0.24791,-0.17449 -0.29215,-0.18994 -0.48638,-0.16986 -0.53045,0.0549 -0.8842,-0.19465 -1.0692,-0.75417 -0.0847,-0.25637 -0.15135,-0.36433 -0.31475,-0.5102 -0.2976,-0.2657 -0.30826,-0.78785 -0.0194,-0.95163 0.0253,-0.0143 0.0105,-0.1121 -0.0346,-0.22711 l -0.0792,-0.20187 0.0935,-0.1751 c 0.17923,-0.3358 0.7294,-0.49507 1.08523,-0.31416 0.10782,0.0548 0.1301,0.0478 0.27903,-0.0889 0.96699,-0.88725 2.7102,0.37722 2.22925,1.617 l -0.0833,0.21476 0.10164,0.21546 c 0.16038,0.34027 0.13874,0.6348 -0.066,0.89911 -0.0922,0.11898 -0.1544,0.23595 -0.13825,0.25993 0.0161,0.024 0.007,0.031 -0.0203,0.0155 -0.0273,-0.0155 -0.0908,0.0137 -0.14112,0.0648 -0.19762,0.20068 -0.72578,0.37606 -0.96611,0.32079 z m -1.35024,-1.8261 c 0.0424,-0.0526 0.14423,-0.0752 0.3644,-0.0805 0.38474,-0.009 0.52425,-0.0746 0.52425,-0.24588 0,-0.20476 0.0471,-0.26956 0.19608,-0.26956 0.18569,0 0.28979,-0.10776 0.28979,-0.29987 v -0.15977 l 0.085,0.068 c 0.0467,0.0375 0.21622,0.0804 0.37656,0.0954 0.16034,0.0152 0.35481,0.0406 0.43217,0.0567 l 0.14066,0.0294 -0.0346,-0.12903 c -0.24177,-0.90044 -2.03132,-1.1393 -1.82186,-0.24317 0.062,0.26525 0.0242,0.59449 -0.077,0.67161 -0.11573,0.0881 -0.1698,0.005 -0.17008,-0.25917 -6.8e-4,-0.62689 -0.25519,-0.84861 -0.75442,-0.65723 -0.18949,0.0727 -0.20801,0.1532 -0.11395,0.49589 l 0.0545,0.19871 -0.17601,0.20729 c -0.2056,0.24214 -0.21075,0.27385 -0.0708,0.43708 0.20467,0.23873 0.59591,0.28223 0.75533,0.084 z m -26.58615,-1.26865 c -0.33551,-0.29243 -0.46256,-0.45762 -0.39772,-0.51712 0.094,-0.0863 0.90588,0.62937 0.90588,0.79856 0,0.1025 -0.18536,-10e-5 -0.50816,-0.28144 z m 18.21409,-1.11183 c -0.25047,-0.1137 -0.50559,-0.34067 -0.50559,-0.4498 0,-0.17424 0.71841,-0.0871 0.93725,0.11374 0.26046,0.23897 -0.0732,0.49877 -0.43166,0.33606 z M 108.848,129.70675 c 0,-0.0123 0.011,-0.0224 0.0242,-0.0224 0.0134,0 0.0243,0.0102 0.0243,0.0224 0,0.0123 -0.011,0.0223 -0.0243,0.0223 -0.0134,0 -0.0242,-0.0102 -0.0242,-0.0223 z m -0.15791,-0.12894 c -0.0467,-0.0325 -0.085,-0.0714 -0.085,-0.0863 0,-0.0503 0.138,0.0209 0.16478,0.085 0.0319,0.0765 0.0283,0.0765 -0.0797,10e-4 z m -0.1822,-0.18314 c 0,-0.0123 0.011,-0.0224 0.0242,-0.0224 0.0134,0 0.0242,0.0102 0.0242,0.0224 0,0.0123 -0.011,0.0224 -0.0242,0.0224 -0.0134,0 -0.0242,-0.0102 -0.0242,-0.0224 z m -0.19436,-0.13374 c 0,-0.0123 0.011,-0.0223 0.0242,-0.0223 0.0134,0 0.0243,0.0102 0.0243,0.0223 0,0.0123 -0.011,0.0223 -0.0243,0.0223 -0.0134,0 -0.0242,-0.0102 -0.0242,-0.0223 z m 3.42062,-0.85888 c -0.39465,-0.24178 -0.0663,-0.59003 0.55625,-0.59003 0.55045,0 1.04147,0.3377 0.80564,0.55408 -0.0814,0.0748 -1.24828,0.10558 -1.36189,0.0359 z m 18.37644,-0.1531 c -0.1694,-0.23722 -0.14207,-0.74145 0.048,-0.88621 0.10692,-0.0814 0.18003,0.008 0.21322,0.26001 0.0587,0.44728 -0.10634,0.84314 -0.26126,0.6262 z m 5.84739,-0.12901 c -0.13765,-0.236 0.14331,-0.48578 0.94991,-0.84446 0.90218,-0.40119 1.14941,-0.43157 1.18084,-0.14506 0.0496,0.45205 -1.91269,1.36335 -2.13075,0.98952 z m -21.71267,-0.88749 c -0.15204,-0.52759 -0.20517,-0.66553 -0.34377,-0.89243 l -0.14928,-0.2444 0.0289,0.17833 0.0289,0.17832 -0.0747,-0.0849 c -0.041,-0.0468 -0.10869,-0.1972 -0.15028,-0.33436 -0.0415,-0.13717 -0.13096,-0.41682 -0.19861,-0.62146 -0.15546,-0.47023 -0.41365,-1.39903 -0.39395,-1.41711 0.008,-0.008 0.1214,0.29766 0.25156,0.67816 0.22812,0.66678 0.31696,0.84612 0.31696,0.63977 0,-0.14553 -0.22369,-1.02714 -0.38944,-1.53493 -0.38483,-1.17886 -0.67817,-2.13372 -0.66049,-2.14994 0.0227,-0.0209 0.0521,0.0607 0.72674,2.0162 0.48835,1.4156 1.13033,3.62289 1.08641,3.73523 -0.0117,0.0298 -0.0472,-0.036 -0.079,-0.1464 z m 3.98028,-0.91392 c 0,-0.0123 0.011,-0.0224 0.0243,-0.0224 0.0134,0 0.0243,0.0102 0.0243,0.0224 0,0.0123 -0.011,0.0222 -0.0243,0.0222 -0.0134,0 -0.0243,-0.0102 -0.0243,-0.0222 z m -6.94253,-1.81892 c -0.0121,-0.17336 -0.14418,-0.33215 -0.27611,-0.33215 -0.0793,0 -0.18696,-0.0537 -0.28111,-0.14001 l -0.1526,-0.14002 0.0726,-0.11833 c 0.0984,-0.15999 0.33341,-0.23267 0.41628,-0.1287 0.0834,0.1047 0.27486,0.77088 0.2482,0.86375 -0.0193,0.0674 -0.0224,0.0669 -0.0273,-0.004 z m 15.44553,-0.14269 c 0,-0.0123 0.011,-0.0224 0.0243,-0.0224 0.0134,0 0.0242,0.0102 0.0242,0.0224 0,0.0123 -0.011,0.0224 -0.0242,0.0224 -0.0134,0 -0.0243,-0.0102 -0.0243,-0.0224 z m 0.0729,-0.11145 c 0.0165,-0.0245 0.0409,-0.0446 0.0543,-0.0446 0.0134,0 0.0108,0.02 -0.005,0.0446 -0.0166,0.0245 -0.0409,0.0446 -0.0543,0.0446 -0.0134,0 -0.0108,-0.02 0.005,-0.0446 z m -20.58575,-0.0309 c -0.16282,-0.0238 -1.38466,-1.40602 -1.45782,-1.64916 -0.15286,-0.50799 0.31881,-0.34099 1.03042,0.36485 0.86865,0.86159 1.0391,1.37377 0.4274,1.28431 z m 6.6929,-0.39586 c -0.0178,-0.0653 -0.0231,-0.12739 -0.0117,-0.1379 0.0115,-0.011 0.0354,0.0344 0.0532,0.0997 0.0178,0.0653 0.0231,0.12741 0.0117,0.13791 -0.0114,0.011 -0.0354,-0.0344 -0.0532,-0.0997 z m 19.22545,-0.0632 c -0.28167,-0.15758 -0.21353,-0.35551 0.4177,-1.21351 1.04932,-1.42626 1.54544,-1.02184 0.5753,0.46897 -0.49581,0.76191 -0.69499,0.91126 -0.993,0.74454 z m -19.34652,-0.29733 c -0.0283,-0.0943 -0.12989,-0.4291 -0.22578,-0.74391 -0.0959,-0.31482 -0.16506,-0.58092 -0.15371,-0.59134 0.0192,-0.0175 0.30217,0.82687 0.42515,1.26854 0.0671,0.24094 0.025,0.30241 -0.0456,0.0667 z m 9.73842,-0.72825 c -0.0818,-0.14513 -0.0599,-0.31262 0.0407,-0.31262 0.14666,0 0.28023,0.1424 0.26535,0.28293 -0.0214,0.20248 -0.199,0.2197 -0.30611,0.0297 z m 6.12185,-5.4e-4 c 0.0166,-0.0245 0.0409,-0.0446 0.0543,-0.0446 0.0134,0 0.0108,0.02 -0.005,0.0446 -0.0166,0.0245 -0.0409,0.0446 -0.0543,0.0446 -0.0134,0 -0.0108,-0.02 0.005,-0.0446 z m 0.12147,-0.11147 c 0,-0.0123 0.011,-0.0224 0.0242,-0.0224 0.0134,0 0.0242,0.0102 0.0242,0.0224 0,0.0123 -0.011,0.0224 -0.0242,0.0224 -0.0134,0 -0.0242,-0.0102 -0.0242,-0.0224 z m 0.19839,-0.27849 c 0.0609,-0.10415 0.16564,-0.23456 0.23256,-0.28979 l 0.12167,-0.1004 -0.0941,0.13758 c -0.0518,0.0757 -0.15642,0.20606 -0.23256,0.28978 l -0.13846,0.15221 z m -5.41559,-0.21052 c -0.39034,-0.12767 -0.40223,-0.41312 -0.0539,-1.29425 0.47793,-1.20904 0.86957,-1.73624 1.11946,-1.50696 0.20248,0.18577 -0.4213,2.60662 -0.72134,2.79944 -0.12373,0.0795 -0.10675,0.0794 -0.34421,0.002 z m -11.20573,-0.11283 c 0,-0.0327 0.0145,-0.0461 0.0324,-0.0297 0.0178,0.0164 0.0178,0.0432 0,0.0594 -0.0178,0.0164 -0.0324,0.003 -0.0324,-0.0297 z m -0.0486,-0.13375 c 0,-0.0327 0.0145,-0.0461 0.0324,-0.0297 0.0178,0.0164 0.0178,0.043 0,0.0594 -0.0178,0.0164 -0.0324,0.003 -0.0324,-0.0297 z m 6.8732,-1.01927 c -0.41175,-0.23038 -0.40434,-0.67483 0.0113,-0.67483 0.29277,0 0.53902,0.29109 0.50751,0.5999 -0.0178,0.17427 -0.27485,0.2114 -0.51876,0.0749 z m -1.47987,-0.60797 c 0,-0.0123 0.011,-0.0222 0.0243,-0.0222 0.0134,0 0.0242,0.0102 0.0242,0.0222 0,0.0123 -0.011,0.0223 -0.0242,0.0223 -0.0134,0 -0.0243,-0.0102 -0.0243,-0.0223 z m 4.00449,-1.24309 c -0.30317,-0.27818 -0.17384,-0.78083 0.1562,-0.60705 0.21432,0.11285 0.33799,0.35879 0.28305,0.56291 -0.0643,0.23911 -0.21071,0.25382 -0.43925,0.0441 z"
       id="path129" /></g></svg>
