<?xml version="1.0" encoding="UTF-8" standalone="no"?>
<!-- Created with Inkscape (http://www.inkscape.org/) -->

<svg
   width="172.69031mm"
   height="116.29362mm"
   viewBox="0 0 172.69031 116.29362"
   version="1.1"
   id="svg1"
   xml:space="preserve"
   inkscape:version="1.3 (0e150ed6c4, 2023-07-21)"
   sodipodi:docname="footprint90.svg"
   xmlns:inkscape="http://www.inkscape.org/namespaces/inkscape"
   xmlns:sodipodi="http://sodipodi.sourceforge.net/DTD/sodipodi-0.dtd"
   xmlns="http://www.w3.org/2000/svg"
   xmlns:svg="http://www.w3.org/2000/svg"><sodipodi:namedview
     id="namedview1"
     pagecolor="#ffffff"
     bordercolor="#000000"
     borderopacity="0.25"
     inkscape:showpageshadow="2"
     inkscape:pageopacity="0.0"
     inkscape:pagecheckerboard="0"
     inkscape:deskcolor="#d1d1d1"
     inkscape:document-units="mm"
     inkscape:zoom="1.060115"
     inkscape:cx="380.14742"
     inkscape:cy="324.49309"
     inkscape:window-width="2560"
     inkscape:window-height="1494"
     inkscape:window-x="-11"
     inkscape:window-y="-11"
     inkscape:window-maximized="1"
     inkscape:current-layer="layer1" /><defs
     id="defs1" /><g
     inkscape:label="Layer 1"
     inkscape:groupmode="layer"
     id="layer1"
     transform="translate(-4.492215,-62.758847)"><path
       style="fill:none;stroke:#000000;stroke-width:4.2;stroke-dasharray:none;stroke-opacity:1"
       d="m 38.559651,122.31598 c -0.399547,8.56292 -11.457434,15.9276 -21.673624,14.43491 -2.886762,-0.42178 -5.780635,-1.7436 -7.4664069,-3.41038 -1.114477,-1.10192 -1.323294,-1.47098 -2.1061,-3.72226 -0.782809,-2.2513 -0.848003,-2.67029 -0.657606,-4.22593 0.119932,-0.97989 0.623472,-2.56175 1.164083,-3.65697 4.0230089,-8.15017 16.4825949,-12.48256 24.6942359,-8.58656 2.843246,1.34897 4.19996,2.79151 5.263523,5.59647 0.650972,1.71682 0.830207,2.53534 0.781895,3.57072 z"
       id="path7" /><path
       style="fill:none;stroke:#000000;stroke-width:4.2;stroke-dasharray:none;stroke-opacity:1"
       d="m 76.011847,168.28602 c -0.44119,2.40905 -2.69284,5.1099 -5.53439,6.63851 -1.966932,1.05812 -6.628368,2.16192 -8.476994,2.00732 -2.300209,-0.19238 -4.404439,-0.90713 -5.683074,-1.93041 -1.055452,-0.84466 -1.213261,-1.10344 -1.726861,-2.83178 -0.514019,-1.72974 -0.52292,-2.03072 -0.09816,-3.3204 0.528727,-1.60538 1.786535,-3.231 3.624691,-4.68463 1.095888,-0.86663 1.71327,-1.12754 4.93028,-2.08352 3.240315,-0.96291 3.87109,-1.07519 5.305745,-0.94443 2.216843,0.20205 4.227143,0.89754 5.563383,1.92473 0.93787,0.72095 1.20843,1.12412 1.6988,2.53138 0.42817,1.22873 0.53363,1.94492 0.39658,2.69323 z"
       id="path5" /><path
       style="fill:none;stroke:#000000;stroke-width:4.2;stroke-dasharray:none;stroke-opacity:1"
       d="m 54.625929,148.57852 c -0.16181,1.7708 -1.2734,3.82703 -2.966781,5.48796 -2.191103,2.14913 -3.80561,3.12883 -6.974893,4.23244 -3.162427,1.10123 -5.051066,1.33959 -8.051141,1.01613 -7.596841,-0.81908 -9.926777,-7.44489 -4.492345,-12.77521 2.185683,-2.14381 3.807398,-3.12944 6.94896,-4.2234 3.217027,-1.12024 5.441196,-1.39469 8.294855,-1.02355 3.600717,0.46831 5.959285,2.08367 6.872835,4.70714 0.28346,0.81403 0.4337,1.86518 0.36851,2.57849 z"
       id="path3" /><path
       style="fill:none;stroke:#000000;stroke-width:6.0013;stroke-dasharray:none;stroke-opacity:1"
       d="M 172.08701,105.13199 C 165.65289,83.190455 120.50496,99.621325 102.95368,92.793435 81.347107,87.040295 70.029417,70.429585 51.024209,85.935745 33.45467,104.6195 51.056459,129.82091 66.624707,143.92593 c 14.2164,18.32795 40.338023,21.19426 60.247153,9.84662 19.27458,-8.31724 39.73504,-20.74626 47.24513,-40.08954 0.2775,-2.94846 -0.33072,-6.02281 -2.02998,-8.55102 z"
       id="path2"
       sodipodi:nodetypes="ccccccc" /><path
       style="fill:none"
       d="m 174.12698,122.52685 c -0.23147,5.96472 -5.15648,9.42201 -8.85743,13.39387 -3.51905,4.80659 -9.16592,6.22721 -14.28669,8.31271 -4.31969,2.90467 -9.50434,3.98943 -13.98733,6.66103 -4.03217,3.29596 -9.06496,5.24148 -14.3207,4.97673 -6.53403,-0.0322 -12.71443,2.50892 -19.25408,2.44294 -5.874923,2.14658 -11.631423,-1.49562 -17.577453,-1.01935 -5.94356,1.1975 -9.97135,-3.36317 -12.68997,-8.00422 -2.97663,-4.13603 -7.63398,-6.73234 -10.619201,-10.69345 -2.638388,-5.08455 -3.797338,-10.69172 -6.083534,-15.89935 -3.572616,-4.65291 -7.993156,-9.21058 -8.510408,-15.39904 -0.483218,-5.31722 -0.639131,-10.685885 -1.924759,-15.861615 0.984705,-5.80308 -0.165055,-12.99815 4.613577,-17.37233 5.434943,-5.35902 12.568365,-8.31464 19.622985,-10.83463 7.74827,-0.90224 15.65155,-0.57874 23.15918,1.57861 5.29797,1.56593 10.308303,4.15049 15.363443,6.38762 4.8975,2.67288 9.39811,6.11772 14.76884,7.93458 4.94663,2.70776 10.09179,4.99142 15.3246,7.02133 7.81272,2.48185 13.7632,9.58269 22.3423,9.93376 4.63272,2.06015 10.54648,6.093405 11.66778,11.258025 -0.81446,4.85257 1.39844,8.87593 1.49565,13.44545 l -0.10598,0.83667 z"
       id="path1" /></g></svg>
