<?xml version="1.0" encoding="UTF-8" standalone="no"?>
<!-- Created with Inkscape (http://www.inkscape.org/) -->

<svg
   width="116.29362mm"
   height="172.69031mm"
   viewBox="0 0 116.29362 172.69031"
   version="1.1"
   id="svg1"
   xml:space="preserve"
   inkscape:version="1.3 (0e150ed6c4, 2023-07-21)"
   sodipodi:docname="footprint.svg"
   xmlns:inkscape="http://www.inkscape.org/namespaces/inkscape"
   xmlns:sodipodi="http://sodipodi.sourceforge.net/DTD/sodipodi-0.dtd"
   xmlns="http://www.w3.org/2000/svg"
   xmlns:svg="http://www.w3.org/2000/svg"><sodipodi:namedview
     id="namedview1"
     pagecolor="#ffffff"
     bordercolor="#000000"
     borderopacity="0.25"
     inkscape:showpageshadow="2"
     inkscape:pageopacity="0.0"
     inkscape:pagecheckerboard="0"
     inkscape:deskcolor="#d1d1d1"
     inkscape:document-units="mm"
     inkscape:zoom="1.060115"
     inkscape:cx="273.08357"
     inkscape:cy="431.08529"
     inkscape:window-width="2560"
     inkscape:window-height="1494"
     inkscape:window-x="-11"
     inkscape:window-y="-11"
     inkscape:window-maximized="1"
     inkscape:current-layer="layer1" /><defs
     id="defs1" /><g
     inkscape:label="Layer 1"
     inkscape:groupmode="layer"
     id="layer1"
     transform="translate(-32.690563,-34.560498)"><path
       style="fill:none;stroke:#000000;stroke-width:4.2;stroke-dasharray:none;stroke-opacity:1"
       d="M 89.427044,68.627934 C 80.864124,68.228387 73.499442,57.1705 74.99213,46.95431 c 0.421786,-2.886762 1.743607,-5.780635 3.410381,-7.466407 1.101923,-1.114477 1.470983,-1.323294 3.722263,-2.1061 2.2513,-0.782809 2.67029,-0.848003 4.22593,-0.657606 0.97989,0.119932 2.56175,0.623472 3.65697,1.164083 8.15017,4.023009 12.482556,16.482595 8.58656,24.694236 -1.34897,2.843246 -2.79151,4.19996 -5.596469,5.263523 -1.716821,0.650972 -2.535341,0.830207 -3.570721,0.781895 z"
       id="path7" /><path
       style="fill:none;stroke:#000000;stroke-width:4.2;stroke-dasharray:none;stroke-opacity:1"
       d="m 43.457002,106.08013 c -2.409044,-0.44119 -5.109898,-2.69284 -6.638512,-5.53439 -1.058111,-1.966932 -2.161917,-6.628368 -2.007311,-8.476994 0.192373,-2.300209 0.90713,-4.404439 1.930403,-5.683074 0.844664,-1.055452 1.103444,-1.213261 2.831781,-1.726861 1.729745,-0.514019 2.030717,-0.52292 3.320402,-0.09816 1.605382,0.528727 3.230998,1.786535 4.684626,3.624691 0.866637,1.095888 1.127541,1.71327 2.083522,4.93028 0.962907,3.240315 1.075187,3.87109 0.94443,5.305745 -0.202045,2.216843 -0.897536,4.227143 -1.924725,5.563383 -0.720958,0.93787 -1.124119,1.20843 -2.531379,1.6988 -1.228732,0.42817 -1.944925,0.53363 -2.693237,0.39658 z"
       id="path5" /><path
       style="fill:none;stroke:#000000;stroke-width:4.2;stroke-dasharray:none;stroke-opacity:1"
       d="m 63.164505,84.694212 c -1.7708,-0.16181 -3.827027,-1.2734 -5.487962,-2.966781 -2.149126,-2.191103 -3.128826,-3.80561 -4.232439,-6.974893 -1.101225,-3.162427 -1.339589,-5.051066 -1.016126,-8.051141 0.819077,-7.596841 7.444882,-9.926777 12.775202,-4.492345 2.14381,2.185683 3.129448,3.807398 4.223408,6.94896 1.120239,3.217027 1.394691,5.441196 1.023547,8.294855 -0.468307,3.600717 -2.08367,5.959285 -4.707138,6.872835 -0.814033,0.28346 -1.865186,0.4337 -2.578492,0.36851 z"
       id="path3" /><path
       style="fill:none;stroke:#000000;stroke-width:6.0013;stroke-dasharray:none;stroke-opacity:1"
       d="m 106.61103,202.15529 c 21.94154,-6.43412 5.51067,-51.58205 12.33856,-69.13333 5.75314,-21.60657 22.36385,-32.92426 6.85769,-51.929468 -18.68376,-17.569539 -43.885161,0.03225 -57.990183,15.600498 -18.327957,14.2164 -21.194262,40.33802 -9.846618,60.24715 8.31724,19.27458 20.746257,39.73504 40.08954,47.24513 2.948451,0.2775 6.022801,-0.33072 8.551011,-2.02998 z"
       id="path2"
       sodipodi:nodetypes="ccccccc" /><path
       style="fill:none"
       d="m 89.216176,204.19526 c -5.964721,-0.23147 -9.422008,-5.15648 -13.393871,-8.85743 -4.806587,-3.51905 -6.227214,-9.16592 -8.312715,-14.28669 -2.904664,-4.31969 -3.989428,-9.50434 -6.661022,-13.98733 -3.295959,-4.03217 -5.241486,-9.06496 -4.976732,-14.3207 0.0322,-6.53403 -2.508918,-12.71443 -2.442938,-19.25408 -2.146587,-5.87492 1.495613,-11.63142 1.019344,-17.57745 -1.197497,-5.94356 3.363169,-9.97135 8.00422,-12.68997 4.136036,-2.97663 6.73234,-7.63398 10.69345,-10.619201 5.08455,-2.638388 10.691726,-3.797338 15.899355,-6.083534 4.652912,-3.572616 9.210573,-7.993156 15.399033,-8.510408 5.31722,-0.483218 10.68589,-0.639131 15.86162,-1.924759 5.80308,0.984705 12.99815,-0.165055 17.37233,4.613577 5.35902,5.434943 8.31464,12.568365 10.83463,19.622985 0.90224,7.74827 0.57874,15.65155 -1.57861,23.15918 -1.56593,5.29797 -4.15049,10.3083 -6.38762,15.36344 -2.67288,4.8975 -6.11772,9.39811 -7.93458,14.76884 -2.70776,4.94663 -4.99142,10.09179 -7.02133,15.3246 -2.48185,7.81272 -9.58269,13.7632 -9.93376,22.3423 -2.06015,4.63272 -6.09341,10.54648 -11.25803,11.66778 -4.852569,-0.81446 -8.875922,1.39844 -13.445442,1.49565 l -0.836674,-0.10598 z"
       id="path1" /></g></svg>
