<?xml version="1.0" encoding="UTF-8" standalone="no"?>
<!-- Created with Inkscape (http://www.inkscape.org/) -->

<svg
   width="40mm"
   height="40mm"
   viewBox="0 0 40 40"
   version="1.1"
   id="svg1"
   xml:space="preserve"
   xmlns="http://www.w3.org/2000/svg"
   xmlns:svg="http://www.w3.org/2000/svg"><defs
     id="defs1" /><g
     id="layer1"
     transform="translate(-98.500597,-113.80108)"><path
       style="fill:#000000;fill-opacity:1;stroke:#000000;stroke-width:0.5;stroke-dasharray:none;stroke-opacity:1"
       d="m 128.37799,151.21678 c -0.52474,-0.73961 -0.80222,-1.80495 -1.91382,-1.44883 -1.33802,-0.56316 -1.69304,0.63106 -2.43613,1.43775 -1.25929,-0.15651 -3.42485,-0.88621 -2.37609,-2.60236 0.35817,-0.88997 -1.01834,-1.24688 -1.30491,-2.00195 -0.80649,-0.24344 -2.41974,0.80591 -2.54233,-0.73139 -0.91732,-1.23233 -0.40647,-2.33319 0.93357,-2.80355 0.33247,-0.59965 0.20691,-1.74571 0.17084,-2.41825 -1.2734,-0.56818 -1.92415,-1.61887 -0.87135,-2.8372 0.21971,-1.72871 1.95367,-0.18792 2.73755,-0.76022 0.43669,-0.66018 1.68567,-0.95469 1.3064,-1.86367 -0.87893,-1.7449 1.25277,-2.19801 2.4942,-2.39125 0.76046,0.37232 0.71688,1.89541 1.7597,1.62719 0.86239,0.009 1.78075,0.3598 2.12138,-0.65807 0.51918,-1.61475 3.40073,-0.27849 3.25773,0.93128 -0.17256,0.73177 -0.55919,1.50755 0.27243,1.95279 0.55159,1.29253 1.58441,0.96165 2.69245,0.77556 0.93064,0.73652 1.97262,3.08269 0.062,3.50937 -0.94478,0.32336 -0.23531,1.54006 -0.54418,2.26123 0.0178,0.78964 1.69221,0.86114 1.5264,1.80182 -0.39638,1.40803 -1.13252,2.94752 -2.7973,1.97992 -0.77682,-0.11057 -1.16105,1.09501 -1.87836,1.37818 0.0889,1.08285 0.58618,2.65589 -1.16725,2.69887 -0.46745,0.0842 -1.10635,0.64679 -1.50291,0.16278 z m 1.77999,-1.54961 c -0.95055,-1.83405 1.20781,-3.11748 2.41779,-3.82763 1.14702,0.97827 2.83364,-0.63947 1.26821,-1.36591 -1.19052,-0.73797 -0.77655,-3.02011 -0.27943,-4.02873 0.95377,-0.39702 1.52304,-0.94801 0.77356,-1.89975 -1.86637,0.82136 -3.28245,-1.04359 -3.98693,-2.42021 0.84638,-0.90191 -0.38689,-2.70388 -1.13066,-1.64879 -0.70167,1.7169 -2.66729,0.8342 -4.08179,0.86888 -0.33913,-0.96364 -1.56827,-2.0675 -2.09452,-0.72793 0.80367,1.76106 -1.24661,3.04421 -2.48701,3.70369 -1.587,-1.07519 -2.69403,1.17886 -0.80165,1.69391 0.47239,1.44548 0.66975,3.9382 -1.35344,4.45341 0.0934,1.07115 0.65239,1.44478 1.63029,1.01169 1.21853,-0.0144 2.24142,1.62098 2.7908,2.5476 -0.90824,1.08696 0.554,2.88274 1.31662,1.39542 0.72646,-1.37201 2.84349,-0.70503 3.98049,-0.49478 0.58067,1.18565 0.99216,1.77986 2.03767,0.73913 z m -4.77733,-2.97091 c -2.83637,-0.66311 -4.43271,-4.16286 -3.05486,-6.72926 1.25196,-2.74831 5.28272,-3.54091 7.43002,-1.39438 2.46825,2.00926 1.89857,6.40225 -0.99392,7.72671 -1.02931,0.57157 -2.24722,0.65431 -3.38124,0.39693 z m 2.35361,-1.06827 c 2.37713,-0.69658 3.4134,-3.93297 1.76634,-5.82691 -1.44679,-2.04581 -4.86123,-1.83725 -6.07783,0.33936 -1.43463,2.10012 0.008,5.31555 2.54676,5.60781 0.58703,0.0643 1.19623,0.054 1.76473,-0.12026 z m -17.8365,-7.05207 c -0.41522,-1.34952 -0.39973,-2.92848 -2.20994,-3.02228 -0.67592,-0.48551 -1.31423,-0.59383 -1.9124,0.054 -1.41904,1.71033 -2.79709,-0.51912 -3.63936,-1.6527 0.11186,-0.8537 1.24359,-1.52399 1.18995,-2.31718 -0.64352,-1.34112 -0.87715,-3.02765 -2.74346,-2.84967 -1.526182,-0.28032 -0.712292,-2.51224 -0.716652,-3.60254 1.397822,-0.39575 2.946762,-0.45466 3.064872,-2.28388 0.51539,-0.64744 0.51963,-1.24933 -0.0878,-1.82312 -1.61325,-1.34185 0.34047,-2.51522 1.28228,-3.45684 0.89227,-0.51278 1.71343,0.71938 2.52024,1.07997 1.0697,-0.752 3.01198,-0.61801 2.8956,-2.30197 -0.19946,-1.98443 3.06013,-1.70748 3.86928,-0.88225 -0.0451,1.83369 1.1402,2.53913 2.75611,3.00187 0.63944,0.47021 1.17964,-0.58342 1.78546,-0.74895 1.20954,-0.94904 3.11936,1.41875 2.94437,2.40034 -0.18028,0.72253 -1.38972,1.36441 -0.96126,2.11676 0.45112,1.61303 1.16926,2.78603 2.98923,2.74388 0.84966,0.63949 0.72351,2.93849 0.0724,3.66318 -1.65661,0.0618 -2.63531,0.76042 -2.91307,2.45029 -0.55204,0.56043 -0.1169,1.05902 0.26459,1.56098 1.63921,1.38815 -0.48509,2.61045 -1.45123,3.56724 -0.93951,0.14923 -1.63651,-1.03003 -2.46358,-1.18917 -1.20684,0.71086 -3.07834,0.72623 -2.88485,2.55572 -0.0156,1.81039 -2.55028,0.93175 -3.65081,0.93627 z m 2.81154,-1.98449 c 0.0431,-1.98244 2.68357,-1.85486 3.96282,-2.64298 0.7237,0.051 1.50966,1.47648 2.13308,0.99684 0.262,-0.47675 1.37459,-0.87396 0.84045,-1.42516 -0.86447,-1.00011 -1.33281,-2.15138 -0.28639,-3.26413 0.17819,-1.54792 1.12129,-2.37337 2.64797,-2.40493 0.77377,0.0207 0.25161,-1.01324 0.40238,-1.49956 0.042,-0.85082 -1.46376,-0.41003 -1.99561,-0.82365 -0.90556,-0.88531 -1.23649,-2.58415 -1.75339,-3.74779 0.0433,-0.73039 1.47675,-1.51725 0.99685,-2.14346 -0.47675,-0.262 -0.87397,-1.37459 -1.42516,-0.84044 -1.0423,0.94185 -2.24117,1.26137 -3.41404,0.25085 -1.61932,-0.0883 -2.18744,-1.27173 -2.26933,-2.71141 -0.16395,-0.57383 -1.17312,-0.12209 -1.69155,-0.26579 -0.66882,0.37508 -0.15256,1.9786 -0.9476,2.42945 -1.57429,0.1147 -3.07849,2.17719 -4.47422,0.6425 -0.52375,-0.46943 -1.03047,-0.75692 -1.43936,0.002 -0.65203,0.43297 -0.83231,0.91407 -0.20578,1.47752 1.51849,1.27357 -0.1631,2.63668 -0.41353,4.07069 -0.16444,1.24929 -1.67907,0.95142 -2.59491,1.26358 0.0668,0.58894 -0.13376,1.39835 0.10078,1.84912 1.02692,0.25685 2.58112,0.14168 2.592,1.56344 0.73956,1.40809 1.48616,2.82974 0.0934,4.07309 -0.67937,0.5472 0.36233,0.91874 0.65329,1.36691 0.47696,0.7713 1.12337,-0.36386 1.696,-0.53508 1.33804,-0.85142 2.88617,0.90285 4.22305,1.1761 0.28431,1.30949 0.41355,2.74293 2.07698,2.25465 0.49909,0.11295 0.31628,-0.81384 0.49182,-1.11233 z m -2.54796,-4.05198 c -3.42334,-0.74448 -5.39874,-4.87954 -3.93487,-8.03489 1.13712,-2.53045 4.10517,-4.04637 6.81333,-3.293 3.04056,0.71538 5.02971,4.0873 4.19593,7.09606 -0.69875,3.08602 -4.04016,5.0128 -7.07439,4.23183 z m 2.65689,-1.02099 c 2.96635,-0.70144 4.56343,-4.49409 2.90633,-7.08182 -1.4961,-2.79413 -5.80662,-3.17943 -7.78149,-0.70794 -2.049,2.20786 -1.26598,6.14723 1.45693,7.42191 1.04211,0.54627 2.28332,0.66269 3.41823,0.36785 z"
       id="path110" /></g></svg>
