<?xml version="1.0" encoding="UTF-8" standalone="no"?>
<!-- Created with Inkscape (http://www.inkscape.org/) -->

<svg
   width="135mm"
   height="135mm"
   viewBox="0 0 135 135.00001"
   version="1.1"
   id="svg1"
   xml:space="preserve"
   inkscape:version="1.3 (0e150ed6c4, 2023-07-21)"
   sodipodi:docname="lift.svg"
   xmlns:inkscape="http://www.inkscape.org/namespaces/inkscape"
   xmlns:sodipodi="http://sodipodi.sourceforge.net/DTD/sodipodi-0.dtd"
   xmlns="http://www.w3.org/2000/svg"
   xmlns:svg="http://www.w3.org/2000/svg"><sodipodi:namedview
     id="namedview1"
     pagecolor="#ffffff"
     bordercolor="#000000"
     borderopacity="0.25"
     inkscape:showpageshadow="2"
     inkscape:pageopacity="0.0"
     inkscape:pagecheckerboard="0"
     inkscape:deskcolor="#d1d1d1"
     inkscape:document-units="mm"
     inkscape:zoom="0.80533109"
     inkscape:cx="-104.30493"
     inkscape:cy="587.33607"
     inkscape:window-width="3840"
     inkscape:window-height="2054"
     inkscape:window-x="-11"
     inkscape:window-y="-11"
     inkscape:window-maximized="1"
     inkscape:current-layer="layer1" /><defs
     id="defs1"><inkscape:path-effect
       effect="fill_between_many"
       method="originald"
       linkedpaths="#path4,0,1|"
       id="path-effect15" /></defs><g
     inkscape:label="Layer 1"
     inkscape:groupmode="layer"
     id="layer1"
     transform="translate(-49.079432,-73.846432)"><path
       inkscape:original-d="M 0,0"
       inkscape:path-effect="#path-effect15"
       d="m 134.52634,165.89085 c 1.63751,3.36779 4.28696,6.36437 4.58981,10.22176 0.68856,3.1216 1.36576,6.24404 0.89632,9.45218 -0.0894,1.75153 -0.72297,3.85888 1.7148,3.95792 1.58324,0.92877 3.21334,1.03272 4.89195,0.28273 3.66953,-0.61592 6.07848,-3.73019 8.523,-6.25557 -1.60974,-1.49555 -3.64065,-2.72949 -4.99462,-4.3839 -1.16897,-4.57392 -3.91949,-12.75624 -4.12648,-17.49291 -1.34394,-5.66427 -1.29326,-7.71865 -2.93152,-13.30782 -1.10221,-2.56327 -2.20441,-5.12655 -3.30662,-7.68982 z"
       id="path15" /><path
       id="path4"
       style="fill:#c8c8c8;fill-opacity:1;stroke:#010000;stroke-width:3.265;stroke-dasharray:none;stroke-opacity:1"
       d="m 134.52634,165.89085 c 1.63751,3.36779 4.28696,6.36437 4.58981,10.22176 0.68856,3.1216 1.36576,6.24404 0.89632,9.45218 -0.0894,1.75153 -0.72297,3.85888 1.7148,3.95792 1.58324,0.92877 3.21334,1.03272 4.89195,0.28273 3.66953,-0.61592 6.07848,-3.73019 8.523,-6.25557 -1.60974,-1.49555 -3.64065,-2.72949 -4.99462,-4.3839 -1.16897,-4.57392 -3.91949,-12.75624 -4.12648,-17.49291 -1.34394,-5.66427 -1.29326,-7.71865 -2.93152,-13.30782 -1.10221,-2.56327 -2.20441,-5.12655 -3.30662,-7.68982 m -44.435042,21.51936 c -1.184033,1.27491 -3.110713,2.09274 -3.767527,3.73449 -1.625301,4.06254 0.806708,8.76702 0.376276,13.1214 -0.225156,2.27774 -1.477721,4.40425 -1.536846,6.69232 -0.13017,5.03742 2.138481,9.87265 2.618046,14.88888 0.135831,1.42079 0.917128,3.13185 0.07093,4.28121 -1.694183,2.30115 -5.374776,2.23417 -8.226907,2.40999 -2.618621,0.16142 -5.941188,0.61493 -7.767929,-1.26822 -4.738789,-4.88512 -0.986447,-13.64873 -2.675756,-20.24166 -1.679449,-6.55445 -3.954898,-13.0674 -7.344805,-18.92316 -1.572001,-2.71549 -3.282438,-9.03294 -5.913618,-7.32357 -3.662149,2.37915 3.830039,7.85514 5.968301,11.66296 1.097198,1.95389 5.099986,4.14516 3.515775,5.73003 -0.702307,0.7026 -1.78147,-0.91708 -2.540871,-1.55754 -2.451411,-2.06747 -4.517448,-4.59745 -6.339577,-7.23633 -2.291481,-3.31862 -4.470236,-6.83414 -5.685323,-10.67961 -0.661643,-2.09395 -0.858636,-4.34289 -0.807676,-6.53829 0.08101,-3.49 0.650509,-7.01473 1.764832,-10.32305 1.803524,-5.35449 4.754611,-10.29408 7.834099,-15.03116 2.218305,-3.41235 4.823289,-6.58144 7.605294,-9.55221 2.839223,-3.03187 6.193976,-5.53526 13.572035,-10.84814 7.32268,-3.88798 10.285163,-5.331877 13.259095,-6.743331 2.561774,-0.599554 5.123564,-1.199121 11.217154,-2.537888 8.60528,-5.150777 15.51451,-0.944621 20.72226,-4.66283 3.91988,-2.081508 7.16939,-6.061307 11.58613,-6.835691 3.06344,-0.537117 6.50196,0.12577 9.16976,1.724511 6.74843,4.044156 10.919,11.512324 14.78429,18.398149 2.83972,6.10896 1.5569,13.15328 4.33697,19.25939 1.52006,4.7634 0.39555,9.87702 1.17032,14.78838 0.78471,7.86543 0.66713,15.83092 -1.11316,23.56265 -1.09997,5.8312 -0.76454,13.12984 -6.08372,17.003 -3.98899,2.41781 -10.0463,1.26675 -12.57525,-2.64471 -1.72517,-2.92097 -0.57189,-8.06278 3.47466,-6.48402 0.98742,1.88685 1.29834,7.19091 3.93679,2.80589 4.37899,-5.32939 3.9605,-12.5372 2.97931,-18.92873 -0.41014,-6.6168 -0.49417,-14.22056 -5.97417,-18.92018 -3.26629,-3.66209 -8.37363,-5.05133 -12.54761,-5.42291 -3.52395,4.33656 -4.87288,9.76483 -5.36575,15.22737 -1.81081,7.1887 -5.56652,14.18451 -4.50862,21.81706 0.75908,7.75683 -3.14733,14.80276 -5.32438,21.99108 0.53369,2.82428 4.52756,8.02679 -1.56529,7.21534 -3.93088,0.20933 -10.63182,1.33936 -8.75067,-4.8814 0.2764,-4.07441 1.70764,-7.92124 2.73635,-11.80967 0.35537,-7.37543 -0.61697,-15.14162 -4.30253,-21.63815 -2.61661,-2.1858 -4.51165,-4.21539 -4.98844,-7.698 -4.63898,-0.84388 -6.58549,6.22888 -8.12166,9.45949"
       sodipodi:nodetypes="cccccccccccsssssssssssssssssssccccsscccccccccccccccccccc" /><path
       style="fill:#c8c8c8;stroke:#010000;stroke-width:3.265;stroke-dasharray:none;stroke-opacity:1;fill-opacity:1"
       d="m 144.83428,90.189646 -7.25716,-3.351101 c -6.51716,-6.259506 -14.82668,-5.729166 -15.15963,6.201022 -0.27527,9.863453 4.66623,12.293313 4.46792,16.831693 -0.10267,2.34959 -0.52493,4.83868 0.27552,7.0501 0.69415,1.91773 2.15866,3.51677 3.72968,4.85028 2.523,2.05108 5.06966,4.0728 7.61919,6.09073 1.27313,-1.58794 2.54625,-3.17589 3.81938,-4.76383"
       id="path5"
       sodipodi:nodetypes="ccssaccc" /><path
       style="fill:#ff1818;stroke:#010000;stroke-width:3.265;stroke-dasharray:none;stroke-opacity:1;fill-opacity:1"
       d="m 85.656013,54.598106 c -0.971749,12.913867 -2.256012,25.813958 -3.348158,38.722443 -0.40108,4.571723 -0.985823,9.138001 -0.61157,13.732841 0.07892,5.58168 -0.07156,11.18475 0.07492,16.75422 1.855635,7.14811 3.772937,14.27814 6.160076,21.27048 1.215656,3.60532 2.049869,7.36893 4.06959,10.64062 1.115689,2.15869 2.231378,4.31738 3.347067,6.47607 2.956857,-0.98562 5.913722,-1.97124 8.870592,-2.95686 -2.41003,-3.85893 -4.977151,-7.64679 -7.290178,-11.5496 -2.357141,-8.38423 -5.103332,-16.66837 -6.80141,-25.22217 -0.647624,-2.34732 -1.048662,-4.7202 -0.806471,-7.15976 0.311145,-20.674157 0.622289,-41.348258 0.933434,-62.022443"
       id="path7" /><path
       style="fill:#c82626;stroke:#010000;stroke-width:3.265;stroke-dasharray:none;stroke-opacity:1;fill-opacity:1"
       d="m 90.253905,53.283947 9.03651,45.174122 -4.435287,2.135491 -4.601223,-19.876549"
       id="path8" /><path
       style="fill:#ed181a;stroke:#010000;stroke-width:3.265;stroke-dasharray:none;stroke-opacity:1;fill-opacity:1"
       d="m 107.67647,53.278191 -0.99388,52.900549 4.13828,29.24004 3.91095,-32.34508 -1.72484,-49.795503"
       id="path9"
       sodipodi:nodetypes="ccccc" /><path
       style="fill:#c82626;stroke:#010000;stroke-width:3.265;stroke-dasharray:none;stroke-opacity:1;fill-opacity:1"
       d="m 115.11512,53.264956 4.38053,39.607966 -2.71046,1.149884 -2.87472,-19.697364"
       id="path10"
       sodipodi:nodetypes="cccc" /><path
       style="fill:none;stroke:#010000;stroke-width:3.265;stroke-dasharray:none;stroke-opacity:1"
       d="m 110.82087,135.41878 0.95409,14.12722"
       id="path11" /><path
       style="fill:none;stroke:#010000;stroke-width:3.265;stroke-dasharray:none;stroke-opacity:1"
       d="m 92.555346,198.99124 c 0,0 2.554301,-0.59984 3.0505,-1.6427 2.706452,-5.68817 -3.543305,-18.5625 -3.543305,-18.5625"
       id="path12"
       sodipodi:nodetypes="cac" /><path
       style="fill:#000000;fill-opacity:1;stroke:#020305;stroke-width:3.265;stroke-dasharray:none;stroke-opacity:0.01130524"
       d="m 155.62061,110.78683 c 0,0 1.46525,-0.41564 2.11986,-0.14519 0.5706,0.23574 1.21964,0.77649 1.21964,1.39387 0,0.51448 -0.53174,0.98885 -1.01637,1.16157 -0.71202,0.25376 -1.71413,0.1693 -2.23601,-0.37751 -0.44432,-0.46553 -0.23231,-1.91658 -0.23231,-1.91658"
       id="path13"
       sodipodi:nodetypes="caaaac" /><ellipse
       style="fill:#ffffff;fill-opacity:1;stroke:#020305;stroke-width:3.265;stroke-dasharray:none;stroke-opacity:0.01130524"
       id="path14"
       cx="157.29387"
       cy="111.89058"
       rx="0.64974505"
       ry="1.3067122" /><ellipse
       style="fill:#182626;fill-opacity:0.4110997;stroke:#020305;stroke-width:3.26501;stroke-dasharray:none;stroke-opacity:0.0113053"
       id="path16"
       cx="123.32943"
       cy="220.53946"
       rx="74.25"
       ry="17.905418" /></g></svg>
