<?xml version="1.0" encoding="UTF-8" standalone="no"?>
<!-- Created with Inkscape (http://www.inkscape.org/) -->

<svg
   width="40mm"
   height="40mm"
   viewBox="0 0 40 40"
   version="1.1"
   id="svg1"
   xml:space="preserve"
   inkscape:version="1.3.1 (91b66b0783, 2023-11-16)"
   sodipodi:docname="canvas.svg"
   inkscape:export-filename="painting.svg"
   inkscape:export-xdpi="96"
   inkscape:export-ydpi="96"
   xmlns:inkscape="http://www.inkscape.org/namespaces/inkscape"
   xmlns:sodipodi="http://sodipodi.sourceforge.net/DTD/sodipodi-0.dtd"
   xmlns="http://www.w3.org/2000/svg"
   xmlns:svg="http://www.w3.org/2000/svg"><sodipodi:namedview
     id="namedview1"
     pagecolor="#ffffff"
     bordercolor="#000000"
     borderopacity="0.25"
     inkscape:showpageshadow="2"
     inkscape:pageopacity="0.0"
     inkscape:pagecheckerboard="0"
     inkscape:deskcolor="#d1d1d1"
     inkscape:document-units="mm"
     inkscape:zoom="5.165356"
     inkscape:cx="117.41688"
     inkscape:cy="-10.260667"
     inkscape:window-width="3840"
     inkscape:window-height="2054"
     inkscape:window-x="-11"
     inkscape:window-y="-11"
     inkscape:window-maximized="1"
     inkscape:current-layer="layer1"
     showguides="true"
     showgrid="true"><inkscape:grid
       id="grid79"
       units="mm"
       originx="0"
       originy="0"
       spacingx="0.99999998"
       spacingy="0.99999997"
       empcolor="#0099e5"
       empopacity="0.30196078"
       color="#0099e5"
       opacity="0.14901961"
       empspacing="5"
       dotted="false"
       gridanglex="30"
       gridanglez="30"
       visible="true" /></sodipodi:namedview><defs
     id="defs1" /><g
     inkscape:label="Layer 1"
     inkscape:groupmode="layer"
     id="layer1"
     transform="translate(-98.500597,-113.80108)"><path
       style="fill:#000000;stroke-width:0.768675"
       d="m 119.02832,140.72939 c 0.0321,-2.15205 -0.16279,-4.46378 -1.51633,-6.26681 -0.94144,0.59399 -0.64648,1.70607 -0.65258,3.03281 -1.21057,-1.21745 -1.86684,-1.52173 -0.37396,-3.1501 -1.36824,0.41466 -1.98191,1.78725 -2.47724,2.95875 -0.65711,-0.82091 -0.47307,-1.32346 -0.3887,-1.8074 0.2634,-1.28013 1.8028,-1.51826 2.794,-1.83484 -1.09497,-0.46878 -2.40266,-0.15085 -3.32361,0.53827 -0.6063,0.40727 0.35487,-0.7577 0.55367,-0.9489 0.70115,-0.92112 1.96649,-0.88047 2.89955,-0.54633 -0.26306,-0.32671 -2.1209,-0.77834 -0.87426,-1.08065 0.77903,-0.35722 1.58751,0.80601 1.62605,0.871 0.2693,-0.88689 2.14752,-1.33882 3.20767,-1.24697 -1.8292,0.64552 -2.15221,0.78486 -2.58583,1.5144 -0.36036,0.60946 0.64991,-0.58969 1.02881,-0.45928 1.10168,-0.24605 2.22813,0.3959 2.86876,1.2194 -1.24863,-0.31878 -1.28611,-0.28908 -1.78814,-0.16181 -0.5176,-0.16909 -1.94612,0.0399 -1.85459,0.16071 1.09766,-0.26503 0.73471,0.38531 1.52327,0.50488 0.24738,0.48946 0.47249,-0.009 0.87056,2.0343 -0.66839,-0.53088 -1.7504,-1.48471 -2.54554,-1.82935 1.45064,1.71598 2.06661,3.94956 2.14464,6.12606 1.1586,0.36633 0.84827,0.10037 1.33608,-0.55645 1.11144,-3.32565 1.59786,-8.48373 1.88271,-11.94689 -0.98363,-0.0778 -1.27686,1.27944 -1.78708,1.91284 -0.0963,0.42606 -0.22458,0.40143 -0.71662,0.78853 -0.44632,-1.1075 -0.19075,-2.94618 0.97601,-3.51113 -0.81897,-0.22028 -1.81364,0.10639 -2.68588,0.20487 -1.08337,0.20543 -2.14681,0.49636 -3.19888,0.81608 0.78378,-1.76752 2.86809,-2.9942 4.87413,-2.54856 0.58307,0.0366 1.70698,0.51729 1.89402,0.47898 -1.01812,-0.77908 -3.74368,-1.82402 -4.9341,-2.1047 0.33733,-0.33101 0.86847,-0.41168 1.80177,-0.41502 1.32806,-0.13329 2.99559,0.13617 3.58439,1.45093 0.21615,0.74771 0.53248,0.4916 0.52401,-0.13806 0.38908,-1.3945 2.04843,-2.32976 3.49863,-1.84953 0.51517,0.10327 1.31716,0.35947 1.96973,0.92716 -1.64865,0.0722 -3.77306,0.53136 -4.72016,1.94807 1.53345,0.37472 1.03042,-0.49808 3.79778,-0.579 0.28253,0.38193 2.3355,2.15091 2.35307,2.78953 -1.60505,-0.76844 -3.77761,-1.75112 -5.60013,-1.27378 0.81886,0.54902 1.87662,0.81819 2.42154,1.69104 0.54879,0.58511 0.60229,0.20928 0.86315,2.31533 -2.25783,-2.28941 -3.39744,-1.46801 -4.02304,-2.49574 -0.51202,-0.49365 -0.11255,0.95104 -0.25006,1.22866 -0.0782,3.69482 -0.39858,7.40573 -1.3161,11.00362 0.72126,0.94355 6.0347,1.39894 7.43016,2.90342 -3.75155,7e-4 -5.3997,-0.0603 -5.94633,-0.0529 l -15.36745,0.0562 z"
       id="path56-2"
       sodipodi:nodetypes="cccccccccccccccccccccccccccccccccccccccccccccccccc" /><path
       style="fill:#000000;stroke-width:0.893267"
       d="m 104.09197,151.95014 c -1.93148,-0.75055 -1.44551,-3.01437 -1.02678,-4.50083 0.37372,-2.60039 -0.053,-5.22918 0.11497,-7.84102 0.24645,-2.01829 -0.18667,-3.99631 -0.41777,-5.98279 0.0573,-2.12382 0.84469,-4.21399 0.45177,-6.34845 -0.1759,-2.56255 0.12964,-5.13979 -0.053,-7.69398 -0.40299,-1.59261 -1.11121,-4.59301 1.46321,-4.80477 1.71379,0.16822 3.38285,0.67113 5.13198,0.61374 2.62813,0.007 5.29885,0.23312 7.87035,-0.39228 1.37999,-0.24642 2.89781,-0.36181 4.18227,0.27421 3.21143,0.25219 6.4814,0.39261 9.65971,-0.20869 1.62197,-1.24926 4.1555,0.16512 4.05524,2.03774 -0.34888,1.99531 -0.85152,3.94835 -0.65804,5.99799 -0.0402,3.15012 -0.13596,6.33733 0.49549,9.43948 0.0809,2.37998 -0.81651,4.70826 -0.49361,7.09606 0.0151,2.9235 -0.0678,5.85261 0.18831,8.76983 1.36872,1.49561 -0.30254,3.79693 -2.26767,3.65974 -1.97973,-0.5515 -3.95439,-1.04114 -6.06793,-0.79385 -2.10537,0.003 -4.20151,0.047 -6.26823,0.43671 -1.76504,0.25443 -3.56524,0.039 -5.26346,-0.37842 -2.92428,0.0229 -5.91849,-0.26621 -8.79214,0.28563 -0.70416,0.28592 -1.54919,0.80854 -2.3047,0.33395 z m 1.73149,-1.03568 c 3.04334,-1.28692 6.41501,-0.14189 9.59199,-0.60866 2.40248,1.07491 5.14591,0.51883 7.61788,-0.0188 3.07113,0.64192 6.46396,-0.81344 9.32797,0.78596 3.05149,0.52193 1.90374,-3.17998 1.58935,-4.71117 0.14674,-3.79231 -0.41895,-7.62156 0.14093,-11.38949 0.81611,-1.55577 -0.0246,-3.10434 -0.1657,-4.68373 -0.12646,-2.36133 0.0328,-4.72866 -0.0464,-7.09008 0.0493,-2.34208 0.0322,-4.71275 0.61267,-7.00711 -1.97431,-1.56605 -4.3462,0.94981 -6.55175,0.0501 -2.74532,-0.0769 -5.68108,0.52604 -8.24263,-0.6865 -2.76783,0.64689 -5.65067,0.95857 -8.48757,0.72403 -2.2761,0.38308 -4.51942,-0.33345 -6.72019,-0.77411 -1.79806,1.3509 -0.13369,3.45841 -0.14522,5.14369 -0.22928,2.36563 -0.19598,4.73482 -0.0944,7.10821 0.24338,1.7197 -0.42466,3.33972 -0.47319,5.03598 -0.0191,1.94663 0.64373,3.842 0.41156,5.79272 -9.3e-4,2.12955 0.15438,4.26077 0.0125,6.38903 0.80843,1.99488 -1.69339,4.58627 0.11676,6.16551 0.51139,0.10293 1.03297,-0.0587 1.50534,-0.22552 z m 1.96839,-4.03145 c -0.16041,-9.04393 -0.003,-18.08887 0.01,-27.1332 h 22.58566 c -0.003,8.79684 0.20274,17.59514 -0.033,26.39086 -1.69915,1.81367 -4.43633,0.67337 -6.62381,0.91774 -4.87928,0.24042 -9.78169,0.21385 -14.65876,-0.0735 -0.42704,-0.0301 -0.85376,-0.0639 -1.28007,-0.10188 z m 21.6771,-13.53816 c -0.0212,-4.30415 -0.0422,-8.60829 -0.0634,-12.91245 l -20.74444,-0.1187 v 25.9436 h 20.87124 l -0.0635,-12.91245 z"
       id="path101"
       sodipodi:nodetypes="sccccccccccccccccccccsssccccccccccccccccccssscccccssscccccs" /><rect
       style="fill:none;stroke:#000000;stroke-width:1.15498;stroke-linecap:round;stroke-miterlimit:13.7"
       id="rect101"
       width="7.5134864"
       height="1.0227114"
       x="122.40962"
       y="148.20088" /><path
       style="fill:none;stroke:#000000;stroke-width:1.51493;stroke-linecap:round;stroke-miterlimit:13.7"
       d="m 21.256892,140.14482 c -1.976615,-2.38596 -2.094003,-5.15022 -0.469832,-11.06368 1.253889,-4.56529 1.618589,-6.79525 1.396506,-8.53892 -0.101178,-0.79439 -0.277791,-9.14464 -0.392474,-18.55611 -0.1956,-16.051931 -0.247824,-17.349167 -0.843188,-20.9448 -0.887095,-5.357499 -0.912457,-11.621631 -0.06485,-16.016611 1.144682,-5.935356 1.200233,-6.980684 0.859902,-16.181104 -0.25787,-6.97119 -0.248494,-9.97623 0.04827,-15.469033 0.202569,-3.749408 0.33978,-7.556334 0.304913,-8.459835 -0.03487,-0.903501 -0.553509,-3.429197 -1.152538,-5.612658 -0.59903,-2.183461 -1.167051,-4.717671 -1.262269,-5.631577 -0.235911,-2.264283 0.385461,-4.3296017 1.773027,-5.893193 l 1.064832,-1.1999151 2.292923,0.4969256 c 11.078101,2.4008622 16.060304,3.0829415 20.22605,2.7690093 1.27996,-0.096458 6.023341,-0.2044612 10.540846,-0.2400069 8.912893,-0.07013 13.12403,-0.4810223 20.67101,-2.0169274 l 3.696141,-0.752211 2.600988,0.8844868 c 4.932732,1.6774151 6.362219,1.8233283 18.480701,1.8863943 6.02334,0.031346 12.18771,0.1422302 13.69859,0.2464086 2.94193,0.2028508 2.7914,0.2282598 10.35553,-1.7479611 4.68272,-1.2234185 7.79184,-1.0746706 9.97101,0.4770385 l 0.79953,0.5693138 -0.49509,2.2697776 c -1.34429,6.162859 -1.76073,15.329678 -1.73251,38.136034 l 0.0163,13.141834 1.01044,4.904351 c 1.21154,5.880407 1.27741,7.893235 0.34883,10.659429 -0.36389,1.084007 -0.82363,3.261812 -1.02166,4.839568 -0.41109,3.275389 -0.48079,15.768331 -0.17257,30.931942 0.17953,8.83293 0.25966,10.01916 0.87845,13.00494 1.64533,7.93902 1.07732,11.6425 -2.02605,13.21028 -1.79194,0.90526 -3.85376,0.83763 -6.06927,-0.19907 -3.54508,-1.65886 -5.51903,-1.99631 -11.87208,-2.02958 -3.16225,-0.0166 -8.21365,0.0802 -11.22532,0.21493 -4.038172,0.1807 -6.209995,0.15496 -8.272471,-0.0981 -2.416154,-0.29641 -3.068126,-0.28403 -4.791294,0.091 -5.550653,1.20809 -8.490761,1.59825 -13.083002,1.73614 -5.286566,0.15874 -7.990786,-0.17964 -11.472548,-1.43559 -1.780841,-0.64238 -1.994673,-0.65891 -5.279493,-0.40819 -2.153919,0.16441 -5.292151,0.1662 -8.462517,0.005 -7.736183,-0.39375 -14.772696,-0.33416 -17.760759,0.15043 -1.425356,0.23115 -4.074257,0.92037 -5.886446,1.53158 -1.81219,0.61122 -3.981848,1.17599 -4.821462,1.25505 -1.505042,0.14171 -1.53896,0.12879 -2.405052,-0.91666 z m 99.894388,-8.1789 V 127.7222 H 104.5871 88.022909 v 4.24372 4.24371 h 16.564191 16.56418 z m -31.130038,-5.92641 c 7.229173,-0.25917 10.068328,-0.25142 14.562468,0.0397 6.87647,0.44551 9.39006,0.19556 12.32385,-1.22544 1.05409,-0.51055 2.34574,-1.29561 2.87033,-1.74456 l 0.95381,-0.81628 0.10353,-34.178348 c 0.073,-24.096061 0.19086,-34.233136 0.39957,-34.36408 0.20795,-0.130469 0.18946,-0.4156 -0.0621,-0.958259 -0.27509,-0.593315 -0.39189,-4.218093 -0.50352,-15.625534 l -0.14535,-14.85301 H 77.761042 34.998292 l -0.186404,37.319545 c -0.102522,20.525751 -0.102979,43.671586 -0.001,51.435186 l 0.18539,14.11564 2.21462,0.16435 c 2.434174,0.18065 12.71418,0.7016 16.177818,0.81983 6.655542,0.22719 28.882785,0.14905 36.632541,-0.12878 z"
       id="path102"
       transform="matrix(0.26458333,0,0,0.26458333,98.500597,113.80108)" /><path
       style="fill:none;stroke:#000000;stroke-width:1.51493;stroke-linecap:round;stroke-miterlimit:13.7"
       d="m 22.103501,139.69963 c -1.814108,-1.93103 -1.887488,-4.71478 -0.284193,-10.78117 l 1.148299,-4.34483 -0.06259,-7.11849 C 22.734352,98.044296 22.327682,84.052651 21.850621,81.178204 21.096525,76.63453 21.169146,68.375361 22.003488,63.792652 22.6378,60.308629 22.653015,59.842819 22.723406,41.752702 l 0.07191,-18.480704 -1.080632,-4.517506 c -1.503201,-6.284028 -1.42849,-8.113731 0.420852,-10.3067945 l 0.726139,-0.8611016 3.627514,0.7684407 C 37.836841,10.758886 39.222698,10.873912 52.910313,10.547975 65.195442,10.255436 68.760983,9.9511594 75.575347,8.6137862 l 4.28121,-0.8402219 2.578871,0.8591522 c 4.589594,1.5290245 5.623402,1.6207375 21.307332,1.8902605 l 14.48781,0.248967 4.95116,-1.2401506 c 5.88086,-1.4730209 8.26162,-1.6291817 10.3907,-0.6815555 1.14984,0.5117788 1.30979,0.6778694 1.16564,1.2103401 -0.3487,1.287985 -0.9829,5.38173 -1.26201,8.146338 -0.42285,4.188306 -0.81249,19.793354 -0.81954,32.822875 l -0.006,11.330503 0.98437,4.823001 c 1.12659,5.519767 1.29046,8.477529 0.58578,10.572556 -1.42349,4.232026 -1.79948,13.688195 -1.33353,33.539059 0.26704,11.37731 0.35244,12.78968 0.98498,16.29039 0.85901,4.75411 0.91445,8.25112 0.15724,9.91917 -1.00759,2.21962 -3.43921,2.99682 -6.18138,1.97568 -4.45472,-1.65885 -5.53025,-1.94743 -8.02859,-2.1542 l -2.63791,-0.21833 2.39565,-0.0383 2.39565,-0.0383 v -5.06508 -5.06509 l -4.03838,-0.0147 -4.03838,-0.0147 1.50584,-0.48593 c 1.96818,-0.63513 3.10702,-1.22967 4.85974,-2.53703 l 1.43739,-1.07216 0.0245,-26.753924 c 0.0135,-14.714662 0.10992,-30.45007 0.21437,-34.967576 0.10446,-4.517505 0.10582,-8.768067 0.003,-9.445693 -0.10279,-0.677626 -0.27812,-7.731094 -0.38963,-15.674375 L 121.34835,21.492374 H 77.750989 34.153627 l -0.209749,32.238562 c -0.181335,27.871283 -0.04892,71.974334 0.216888,72.240144 0.0486,0.0486 3.593937,0.30575 7.878526,0.57145 6.117094,0.37934 11.803286,0.48439 26.47613,0.48914 l 18.685966,0.006 8e-5,4.99663 7.6e-5,4.99664 1.984965,0.0309 1.984964,0.0309 -3.833035,0.78434 c -4.794691,0.98112 -11.266081,1.44526 -15.072613,1.08105 -1.497991,-0.14333 -3.894065,-0.60581 -5.324608,-1.02773 l -2.600988,-0.76713 -15.058352,0.0158 -15.058351,0.0158 -2.464094,0.70278 c -1.355252,0.38652 -3.511334,1.01099 -4.791294,1.38771 -3.729521,1.09767 -4.18608,1.13655 -4.864637,0.41426 z"
       id="path108"
       transform="matrix(0.26458333,0,0,0.26458333,98.500597,113.80108)" /><path
       style="fill:none;stroke:#000000;stroke-width:1.51493;stroke-linecap:round;stroke-miterlimit:13.7"
       d="m 22.326092,138.35444 c -1.116489,-1.83592 -0.982701,-3.90823 0.659904,-10.22156 l 0.926047,-3.55925 -0.248652,-16.1535 C 23.406014,91.699742 23.09284,83.531107 22.556421,79.546535 c -0.41094,-3.052511 -0.132814,-13.336574 0.440864,-16.301459 0.346003,-1.788212 0.453577,-5.658362 0.585986,-21.081692 l 0.162182,-18.891386 -0.848267,-3.575445 c -1.391467,-5.865039 -1.581508,-7.518888 -1.029937,-8.963156 0.868236,-2.2734422 0.719844,-2.2508594 6.762742,-1.0291794 8.695308,1.7579124 9.068455,1.7915954 19.282945,1.7406434 14.176959,-0.07072 20.520607,-0.534076 28.610868,-2.0898199 l 3.148564,-0.6054638 2.926952,0.8859435 c 1.609823,0.4872692 3.88911,1.0110362 5.065082,1.1639282 1.175973,0.152892 8.498718,0.418545 16.272768,0.590341 l 14.13464,0.312355 3.5247,-0.848101 c 7.5963,-1.8277949 9.41025,-2.0330518 11.23373,-1.2711531 0.91322,0.3815677 0.97078,0.4746571 0.80413,1.3004941 -1.22235,6.057402 -1.51985,11.834778 -1.71647,33.333411 l -0.16651,18.206915 0.87709,4.362941 c 1.22058,6.071569 1.3421,8.269141 0.61625,11.144289 -1.17523,4.655134 -1.28057,6.642956 -1.24572,23.507589 0.0336,16.2621 0.28737,22.53554 1.0909,26.96814 0.62707,3.4592 0.63886,7.67673 0.0247,8.82503 -0.56022,1.04741 -1.72587,1.71582 -2.99222,1.71582 -0.50188,0 -2.32526,-0.47288 -4.05197,-1.05084 l -3.13947,-1.05083 -0.0742,-5.38319 -0.0742,-5.38319 h -2.07835 -2.07835 l 1.46811,-0.99121 c 0.80746,-0.54517 1.67678,-1.19199 1.93182,-1.43739 0.43085,-0.41456 0.46965,-3.28813 0.54758,-40.556149 0.0461,-22.060485 -0.023,-45.130564 -0.1536,-51.266842 L 122.18218,20.67101 H 77.756861 33.331544 l -0.19657,21.423927 c -0.294057,32.048925 -0.09277,83.423453 0.329737,84.160853 0.282141,0.49242 0.679204,0.61505 2.464094,0.761 7.021938,0.57421 12.660123,0.73898 30.539711,0.89249 l 19.924521,0.17106 -0.07488,4.54311 -0.07488,4.54311 -2.190305,0.37336 c -1.273904,0.21716 -4.481308,0.38926 -7.66607,0.41135 -5.582536,0.0387 -6.300841,-0.047 -10.227452,-1.22129 -1.617935,-0.48384 -2.795249,-0.52035 -16.780443,-0.52035 H 34.338583 l -5.253881,1.50584 c -2.889635,0.82821 -5.473831,1.50583 -5.742658,1.50583 -0.268828,0 -0.726006,-0.39009 -1.015952,-0.86686 z"
       id="path109"
       transform="matrix(0.26458333,0,0,0.26458333,98.500597,113.80108)" /></g></svg>
