<?xml version="1.0" encoding="UTF-8" standalone="no"?>
<!-- Created with Inkscape (http://www.inkscape.org/) -->

<svg
   width="40mm"
   height="40mm"
   viewBox="0 0 40 40"
   version="1.1"
   id="svg1"
   xml:space="preserve"
   inkscape:version="1.3.1 (91b66b0783, 2023-11-16)"
   sodipodi:docname="canvas.svg"
   inkscape:export-filename="copy_branch.svg"
   inkscape:export-xdpi="96"
   inkscape:export-ydpi="96"
   xmlns:inkscape="http://www.inkscape.org/namespaces/inkscape"
   xmlns:sodipodi="http://sodipodi.sourceforge.net/DTD/sodipodi-0.dtd"
   xmlns="http://www.w3.org/2000/svg"
   xmlns:svg="http://www.w3.org/2000/svg"><sodipodi:namedview
     id="namedview1"
     pagecolor="#ffffff"
     bordercolor="#000000"
     borderopacity="0.25"
     inkscape:showpageshadow="2"
     inkscape:pageopacity="0.0"
     inkscape:pagecheckerboard="0"
     inkscape:deskcolor="#d1d1d1"
     inkscape:document-units="mm"
     inkscape:zoom="10.330712"
     inkscape:cx="99.84791"
     inkscape:cy="91.184422"
     inkscape:window-width="3840"
     inkscape:window-height="2054"
     inkscape:window-x="-11"
     inkscape:window-y="-11"
     inkscape:window-maximized="1"
     inkscape:current-layer="layer1"
     showguides="true"
     showgrid="true"><inkscape:grid
       id="grid79"
       units="mm"
       originx="0"
       originy="0"
       spacingx="0.99999998"
       spacingy="0.99999997"
       empcolor="#0099e5"
       empopacity="0.30196078"
       color="#0099e5"
       opacity="0.14901961"
       empspacing="5"
       dotted="false"
       gridanglex="30"
       gridanglez="30"
       visible="true" /></sodipodi:namedview><defs
     id="defs1" /><g
     inkscape:label="Layer 1"
     inkscape:groupmode="layer"
     id="layer1"
     transform="translate(-98.500597,-113.80108)"><path
       style="fill:#000000;fill-opacity:1;stroke:#000000;stroke-width:0;stroke-dasharray:none;stroke-opacity:1"
       d="m 104.50919,143.24173 c -1.21268,-0.59923 -2.29755,-1.86943 -2.76316,-3.2352 l -0.21498,-0.6306 -0.002,-3.52382 -0.002,-3.52381 0.19713,-0.63822 c 0.52461,-1.69852 1.86561,-3.07306 3.54624,-3.63497 l 0.63198,-0.2113 3.05314,-0.0338 3.05313,-0.0338 v -2.86785 -2.86784 l 0.22351,-0.77169 c 0.55611,-1.91999 2.18729,-3.47799 4.04517,-3.86368 0.95152,-0.19754 7.39846,-0.0855 7.99193,0.13887 1.78815,0.67606 3.144,2.16667 3.55439,3.90765 0.21627,0.91751 0.22005,14.47657 0.004,14.89408 -0.31498,0.6091 0.0661,0.57803 -7.08983,0.57803 h -6.51759 v 3.31758 3.31758 l -4.54364,-0.005 -4.54364,-0.005 z m 7.49852,-4.68795 c 0,-4.34427 -0.94631,-3.84169 7.23352,-3.84169 h 6.5176 l -0.001,-6.03415 c -0.002,-7.72228 -0.0968,-8.12591 -2.08599,-8.87014 l -0.51608,-0.1931 h -3.16613 -3.16612 l -0.55355,0.20711 c -0.74419,0.27844 -1.46133,0.9956 -1.76713,1.76719 l -0.22748,0.57399 -0.0353,2.81272 -0.0353,2.81274 h 3.02249 3.02249 l 0.32534,0.21924 c 0.65605,0.44211 0.73774,1.19449 0.18925,1.74309 l -0.2974,0.29746 -7.14039,0.0481 -7.14039,0.0481 -0.64289,0.31656 c -0.69892,0.34416 -1.17657,0.82508 -1.535,1.5455 l -0.22181,0.44582 v 3.36565 3.36566 l 0.33022,0.60908 c 0.81707,1.50703 1.47854,1.72723 5.22312,1.73871 l 2.66848,0.008 z m 4.93295,-13.74246 c -1.09558,-0.66801 -0.53857,-2.28678 0.71814,-2.08703 1.02774,0.16336 1.24368,1.64889 0.30987,2.13177 -0.37296,0.19287 -0.65872,0.18044 -1.02801,-0.0447 z"
       id="path132" /><text
       xml:space="preserve"
       style="font-size:19.9129px;font-family:Arial;-inkscape-font-specification:'Arial, Normal';fill:#ffde57;fill-opacity:1;stroke:none;stroke-width:0.817583;stroke-linecap:round;stroke-linejoin:round;stroke-miterlimit:13.7;stroke-dasharray:none;stroke-opacity:1"
       x="147.76305"
       y="124.74755"
       id="text132"
       transform="scale(0.81937587,1.2204411)"><tspan
         sodipodi:role="line"
         id="tspan132"
         style="fill:#ffde57;fill-opacity:1;stroke:none;stroke-width:0.817583;stroke-dasharray:none"
         x="147.76305"
         y="124.74755">&gt;</tspan></text><text
       xml:space="preserve"
       style="font-size:19.8408px;font-family:Arial;-inkscape-font-specification:'Arial, Normal';fill:#4584b6;fill-opacity:1;stroke:none;stroke-width:0.814623;stroke-linecap:round;stroke-linejoin:round;stroke-miterlimit:13.7;stroke-dasharray:none;stroke-opacity:1"
       x="156.7536"
       y="124.13755"
       id="text132-0"
       transform="scale(0.81322711,1.2296688)"><tspan
         sodipodi:role="line"
         id="tspan132-4"
         style="fill:#4584b6;fill-opacity:1;stroke:none;stroke-width:0.814623;stroke-dasharray:none"
         x="156.7536"
         y="124.13755">&gt;</tspan></text></g></svg>
