<?xml version="1.0" encoding="UTF-8" standalone="no"?>
<!-- Created with Inkscape (http://www.inkscape.org/) -->

<svg
   width="40.710293mm"
   height="40mm"
   viewBox="0 0 40.710293 40"
   version="1.1"
   id="svg1"
   xml:space="preserve"
   inkscape:version="1.3 (0e150ed6c4, 2023-07-21)"
   sodipodi:docname="canvas.svg"
   inkscape:export-filename="save.svg"
   inkscape:export-xdpi="96"
   inkscape:export-ydpi="96"
   xmlns:inkscape="http://www.inkscape.org/namespaces/inkscape"
   xmlns:sodipodi="http://sodipodi.sourceforge.net/DTD/sodipodi-0.dtd"
   xmlns="http://www.w3.org/2000/svg"
   xmlns:svg="http://www.w3.org/2000/svg"><sodipodi:namedview
     id="namedview1"
     pagecolor="#ffffff"
     bordercolor="#000000"
     borderopacity="0.25"
     inkscape:showpageshadow="2"
     inkscape:pageopacity="0.0"
     inkscape:pagecheckerboard="0"
     inkscape:deskcolor="#d1d1d1"
     inkscape:document-units="mm"
     inkscape:zoom="4.5556406"
     inkscape:cx="-37.755393"
     inkscape:cy="61.901283"
     inkscape:window-width="3840"
     inkscape:window-height="2054"
     inkscape:window-x="-11"
     inkscape:window-y="-11"
     inkscape:window-maximized="1"
     inkscape:current-layer="layer1" /><defs
     id="defs1" /><g
     inkscape:label="Layer 1"
     inkscape:groupmode="layer"
     id="layer1"
     transform="translate(-98.500597,-113.80108)"><rect
       style="fill:#ffc90e;fill-opacity:1;stroke:#020305;stroke-width:1.266;stroke-linecap:round;stroke-linejoin:round;stroke-miterlimit:13.7;stroke-dasharray:none;stroke-dashoffset:0"
       id="rect51"
       width="30.560141"
       height="15.800195"
       x="103.05315"
       y="124.61261" /><path
       style="fill:#000000"
       d="m 104.55667,145.1179 c -2.80326,-0.0648 -2.70422,-0.025 -2.87542,-1.15658 -0.0695,-0.4591 -0.0629,-3.29769 0.03,-13.00711 l 0.0666,-6.95513 0.20124,-0.20121 0.20124,-0.20121 h 16.38445 16.38444 l 0.24497,0.2449 0.24497,0.2449 0.0672,9.25272 c 0.0847,11.66895 0.0966,11.46564 -0.68562,11.70821 -0.29873,0.0926 -26.65263,0.15404 -30.26401,0.0705 z m -1.76283,-0.67066 c 0,-0.0243 -0.0199,-0.0442 -0.0442,-0.0442 -0.0243,0 -0.0442,0.0199 -0.0442,0.0442 0,0.0243 0.0199,0.0442 0.0442,0.0442 0.0243,0 0.0442,-0.0199 0.0442,-0.0442 z m 31.62927,0 c 0,-0.0243 -0.0199,-0.0442 -0.0442,-0.0442 -0.0243,0 -0.0442,0.0199 -0.0442,0.0442 0,0.0243 0.0199,0.0442 0.0442,0.0442 0.0243,0 0.0442,-0.0199 0.0442,-0.0442 z m -0.31863,-0.43438 c -0.0438,-0.11414 -0.0772,-0.1259 -0.12724,-0.0449 -0.0894,0.14463 0.002,0.3838 0.1071,0.27909 0.0437,-0.0437 0.0528,-0.14913 0.0201,-0.23422 z m -31.69547,0.001 c -0.007,-0.11682 -0.0426,-0.19399 -0.079,-0.17148 -0.0936,0.0577 -0.0827,0.38388 0.0127,0.38388 0.0435,0 0.0733,-0.0956 0.0663,-0.2124 z m 0.73823,0.0253 c 0,-0.0486 -0.0397,-0.0638 -0.0883,-0.0337 -0.0486,0.03 -0.0884,0.0944 -0.0884,0.14296 0,0.0486 0.0398,0.0638 0.0884,0.0337 0.0486,-0.03 0.0883,-0.0944 0.0883,-0.14295 z m 31.71762,0 c 0,-0.0486 -0.0398,-0.0638 -0.0883,-0.0337 -0.0486,0.03 -0.0883,0.0944 -0.0883,0.14296 0,0.0486 0.0397,0.0638 0.0883,0.0337 0.0486,-0.03 0.0883,-0.0944 0.0883,-0.14295 z m -23.55248,-0.0432 c 0.31011,-0.119 0.0466,-0.82557 -0.3726,-0.99922 -0.41165,-0.17051 -0.72512,-0.0448 -0.72173,0.28936 0.006,0.54509 0.56982,0.91114 1.09433,0.70986 z m 15.46363,-0.14516 c 0.32011,-0.28169 0.39309,-0.72455 0.14159,-0.85915 -0.51827,-0.27736 -1.32265,0.42297 -1.04849,0.91286 0.12102,0.21625 0.6347,0.18583 0.9069,-0.0537 z m -23.94176,-0.0602 c 0.0653,-0.10572 -0.10087,-0.21047 -0.21855,-0.13774 -0.0988,0.0611 -0.0339,0.21999 0.0898,0.21999 0.0429,0 0.1008,-0.037 0.12876,-0.0823 z m 31.71761,0 c 0.0784,-0.12684 -0.10794,-0.20133 -0.32833,-0.13126 -0.1919,0.061 -0.19255,0.0651 -0.0213,0.13202 0.24191,0.0946 0.29079,0.0944 0.34963,-7.6e-4 z m -15.94338,-2.52407 c 0,-0.0243 -0.0199,-0.0442 -0.0442,-0.0442 -0.0243,0 -0.0442,0.0199 -0.0442,0.0442 0,0.0243 0.0199,0.0442 0.0442,0.0442 0.0243,0 0.0442,-0.0199 0.0442,-0.0442 z m -0.26505,-0.30401 c 0,-0.10425 -0.17232,-0.21575 -0.2356,-0.15247 -0.0633,0.0633 0.0482,0.2356 0.15246,0.2356 0.0457,0 0.0831,-0.0374 0.0831,-0.0831 z m 0.66369,-0.16612 c -0.0702,-0.0702 -0.2221,0.0892 -0.16817,0.17644 0.0367,0.0594 0.0822,0.0503 0.12917,-0.0256 0.0399,-0.0645 0.0574,-0.13238 0.039,-0.1508 z m -0.22194,-0.18005 c 0.1178,-0.0135 0.1178,-0.0247 0,-0.1008 -0.17877,-0.11552 -0.29052,-0.10963 -0.47468,0.025 -0.15685,0.11468 -0.0353,0.13409 0.47468,0.0758 z m 14.44019,-1.79911 c 0.24218,-0.34575 0.20479,-12.81218 -0.0392,-13.05612 -0.27879,-0.27879 -29.05338,-0.27879 -29.33217,0 -0.28045,0.28045 -0.30316,12.78828 -0.0238,13.09787 0.13181,0.14606 0.94487,0.15461 14.69856,0.15461 h 14.55903 z m -28.22278,-1.21202 c 0,-0.0457 0.0393,-0.10743 0.0873,-0.13711 0.0501,-0.031 0.0649,0.005 0.0347,0.0831 -0.0587,0.15306 -0.12206,0.18106 -0.12206,0.054 z m 1.22065,-0.22164 c -0.0208,-0.17842 -0.0103,-0.34146 0.0235,-0.36231 0.0852,-0.0526 0.15237,0.46346 0.0763,0.58649 -0.0341,0.0551 -0.079,-0.0458 -0.0998,-0.22418 z m 0.60588,0.14038 c 0.0258,-0.0988 -0.0127,-0.18605 -0.0966,-0.21822 -0.15063,-0.0578 -0.19506,-0.32418 -0.0541,-0.32418 0.0471,0 0.0647,0.0545 0.0391,0.12112 -0.0256,0.0666 0.0154,0.14488 0.0911,0.17393 0.14998,0.0576 0.18577,0.2832 0.0575,0.36248 -0.0441,0.0272 -0.0607,-0.0246 -0.0371,-0.11513 z m -1.2002,-0.0859 c -0.0622,-0.11632 -0.056,-0.16197 0.0221,-0.16197 0.0598,0 0.10882,0.0729 0.10882,0.16197 0,0.0891 -0.01,0.16197 -0.0221,0.16197 -0.0122,0 -0.0611,-0.0729 -0.10882,-0.16197 z m 2.65465,-0.0368 c -0.009,-0.18808 0.0279,-0.24296 0.16467,-0.24296 0.0972,0 0.1767,0.0385 0.1767,0.0856 0,0.0471 -0.0565,0.0639 -0.1255,0.0374 -0.0813,-0.0312 -0.13928,0.0242 -0.16467,0.15739 -0.0352,0.18457 -0.0404,0.18076 -0.0512,-0.0374 z m -2.26495,-0.0663 c 0.03,-0.0486 0.0745,-0.0883 0.0988,-0.0883 0.0243,0 0.0196,0.0397 -0.0104,0.0883 -0.03,0.0486 -0.0745,0.0883 -0.0988,0.0883 -0.0243,0 -0.0196,-0.0397 0.0104,-0.0883 z m -0.83933,-0.0442 c 0,-0.0243 0.0199,-0.0442 0.0442,-0.0442 0.0243,0 0.0442,0.0199 0.0442,0.0442 0,0.0243 -0.0199,0.0442 -0.0442,0.0442 -0.0243,0 -0.0442,-0.0199 -0.0442,-0.0442 z m 1.9968,-0.0586 c 0.0465,-0.0753 0.55805,-0.0688 0.60529,0.008 0.0185,0.0299 -0.11875,0.0544 -0.30499,0.0544 -0.18625,0 -0.32138,-0.0279 -0.3003,-0.062 z m 0.8304,0.0586 c 0,-0.0243 0.0199,-0.0442 0.0442,-0.0442 0.0243,0 0.0442,0.0199 0.0442,0.0442 0,0.0243 -0.0199,0.0442 -0.0442,0.0442 -0.0243,0 -0.0442,-0.0199 -0.0442,-0.0442 z m -2.8272,-0.26505 c 0,-0.0243 0.0199,-0.0442 0.0442,-0.0442 0.0243,0 0.0442,0.0199 0.0442,0.0442 0,0.0243 -0.0199,0.0442 -0.0442,0.0442 -0.0243,0 -0.0442,-0.0199 -0.0442,-0.0442 z m 3.13241,-1.05618 -0.21686,-0.21686 v -3.01193 -3.01193 l 0.21686,-0.21686 0.21686,-0.21686 h 9.93146 c 9.91362,0 9.93188,3.3e-4 10.16425,0.18312 l 0.23279,0.18311 v 3.07942 3.07942 l -0.23279,0.18311 c -0.23237,0.18279 -0.25063,0.18312 -10.16425,0.18312 h -9.93146 z m 10.82688,-1.05008 c 0,-0.0165 -0.0795,-0.34095 -0.1767,-0.72094 -0.23317,-0.91166 -0.23571,-2.09132 -0.006,-2.89374 l 0.17046,-0.59608 h -1.49175 -1.49175 l 0.23025,0.59636 c 0.3946,1.02202 0.32904,2.19915 -0.19438,3.48983 -0.0583,0.14366 0.0443,0.15461 1.4487,0.15461 0.83127,0 1.51141,-0.0135 1.51141,-0.03 z m -7.11217,-0.31416 c 0.36927,-0.17097 0.90863,-0.67615 0.81831,-0.76646 -0.0288,-0.0288 0.004,-0.18693 0.0727,-0.35148 0.54457,-1.30336 -0.79144,-2.77799 -2.11969,-2.33963 -0.98723,0.32582 -1.50497,1.57779 -1.03428,2.50103 0.0917,0.17981 0.12746,0.30269 0.0795,0.27307 -0.19944,-0.12326 0.12601,0.32201 0.34997,0.47883 0.56018,0.39223 1.25963,0.4703 1.83344,0.20464 z m 14.1597,0.0308 c 0.18,-0.0752 0.42092,-0.2243 0.53538,-0.33132 0.23201,-0.21692 0.44918,-0.56404 0.29218,-0.467 -0.0518,0.032 -0.0359,-0.081 0.0354,-0.25156 0.38665,-0.92537 -0.045,-2.00868 -0.95127,-2.38734 -1.30885,-0.54687 -2.67012,0.75275 -2.26942,2.16664 0.061,0.21521 0.12119,0.4453 0.13377,0.5113 0.12305,0.64537 1.42929,1.09133 2.224,0.75928 z m -6.81193,-1.68916 c -0.0324,-0.0324 -0.0589,-0.006 -0.0589,0.0589 0,0.0648 0.0265,0.0913 0.0589,0.0589 0.0324,-0.0324 0.0324,-0.0854 0,-0.1178 z m 0.001,-0.39942 c -0.0282,-0.0705 -0.0491,-0.0495 -0.0534,0.0534 -0.004,0.0931 0.017,0.14532 0.0464,0.11596 0.0294,-0.0294 0.0325,-0.10556 0.007,-0.16934 z m -13.51899,-2.25108 c -0.0324,-0.0324 -0.0589,-0.6849 -0.0589,-1.45001 v -1.3911 l 0.36051,-0.0609 c 1.13687,-0.19207 2.03363,0.56679 1.4085,1.19192 -0.17403,0.17402 -0.17386,0.17553 0.0442,0.39356 0.36427,0.36427 0.22775,1.0022 -0.26447,1.23577 -0.29349,0.13927 -1.3728,0.19779 -1.48981,0.0808 z m 1.30112,-0.66998 c 0.14919,-0.23817 -0.0392,-0.45894 -0.41921,-0.49126 l -0.32236,-0.0274 v 0.36406 0.36407 l 0.32236,-0.0274 c 0.18789,-0.016 0.36277,-0.0919 0.41921,-0.18203 z m -0.0883,-1.2369 c 0.14104,-0.22526 -0.0364,-0.45783 -0.37503,-0.49152 -0.2716,-0.027 -0.27823,-0.019 -0.27823,0.3369 0,0.40379 0.43307,0.50629 0.65326,0.15462 z m 22.9494,0.3534 c -0.007,-0.13363 -0.053,-0.24297 -0.10159,-0.24297 -0.0813,0 -0.12438,0.12517 -0.0988,0.28714 0.006,0.0365 -0.0293,0.0663 -0.0779,0.0663 -0.14927,0 -0.0977,-0.41925 0.059,-0.47936 0.20789,-0.0798 0.31465,0.0616 0.27042,0.35816 l -0.0378,0.25373 z m 0.20581,0.0163 c -0.0455,-0.14342 -0.002,-0.24766 0.17014,-0.40726 0.26148,-0.24245 0.35339,-0.15268 0.30211,0.29512 -0.037,0.32344 -0.37939,0.40473 -0.47225,0.11214 z m 0.31105,-0.12676 c 0,-0.0729 -0.0398,-0.13253 -0.0883,-0.13253 -0.0486,0 -0.0883,0.0596 -0.0883,0.13253 0,0.0729 0.0398,0.13252 0.0883,0.13252 0.0486,0 0.0883,-0.0596 0.0883,-0.13252 z m 0.32395,0.25032 c -0.19605,-0.19605 0.0194,-0.65491 0.23211,-0.49427 0.0586,0.0443 0.20596,0.0708 0.32744,0.059 0.18919,-0.0185 0.22226,0.0162 0.23055,0.2416 0.006,0.17208 -0.0203,0.23313 -0.077,0.17642 -0.0477,-0.0477 -0.15143,-0.0625 -0.23055,-0.0329 -0.12197,0.0456 -0.1264,0.0323 -0.0291,-0.0874 0.15153,-0.18649 0.0261,-0.2443 -0.23419,-0.10796 -0.19625,0.10279 -0.19871,0.11413 -0.0442,0.20395 0.13295,0.0773 0.1374,0.0956 0.0238,0.0978 -0.0769,0.001 -0.16639,-0.0238 -0.19879,-0.0562 z m 0.1767,-0.3534 c -0.0324,-0.0324 -0.0854,-0.0324 -0.1178,0 -0.0324,0.0324 -0.006,0.0589 0.0589,0.0589 0.0648,0 0.0913,-0.0265 0.0589,-0.0589 z m -1.6492,0.10308 c 0,-0.12148 0.0398,-0.22088 0.0884,-0.22088 0.0486,0 0.0883,0.0994 0.0883,0.22088 0,0.12148 -0.0397,0.22087 -0.0883,0.22087 -0.0486,0 -0.0884,-0.0994 -0.0884,-0.22087 z m 0.0294,-0.45648 c 0.0324,-0.0324 0.0854,-0.0324 0.1178,0 0.0324,0.0324 0.006,0.0589 -0.0589,0.0589 -0.0648,0 -0.0913,-0.0265 -0.0589,-0.0589 z m -25.38587,-0.20884 c 0,-0.0471 0.0696,-0.0869 0.15461,-0.0883 0.14725,-0.003 0.14725,-0.007 0,-0.0927 -0.19475,-0.11344 -0.1996,-0.31016 -0.009,-0.38313 0.18088,-0.0694 0.28734,0.0217 0.13523,0.11567 -0.0877,0.0542 -0.0824,0.0939 0.0247,0.18271 0.11607,0.0963 0.1367,0.0852 0.1367,-0.0741 0,-0.10313 0.0398,-0.18751 0.0884,-0.18751 0.29448,0 0.0777,0.59021 -0.22087,0.60144 -0.17008,0.006 -0.30923,-0.0269 -0.30923,-0.074 z m 0.7068,-0.21297 c 0,-0.34986 0.10318,-0.44835 0.33804,-0.32266 0.11438,0.0612 0.19625,0.0571 0.26688,-0.0136 0.0769,-0.0769 0.12783,-0.0759 0.2079,0.004 0.0825,0.0825 0.0776,0.10632 -0.0221,0.10737 -0.10899,0.001 -0.10834,0.0143 0.004,0.0884 0.1178,0.0773 0.1178,0.0967 0,0.17399 -0.0886,0.0582 -0.0959,0.0875 -0.0221,0.0884 0.0607,7.5e-4 0.11044,0.0411 0.11044,0.0897 0,0.0486 -0.0795,0.0883 -0.1767,0.0883 -0.0972,0 -0.1767,-0.0477 -0.1767,-0.10602 0,-0.0825 -0.0236,-0.0825 -0.10602,0 -0.22028,0.22027 -0.42408,0.12512 -0.42408,-0.198 z m 0.29592,-0.0964 c -0.0701,-0.18263 -0.11922,-0.16111 -0.11922,0.0522 0,0.10005 0.038,0.15842 0.0845,0.1297 0.0465,-0.0287 0.0621,-0.11059 0.0347,-0.18192 z m -2.23962,-2.73602 c 0,-0.0243 -0.0199,-0.0442 -0.0442,-0.0442 -0.0243,0 -0.0442,0.0199 -0.0442,0.0442 0,0.0243 0.0199,0.0442 0.0442,0.0442 0.0243,0 0.0442,-0.0199 0.0442,-0.0442 z m 31.30758,-0.45995 c -0.0519,-0.20663 -0.0372,-0.2232 0.15502,-0.17496 0.2486,0.0624 0.51118,-0.0565 0.34778,-0.15751 -0.28822,-0.17813 -0.76779,0.22929 -0.64617,0.54895 0.077,0.20248 0.20139,0.0147 0.14337,-0.21648 z m -31.63229,0.18095 c 0.032,-0.032 0.0138,-0.11149 -0.0403,-0.1767 -0.10008,-0.12059 -0.075,-0.13776 0.22466,-0.15374 0.23006,-0.0123 0.29221,-0.22988 0.0657,-0.22988 -0.22525,0 -0.45543,0.22645 -0.45543,0.44806 0,0.17009 0.0954,0.22223 0.20539,0.11226 z m 0.67811,-0.11857 c 0,-0.0486 -0.0175,-0.0883 -0.039,-0.0883 -0.0214,0 -0.0635,0.0398 -0.0936,0.0883 -0.03,0.0486 -0.0125,0.0884 0.039,0.0884 0.0515,0 0.0936,-0.0398 0.0936,-0.0884 z m 31.67344,0 c 0.03,-0.0486 0.0347,-0.0883 0.0104,-0.0883 -0.0243,0 -0.0687,0.0398 -0.0988,0.0883 -0.03,0.0486 -0.0347,0.0884 -0.0104,0.0884 0.0243,0 0.0687,-0.0398 0.0988,-0.0884 z m -31.76179,-0.30923 c 0,-0.0243 -0.0199,-0.0442 -0.0442,-0.0442 -0.0243,0 -0.0442,0.0199 -0.0442,0.0442 0,0.0243 0.0199,0.0442 0.0442,0.0442 0.0243,0 0.0442,-0.0199 0.0442,-0.0442 z"
       id="path51" /></g></svg>
