<?xml version="1.0" encoding="UTF-8" standalone="no"?>
<!-- Created with Inkscape (http://www.inkscape.org/) -->

<svg
   width="40.710293mm"
   height="40mm"
   viewBox="0 0 40.710293 40"
   version="1.1"
   id="svg1"
   xml:space="preserve"
   inkscape:version="1.3 (0e150ed6c4, 2023-07-21)"
   sodipodi:docname="canvas.svg"
   inkscape:export-filename="missing.svg"
   inkscape:export-xdpi="96"
   inkscape:export-ydpi="96"
   xmlns:inkscape="http://www.inkscape.org/namespaces/inkscape"
   xmlns:sodipodi="http://sodipodi.sourceforge.net/DTD/sodipodi-0.dtd"
   xmlns="http://www.w3.org/2000/svg"
   xmlns:svg="http://www.w3.org/2000/svg"><sodipodi:namedview
     id="namedview1"
     pagecolor="#ffffff"
     bordercolor="#000000"
     borderopacity="0.25"
     inkscape:showpageshadow="2"
     inkscape:pageopacity="0.0"
     inkscape:pagecheckerboard="0"
     inkscape:deskcolor="#d1d1d1"
     inkscape:document-units="mm"
     inkscape:zoom="1.8262291"
     inkscape:cx="-127.5853"
     inkscape:cy="25.736092"
     inkscape:window-width="3840"
     inkscape:window-height="2054"
     inkscape:window-x="-11"
     inkscape:window-y="-11"
     inkscape:window-maximized="1"
     inkscape:current-layer="layer1"
     showguides="true"><sodipodi:guide
       position="19.848504,22.904207"
       orientation="0,-1"
       id="guide82"
       inkscape:locked="false" /><sodipodi:guide
       position="42.739479,18.3405"
       orientation="1,0"
       id="guide83"
       inkscape:locked="false" /></sodipodi:namedview><defs
     id="defs1" /><g
     inkscape:label="Layer 1"
     inkscape:groupmode="layer"
     id="layer1"
     transform="translate(-98.500597,-113.80108)"><path
       style="fill:#000000;fill-opacity:1;stroke:#010102;stroke-width:0.591861;stroke-opacity:1"
       d="m 109.04174,150.90338 c -1.39245,-0.44378 -1.74381,-0.84026 -2.0648,-2.32999 -0.0707,-0.3282 -0.15586,-0.47191 -0.19452,-0.32832 -0.18835,0.69953 -1.04966,0.10522 -1.06486,-0.73477 -0.007,-0.37839 -0.0635,-0.9835 -0.12604,-1.34466 l -0.11357,-0.65666 -0.84025,-0.073 c -0.76244,-0.0662 -0.84509,-0.10935 -0.8925,-0.46597 -0.0545,-0.40986 0.062,-0.45622 1.48067,-0.58911 0.41255,-0.0387 0.42099,-0.065 0.46822,-1.46212 0.0416,-1.23135 0.87616,-2.44753 0.87616,-1.27684 0,0.0802 -0.11343,0.14593 -0.25207,0.14593 -0.37566,0 -0.45552,5.8646 -0.0842,6.187 0.30414,0.26409 0.3424,-0.0133 0.3422,-2.48072 -9e-5,-1.35626 0.0827,-3.01722 0.18407,-3.69102 0.1499,-0.99692 0.1347,-1.49973 -0.0816,-2.69961 -0.14623,-0.81098 -0.37933,-2.164 -0.518,-3.00672 -0.24516,-1.49003 -0.62468,-3.74534 -1.19912,-7.12599 -0.29678,-1.74657 -0.22748,-4.21119 0.1399,-4.9754 0.0992,-0.20634 0.33794,-0.73673 0.53055,-1.17865 2.90143,-6.65678 11.86941,-9.20993 19.14731,-5.45119 4.10032,2.11765 7.0905,7.30273 6.35609,11.02165 -0.10889,0.55135 -0.19797,1.36146 -0.19797,1.80025 0,0.43878 -0.0732,1.07781 -0.16277,1.42005 -0.0895,0.34226 -0.24959,1.41027 -0.3557,2.37337 -0.10612,0.96311 -0.26015,2.30926 -0.34229,2.99146 -0.4078,3.38659 -0.418,3.62701 -0.149,3.51724 0.13945,-0.0569 0.71607,-0.0782 1.28138,-0.0472 l 1.02784,0.0562 0.19727,0.57172 c 0.17823,0.5166 0.25133,0.57172 0.7581,0.57172 0.95463,0 1.01615,0.184 1.07706,3.22103 0.0409,2.03837 -5.1e-4,2.82606 -0.16174,3.07885 -0.11918,0.18683 -0.20061,0.38894 -0.18097,0.44914 0.0196,0.0602 -0.19117,0.10944 -0.46844,0.10944 -0.27728,0 -0.50415,-0.0656 -0.50415,-0.14592 0,-0.0802 0.18023,-0.14593 0.40051,-0.14593 0.54729,0 0.60505,-0.27003 0.59303,-2.77257 -0.0142,-2.95642 -0.10853,-3.41642 -0.71288,-3.47653 l -0.47557,-0.0473 0.0477,3.33061 c 0.0571,3.99168 0.0587,3.98726 -1.38523,3.98726 -0.90254,0 -0.95779,-0.0216 -1.1648,-0.45558 l -0.21732,-0.45557 -0.20778,0.71095 c -0.52617,1.80034 -3.21078,2.48831 -5.02391,1.28745 -0.66957,-0.44348 -0.7655,-0.61999 -0.90556,-1.66623 l -0.10681,-0.79788 -3.52903,0.009 c -1.94095,0.005 -4.29203,0.0192 -5.2246,0.0318 l -1.69559,0.0229 -0.21029,1.02182 c -0.35376,1.71888 -2.15427,2.58299 -4.094,1.96481 z m 14.16534,-5.9781 v -2.55368 h -4.7894 -4.78938 v 2.55368 2.55369 h 4.78938 4.7894 z m 9.24082,0.10945 c -0.001,-1.10356 -0.0487,-2.25272 -0.10601,-2.55369 l -0.10416,-0.54721 h -0.90229 -0.90227 v 2.55368 2.55367 h 1.00829 1.00829 z m -8.92918,-3.17648 c 0.0596,-0.0516 0.16232,-1.08988 0.22813,-2.30739 0.0658,-1.21752 0.20215,-2.96882 0.303,-3.89179 0.10081,-0.92298 0.21717,-2.0393 0.25852,-2.48073 0.0413,-0.44142 0.15193,-1.36074 0.24572,-2.04294 0.78128,-5.68244 -0.0744,-7.95079 -3.53165,-9.36133 -6.14365,-2.50662 -10.86268,1.46117 -9.59793,8.06999 0.17432,0.91088 0.31297,1.76255 0.30809,1.8926 -0.008,0.22313 0.25184,1.78678 0.82268,4.94388 0.13785,0.76245 0.28171,1.84594 0.31966,2.40776 0.038,0.5618 0.11532,1.4483 0.17193,1.96998 l 0.10292,0.9485 5.13023,-0.0274 c 2.82163,-0.015 5.17904,-0.0695 5.2387,-0.12112 z"
       id="path69" /><rect
       style="fill:#000000;fill-opacity:1;stroke:#000000;stroke-width:1;stroke-linecap:round;stroke-miterlimit:13.7;stroke-opacity:1"
       id="rect69"
       width="12.156165"
       height="5.0857511"
       x="112.049"
       y="142.20406" /></g></svg>
