<?xml version="1.0" encoding="UTF-8" standalone="no"?>
<!-- Created with Inkscape (http://www.inkscape.org/) -->

<svg
   width="40.710293mm"
   height="40mm"
   viewBox="0 0 40.710293 40"
   version="1.1"
   id="svg1"
   xml:space="preserve"
   inkscape:version="1.3 (0e150ed6c4, 2023-07-21)"
   sodipodi:docname="canvas.svg"
   inkscape:export-filename="shearandbending.svg"
   inkscape:export-xdpi="96"
   inkscape:export-ydpi="96"
   xmlns:inkscape="http://www.inkscape.org/namespaces/inkscape"
   xmlns:sodipodi="http://sodipodi.sourceforge.net/DTD/sodipodi-0.dtd"
   xmlns="http://www.w3.org/2000/svg"
   xmlns:svg="http://www.w3.org/2000/svg"><sodipodi:namedview
     id="namedview1"
     pagecolor="#ffffff"
     bordercolor="#000000"
     borderopacity="0.25"
     inkscape:showpageshadow="2"
     inkscape:pageopacity="0.0"
     inkscape:pagecheckerboard="0"
     inkscape:deskcolor="#d1d1d1"
     inkscape:document-units="mm"
     inkscape:zoom="2.2778203"
     inkscape:cx="-76.388818"
     inkscape:cy="90.876352"
     inkscape:window-width="3840"
     inkscape:window-height="2054"
     inkscape:window-x="-11"
     inkscape:window-y="-11"
     inkscape:window-maximized="1"
     inkscape:current-layer="layer1" /><defs
     id="defs1" /><g
     inkscape:label="Layer 1"
     inkscape:groupmode="layer"
     id="layer1"
     transform="translate(-98.500597,-113.80108)"><path
       style="fill:none;fill-opacity:0.976471;stroke:#020305;stroke-width:1.65512;stroke-linecap:round;stroke-linejoin:round;stroke-miterlimit:13.7;stroke-dasharray:none;stroke-dashoffset:0"
       d="m 101.40702,139.46452 h 35.59439"
       id="path27" /><path
       style="fill:none;fill-opacity:0.976471;stroke:#020305;stroke-width:1.65512;stroke-linecap:round;stroke-linejoin:round;stroke-miterlimit:13.7;stroke-dasharray:none;stroke-dashoffset:0"
       d="m 101.40702,139.46452 c 0,0 5.96075,-1.58445 8.37865,-3.58683 2.12241,-1.75768 5.61845,-5.56753 6.85526,-7.02149 2.45986,-2.89177 4.75484,0.21858 5.12876,3.93049 1.36594,13.55977 3.53649,33.15442 8.88645,1.69058 0.26858,-1.57956 2.29646,1.84332 3.45303,2.75107 0.95953,0.75312 2.89224,2.23618 2.89224,2.23618"
       id="path31"
       sodipodi:nodetypes="cssssac" /><path
       style="fill:none;stroke:#000000;stroke-width:0.374431;stroke-dasharray:none;stroke-opacity:1"
       d="m 128.94176,118.11349 c -0.91382,-0.0298 -1.69977,-0.85328 -1.54047,-1.61412 0.045,-0.21499 0.18607,-0.43051 0.36395,-0.55606 0.11759,-0.083 0.15698,-0.0986 0.39723,-0.15685 0.24025,-0.0583 0.28497,-0.0632 0.45098,-0.049 0.10458,0.009 0.27339,0.0464 0.39027,0.0867 0.86977,0.29961 1.33212,1.22753 0.91634,1.83909 -0.14396,0.21174 -0.2979,0.31278 -0.59724,0.39199 -0.18322,0.0485 -0.27057,0.0618 -0.38106,0.0582 z"
       id="path7-4" /><path
       style="fill:none;stroke:#000000;stroke-width:0.374431;stroke-dasharray:none;stroke-opacity:1"
       d="m 123.8036,121.33399 c -0.25709,-0.0329 -0.54532,-0.20055 -0.70845,-0.41217 -0.11292,-0.14648 -0.23071,-0.49364 -0.21421,-0.63131 0.0205,-0.17131 0.0968,-0.32802 0.206,-0.42325 0.0901,-0.0786 0.11776,-0.0904 0.30221,-0.1286 0.18459,-0.0383 0.21671,-0.0389 0.35434,-0.007 0.17133,0.0394 0.34481,0.13305 0.49994,0.26994 0.0925,0.0816 0.12033,0.1276 0.22235,0.36718 0.10276,0.24132 0.11474,0.2883 0.10079,0.39514 -0.0216,0.1651 -0.0958,0.31482 -0.20541,0.41433 -0.0769,0.0699 -0.11996,0.09 -0.27014,0.12652 -0.13113,0.0319 -0.20756,0.0397 -0.28742,0.0295 z"
       id="path5-5" /><path
       style="fill:none;stroke:#000000;stroke-width:0.374431;stroke-dasharray:none;stroke-opacity:1"
       d="m 125.90675,119.74129 c -0.18897,-0.0121 -0.40841,-0.0948 -0.58566,-0.22094 -0.22935,-0.16319 -0.33391,-0.28342 -0.45168,-0.51945 -0.11752,-0.23552 -0.14296,-0.37618 -0.10844,-0.59961 0.0874,-0.56576 0.7945,-0.73928 1.36335,-0.33456 0.22878,0.16278 0.33397,0.28355 0.45071,0.51752 0.11955,0.23958 0.14884,0.40523 0.10923,0.61775 -0.05,0.26816 -0.22236,0.44381 -0.50234,0.51185 -0.0869,0.0211 -0.19904,0.0323 -0.27517,0.0274 z"
       id="path3-2" /><path
       style="fill:none;stroke:#000000;stroke-width:0.480515;stroke-dasharray:none;stroke-opacity:1"
       d="m 129.40097,128.4891 c 1.88879,-0.47917 0.47437,-3.84152 1.06214,-5.14864 0.49524,-1.60913 1.92515,-2.45201 0.59033,-3.8674 -1.60836,-1.30848 -3.77777,0.002 -4.99197,1.16183 -1.57773,1.05876 -1.82447,3.00414 -0.84762,4.48686 0.71597,1.43545 1.78589,2.95923 3.45102,3.51854 0.25381,0.0207 0.51846,-0.0246 0.7361,-0.15119 z"
       id="path2"
       sodipodi:nodetypes="ccccccc" /><path
       style="fill:none;stroke-width:0.0891501"
       d="m 128.68694,128.64103 c -0.63654,-0.0172 -1.0055,-0.38402 -1.42937,-0.65965 -0.51295,-0.26208 -0.66456,-0.68262 -0.88712,-1.06399 -0.30998,-0.3217 -0.42574,-0.70783 -0.71085,-1.04169 -0.35174,-0.3003 -0.55936,-0.67511 -0.53111,-1.06652 0.003,-0.48662 -0.26775,-0.9469 -0.2607,-1.43394 -0.22908,-0.43752 0.15961,-0.86623 0.10878,-1.30906 -0.1278,-0.44264 0.35891,-0.74261 0.85419,-0.94507 0.4414,-0.22169 0.71847,-0.56854 1.14119,-0.79086 0.54261,-0.19649 1.141,-0.2828 1.69675,-0.45307 0.49655,-0.26606 0.98294,-0.59528 1.64336,-0.6338 0.56744,-0.036 1.14038,-0.0476 1.69272,-0.14335 0.6193,0.0733 1.38714,-0.0123 1.85395,0.3436 0.5719,0.40476 0.88732,0.93601 1.15625,1.4614 0.0963,0.57705 0.0618,1.16564 -0.16846,1.72476 -0.16712,0.39456 -0.44294,0.7677 -0.68168,1.14418 -0.28525,0.36474 -0.65287,0.69991 -0.84676,1.0999 -0.28897,0.36839 -0.53268,0.75157 -0.74931,1.14128 -0.26486,0.58185 -1.02265,1.025 -1.06011,1.66392 -0.21986,0.34502 -0.65028,0.78544 -1.20144,0.86895 -0.51786,-0.0607 -0.94722,0.10415 -1.43487,0.11139 l -0.0893,-0.008 z"
       id="path1" /></g></svg>
