<?xml version="1.0" encoding="UTF-8" standalone="no"?>
<!-- Created with Inkscape (http://www.inkscape.org/) -->

<svg
   width="40.710293mm"
   height="40mm"
   viewBox="0 0 40.710293 40"
   version="1.1"
   id="svg1"
   xml:space="preserve"
   inkscape:version="1.3 (0e150ed6c4, 2023-07-21)"
   sodipodi:docname="canvas.svg"
   inkscape:export-filename="visual.svg"
   inkscape:export-xdpi="96"
   inkscape:export-ydpi="96"
   xmlns:inkscape="http://www.inkscape.org/namespaces/inkscape"
   xmlns:sodipodi="http://sodipodi.sourceforge.net/DTD/sodipodi-0.dtd"
   xmlns="http://www.w3.org/2000/svg"
   xmlns:svg="http://www.w3.org/2000/svg"><sodipodi:namedview
     id="namedview1"
     pagecolor="#ffffff"
     bordercolor="#000000"
     borderopacity="0.25"
     inkscape:showpageshadow="2"
     inkscape:pageopacity="0.0"
     inkscape:pagecheckerboard="0"
     inkscape:deskcolor="#d1d1d1"
     inkscape:document-units="mm"
     inkscape:zoom="1.8262291"
     inkscape:cx="-127.5853"
     inkscape:cy="25.736092"
     inkscape:window-width="3840"
     inkscape:window-height="2054"
     inkscape:window-x="-11"
     inkscape:window-y="-11"
     inkscape:window-maximized="1"
     inkscape:current-layer="layer1"
     showguides="true"><sodipodi:guide
       position="19.848504,22.904207"
       orientation="0,-1"
       id="guide82"
       inkscape:locked="false" /><sodipodi:guide
       position="42.739479,18.3405"
       orientation="1,0"
       id="guide83"
       inkscape:locked="false" /></sodipodi:namedview><defs
     id="defs1"><inkscape:path-effect
       effect="spiro"
       id="path-effect72"
       is_visible="true"
       lpeversion="1" /></defs><g
     inkscape:label="Layer 1"
     inkscape:groupmode="layer"
     id="layer1"
     transform="translate(-98.500597,-113.80108)"><path
       style="fill:#000000;fill-opacity:1;stroke-width:0.193637"
       d="m 106.06573,150.12932 c -1.26715,-0.12318 -3.2405,-0.61176 -3.73361,-1.47625 1.8831,-0.61373 3.76933,-2.08549 3.61899,-4.04316 0.0502,-2.64051 1.82875,-5.693 5.02,-6.02271 1.36858,0.31695 1.64695,-0.10822 1.59443,-1.24495 0.61967,-1.95766 2.74554,-3.06208 4.13045,-4.55851 5.57406,-5.03508 11.23446,-10.02644 17.43368,-14.44465 1.49016,-1.71181 4.92242,-0.7993 4.58533,1.51024 -0.54723,1.75464 -2.11509,3.07436 -3.25938,4.53715 -5.20245,5.83218 -10.78477,11.39034 -16.58863,16.7428 -0.50185,1.06555 -2.94112,0.27769 -2.86607,1.17477 0.4657,2.72767 -2.02786,4.86035 -4.28265,6.29315 -1.64929,1.00313 -3.63587,1.67689 -5.65254,1.53212 z m 1.77467,-1.52733 c 2.38413,-0.56 4.47667,-2.00074 5.95988,-3.73725 1.27147,-1.55746 0.7193,-4.18943 -1.49676,-4.75741 -2.10632,-0.67038 -3.94509,1.15234 -4.44609,2.8301 -0.56703,1.58505 -0.19333,3.44727 -1.49182,4.79893 -1.90803,1.53858 0.34859,0.87452 1.47479,0.86563 z m 9.27394,-8.21047 c 1.21229,-0.60947 3.37121,-2.05074 1.26953,-3.00384 -1.07238,-0.9834 -2.33676,-2.95654 -3.44488,-0.90742 -1.88495,1.24982 -0.56909,4.38904 1.80567,4.0011 z m 3.60673,-3.06813 c 5.44283,-5.34711 10.94955,-10.67721 15.72912,-16.52403 1.34781,-0.7644 0.32942,-2.72964 -0.98252,-1.53937 -4.9804,3.45218 -9.49712,7.40825 -14.02005,11.32641 -1.24327,1.29969 -3.13017,2.39074 -3.98653,3.82677 0.99031,0.97212 2.10441,2.29268 3.25998,2.91022 z"
       id="path70" /><path
       style="fill:none;fill-opacity:1;stroke:#000000;stroke-width:2.6;stroke-linecap:round;stroke-miterlimit:13.7;stroke-dasharray:none;stroke-opacity:1"
       d="m 102.18863,125.91156 c 1.75013,0.56739 3.28272,1.7808 4.23643,3.35412 0.9537,1.57332 1.32052,3.49338 1.01398,5.30747 -0.22221,1.31502 -0.77773,2.54566 -1.23389,3.79888 -0.45617,1.25323 -0.82007,2.58799 -0.63582,3.90886 0.18643,1.33646 0.95733,2.58085 2.07093,3.34292 1.11361,0.76207 2.55271,1.03003 3.86597,0.71985"
       id="path71"
       inkscape:path-effect="#path-effect72"
       inkscape:original-d="m 102.18863,125.91156 c 1.75014,2.88719 3.50027,5.77439 5.25041,8.66159 1.75014,2.8872 -1.24648,5.13849 -1.86971,7.70774 -0.62324,2.56924 3.95793,2.70851 5.9369,4.06277"
       transform="matrix(1.1161316,0,0,0.30567289,10.949179,106.33546)" /><path
       style="fill:#000000;fill-opacity:1;stroke:none;stroke-width:0.96895;stroke-linecap:round;stroke-miterlimit:13.7;stroke-dasharray:none;stroke-opacity:1"
       d="m 105.72739,148.54793 c 0,-0.0808 0.17002,-0.30753 0.3778,-0.5039 0.88358,-0.835 1.1135,-1.34549 1.39992,-3.10816 0.35899,-2.20917 0.72529,-3.07139 1.67793,-3.94962 1.62124,-1.49457 3.99491,-1.1619 4.92025,0.68957 0.35432,0.70895 0.3754,1.66468 0.0537,2.43664 -0.58255,1.39809 -3.28535,3.46339 -5.45496,4.16832 -1.08085,0.35117 -2.97467,0.52126 -2.97467,0.26715 z"
       id="path73" /><path
       style="fill:#000000;fill-opacity:1;stroke:none;stroke-width:2.74061;stroke-linecap:round;stroke-miterlimit:13.7;stroke-dasharray:none;stroke-opacity:1"
       d="m 119.00194,135.7317 c -0.66811,-0.65084 -1.21474,-1.2864 -1.21474,-1.41237 0,-0.27289 7.52723,-6.9019 11.48067,-10.11068 4.90235,-3.97895 6.81971,-5.2898 7.25875,-4.96262 0.21514,0.16032 0.39115,0.40743 0.39115,0.54914 0,0.87394 -15.50682,17.11987 -16.341,17.11987 -0.19804,0 -0.90672,-0.5325 -1.57483,-1.18334 z"
       id="path74" /></g></svg>
