<?xml version="1.0" encoding="UTF-8" standalone="no"?>
<!-- Created with Inkscape (http://www.inkscape.org/) -->

<svg
   width="40mm"
   height="40mm"
   viewBox="0 0 40 40"
   version="1.1"
   id="svg1"
   xml:space="preserve"
   inkscape:version="1.3.1 (91b66b0783, 2023-11-16)"
   sodipodi:docname="canvas.svg"
   inkscape:export-filename="..\..\..\..\modules\DAVE_vessels\guis\icons\cargo_cylinder.svg"
   inkscape:export-xdpi="96"
   inkscape:export-ydpi="96"
   xmlns:inkscape="http://www.inkscape.org/namespaces/inkscape"
   xmlns:sodipodi="http://sodipodi.sourceforge.net/DTD/sodipodi-0.dtd"
   xmlns="http://www.w3.org/2000/svg"
   xmlns:svg="http://www.w3.org/2000/svg"><sodipodi:namedview
     id="namedview1"
     pagecolor="#ffffff"
     bordercolor="#000000"
     borderopacity="0.25"
     inkscape:showpageshadow="2"
     inkscape:pageopacity="0.0"
     inkscape:pagecheckerboard="0"
     inkscape:deskcolor="#d1d1d1"
     inkscape:document-units="mm"
     inkscape:zoom="10.330712"
     inkscape:cx="99.84791"
     inkscape:cy="91.184422"
     inkscape:window-width="3840"
     inkscape:window-height="2054"
     inkscape:window-x="-11"
     inkscape:window-y="-11"
     inkscape:window-maximized="1"
     inkscape:current-layer="layer1"
     showguides="true"
     showgrid="true"><inkscape:grid
       id="grid79"
       units="mm"
       originx="0"
       originy="0"
       spacingx="0.99999998"
       spacingy="0.99999997"
       empcolor="#0099e5"
       empopacity="0.30196078"
       color="#0099e5"
       opacity="0.14901961"
       empspacing="5"
       dotted="false"
       gridanglex="30"
       gridanglez="30"
       visible="true" /></sodipodi:namedview><defs
     id="defs1" /><g
     inkscape:label="Layer 1"
     inkscape:groupmode="layer"
     id="layer1"
     transform="translate(-98.500597,-113.80108)"><path
       style="fill:#ffc90e;fill-opacity:1;stroke:#000000;stroke-opacity:1"
       d="m 103.25892,148.74412 c -1.32765,-0.78444 -1.82908,-2.50138 -1.15425,-3.95227 0.16246,-0.34931 0.66258,-1.31062 1.11136,-2.13626 0.77374,-1.42348 5.97071,-11.09108 9.86985,-18.36029 0.98792,-1.8418 2.14468,-3.99827 2.57058,-4.79215 0.42589,-0.79388 0.8901,-1.60693 1.03156,-1.80677 0.66877,-0.94476 2.25216,-1.25762 3.36042,-0.66397 0.66796,0.3578 0.83897,0.58619 1.84998,2.47074 0.42589,0.79388 1.58256,2.95035 2.57037,4.79215 0.98781,1.8418 2.80212,5.2194 4.03181,7.50578 1.22969,2.28638 2.75082,5.11836 3.38029,6.29331 0.62947,1.17494 1.62351,3.01963 2.20897,4.09931 0.58547,1.07967 1.19751,2.24884 1.36011,2.59815 0.6752,1.45052 0.17379,3.16774 -1.15401,3.95227 l -0.53289,0.31486 H 118.77744 103.7918 Z m 16.40822,-2.60683 c 0.84361,-0.38 1.5784,-1.48945 1.5794,-2.3847 0.001,-1.01399 -0.55774,-1.96464 -1.44125,-2.45159 -1.54187,-0.84982 -3.4991,0.52232 -3.49695,2.45159 9.8e-4,0.88125 0.72604,1.99031 1.55599,2.38004 0.42251,0.19841 1.36728,0.20085 1.80281,0.005 z m 0.33306,-6.99849 c 0.57801,-0.23622 0.56949,-0.16871 0.94545,-7.48903 l 0.35167,-6.84744 -0.21256,-0.42165 c -0.37418,-0.74226 -0.76515,-0.89369 -2.30732,-0.89369 -1.54169,0 -1.93316,0.15148 -2.3068,0.89263 l -0.21203,0.42059 0.3515,6.84908 c 0.37249,7.25818 0.37143,7.24947 0.91136,7.48325 0.31989,0.13851 2.14387,0.14312 2.47873,0.006 z"
       id="path115" /></g></svg>
