####
#
# OBJ File Generated by Meshlab
#
####
# Object barge.obj
#
# Vertices: 76
# Faces: 44
#
####
mtllib ./barge.obj.mtl

vn 1.000000 2.000000 2.000000
v 100.000000 20.000000 10.000000
vn 2.529915 1.000000 -0.848051
v 100.000000 20.000000 2.516579
vn 2.000000 -1.000000 1.000000
v 100.000000 -20.000000 10.000000
vn 2.059830 -2.000000 -1.696101
v 100.000000 -20.000000 2.516579
vn -2.000000 1.000000 1.000000
v 0.000000 20.000000 10.000000
vn -1.000000 2.000000 -2.000000
v 0.000000 20.000000 0.000000
vn -1.000000 -2.000000 2.000000
v 0.000000 -20.000000 10.000000
vn -2.000000 -1.000000 -1.000000
v 0.000000 -20.000000 0.000000
vn 1.059830 3.000000 -2.696101
v 95.972588 20.000000 0.000000
vn 0.000000 -3.000000 3.000000
v 95.972588 -20.000000 10.000000
vn 0.529915 -3.000000 -2.848051
v 95.972588 -20.000000 0.000000
vn 0.000000 3.000000 3.000000
v 95.972588 20.000000 10.000000
vn 0.098022 2.985553 -30.000000
v 98.318413 0.603137 9.769489
vn -0.098020 2.985553 1.000000
v 98.318413 0.603137 12.541985
vn 0.678522 2.909086 -1.000000
v 98.436073 0.591548 9.769489
vn 0.486293 2.947319 30.000000
v 98.436073 0.591548 12.541985
vn 1.233119 2.720753 -2.000000
v 98.549232 0.557226 9.769489
vn 1.051936 2.795803 1.000000
v 98.549232 0.557226 12.541985
vn 1.740200 2.427939 -2.000000
v 98.653496 0.501490 9.769489
vn 1.577252 2.536821 2.000000
v 98.653496 0.501490 12.541985
vn 2.180367 2.041850 -2.000000
v 98.744896 0.426482 9.769489
vn 2.041758 2.180454 2.000000
v 98.744896 0.426482 12.541985
vn 2.536909 1.577069 -2.000000
v 98.819908 0.335085 9.769489
vn 2.427943 1.740158 2.000000
v 98.819908 0.335085 12.541985
vn 2.795788 1.052064 -2.000000
v 98.875633 0.230811 9.769489
vn 2.720832 1.233022 2.000000
v 98.875633 0.230811 12.541985
vn 2.947298 0.486267 -2.000000
v 98.909966 0.117666 9.769489
vn 2.909021 0.678687 2.000000
v 98.909966 0.117666 12.541985
vn 2.985574 -0.097949 -2.000000
v 98.921547 0.000000 9.769489
vn 2.985574 0.097949 2.000000
v 98.921547 0.000000 12.541985
vn 2.909020 -0.678691 -2.000000
v 98.909966 -0.117666 9.769489
vn 2.947297 -0.486270 2.000000
v 98.909966 -0.117666 12.541985
vn 2.720835 -1.233018 -2.000000
v 98.875633 -0.230810 9.769489
vn 2.795789 -1.052065 2.000000
v 98.875633 -0.230810 12.541985
vn 2.427945 -1.740155 -2.000000
v 98.819908 -0.335085 9.769489
vn 2.536913 -1.577062 2.000000
v 98.819908 -0.335085 12.541985
vn 2.041758 -2.180454 -2.000000
v 98.744896 -0.426482 9.769489
vn 2.180367 -2.041850 2.000000
v 98.744896 -0.426482 12.541985
vn 1.577252 -2.536821 -2.000000
v 98.653496 -0.501490 9.769489
vn 1.740200 -2.427939 2.000000
v 98.653496 -0.501490 12.541985
vn 1.051920 -2.795807 -2.000000
v 98.549232 -0.557226 9.769489
vn 1.233112 -2.720755 2.000000
v 98.549232 -0.557226 12.541985
vn 0.486302 -2.947320 -2.000000
v 98.436073 -0.591547 9.769489
vn 0.678515 -2.909090 2.000000
v 98.436073 -0.591547 12.541985
vn -0.098028 -2.985551 -2.000000
v 98.318413 -0.603137 9.769489
vn 0.098031 -2.985551 2.000000
v 98.318413 -0.603137 12.541985
vn -0.678600 -2.909064 -2.000000
v 98.200752 -0.591547 9.769489
vn -0.486344 -2.947307 2.000000
v 98.200752 -0.591547 12.541985
vn -1.233043 -2.720802 -2.000000
v 98.087608 -0.557225 9.769489
vn -1.051950 -2.795811 2.000000
v 98.087608 -0.557225 12.541985
vn -1.740145 -2.427969 -2.000000
v 97.983330 -0.501490 9.769489
vn -1.577140 -2.536881 2.000000
v 97.983330 -0.501490 12.541985
vn -2.180498 -2.041690 -2.000000
v 97.891930 -0.426482 9.769489
vn -2.041824 -2.180373 2.000000
v 97.891930 -0.426482 12.541985
vn -2.536862 -1.577200 -2.000000
v 97.816933 -0.335084 9.769489
vn -2.428018 -1.740103 2.000000
v 97.816933 -0.335084 12.541985
vn -2.795737 -1.052154 -2.000000
v 97.761192 -0.230810 9.769489
vn -2.720722 -1.233225 2.000000
v 97.761192 -0.230810 12.541985
vn -2.947300 -0.486260 -2.000000
v 97.726860 -0.117665 9.769489
vn -2.909026 -0.678671 2.000000
v 97.726860 -0.117665 12.541985
vn -2.985574 0.097949 -2.000000
v 97.715279 0.000001 9.769489
vn -2.985574 -0.097949 2.000000
v 97.715279 0.000001 12.541985
vn -2.909024 0.678676 -2.000000
v 97.726860 0.117667 9.769489
vn -2.947299 0.486262 2.000000
v 97.726860 0.117667 12.541985
vn -2.720725 1.233221 -2.000000
v 97.761192 0.230811 9.769489
vn -2.795737 1.052155 2.000000
v 97.761192 0.230811 12.541985
vn -2.428013 1.740108 -2.000000
v 97.816933 0.335086 9.769489
vn -2.536863 1.577197 2.000000
v 97.816933 0.335086 12.541985
vn -2.041810 2.180386 -2.000000
v 97.891930 0.426483 9.769489
vn -2.180487 2.041703 2.000000
v 97.891930 0.426483 12.541985
vn -1.577148 2.536878 -2.000000
v 97.983330 0.501490 9.769489
vn -1.740141 2.427974 2.000000
v 97.983330 0.501490 12.541985
vn -1.051957 2.795807 -2.000000
v 98.087608 0.557226 9.769489
vn -1.233056 2.720795 2.000000
v 98.087608 0.557226 12.541985
vn -0.486327 2.947309 -1.000000
v 98.200752 0.591548 9.769489
vn -0.678592 2.909064 2.000000
v 98.200752 0.591548 12.541985
# 76 vertices, 0 vertices normals


usemtl material_0
vt 0.000000 0.000000
vt 0.000000 0.000000
f 5/1/5 7/1/7 10/1/10 12/2/12
f 10/1/10 7/1/7 8/1/8 11/2/11
f 7/1/7 5/1/5 6/1/6 8/2/8
f 2/1/2 4/1/4 11/1/11 9/2/9
f 1/1/1 3/1/3 4/1/4 2/2/2
f 12/1/12 1/1/1 2/1/2 9/2/9
f 5/1/5 12/1/12 9/1/9 6/2/6
f 9/1/9 11/1/11 8/1/8 6/2/6
f 3/1/3 10/1/10 11/1/11 4/2/4
f 12/1/12 10/1/10 3/1/3 1/2/1
f 14/1/14 16/1/16 15/1/15 13/2/13
f 16/1/16 18/1/18 17/1/17 15/2/15
f 18/1/18 20/1/20 19/1/19 17/2/17
f 20/1/20 22/1/22 21/1/21 19/2/19
f 22/1/22 24/1/24 23/1/23 21/2/21
f 24/1/24 26/1/26 25/1/25 23/2/23
f 26/1/26 28/1/28 27/1/27 25/2/25
f 28/1/28 30/1/30 29/1/29 27/2/27
f 30/1/30 32/1/32 31/1/31 29/2/29
f 32/1/32 34/1/34 33/1/33 31/2/31
f 34/1/34 36/1/36 35/1/35 33/2/33
f 36/1/36 38/1/38 37/1/37 35/2/35
f 38/1/38 40/1/40 39/1/39 37/2/37
f 40/1/40 42/1/42 41/1/41 39/2/39
f 42/1/42 44/1/44 43/1/43 41/2/41
f 44/1/44 46/1/46 45/1/45 43/2/43
f 46/1/46 48/1/48 47/1/47 45/2/45
f 48/1/48 50/1/50 49/1/49 47/2/47
f 50/1/50 52/1/52 51/1/51 49/2/49
f 52/1/52 54/1/54 53/1/53 51/2/51
f 54/1/54 56/1/56 55/1/55 53/2/53
f 56/1/56 58/1/58 57/1/57 55/2/55
f 58/1/58 60/1/60 59/1/59 57/2/57
f 60/1/60 62/1/62 61/1/61 59/2/59
f 62/1/62 64/1/64 63/1/63 61/2/61
f 64/1/64 66/1/66 65/1/65 63/2/63
f 66/1/66 68/1/68 67/1/67 65/2/65
f 68/1/68 70/1/70 69/1/69 67/2/67
f 70/1/70 72/1/72 71/1/71 69/2/69
vt 0.000000 0.000000
f 72/1/72 74/1/74 73/1/73 71/3/71
vt 0.000000 0.000000
vt 0.000000 0.000000
vt 0.000000 0.000000
vt 0.000000 0.000000
vt 0.000000 0.000000
vt 0.000000 0.000000
vt 0.000000 0.000000
vt 0.000000 0.000000
vt 0.000000 0.000000
vt 0.000000 0.000000
f 14/1/14 76/1/76 74/1/74 72/2/72 70/4/70 68/1/68 66/1/66 64/1/64 62/1/62 60/1/60 58/1/58 56/5/56 54/6/54 52/1/52 50/1/50 48/1/48 46/1/46 44/1/44 42/6/42 40/11/40 38/1/38 36/1/36 34/1/34 32/1/32 30/1/30 28/7/28 26/8/26 24/9/24 22/10/22 20/11/20 18/12/18 16/13/16
f 74/1/74 76/1/76 75/1/75 73/2/73
f 76/1/76 14/1/14 13/1/13 75/3/75
vt 0.000000 0.000000
vt 0.000000 0.000000
vt 0.000000 0.000000
vt 0.000000 0.000000
vt 0.000000 0.000000
vt 0.000000 0.000000
vt 0.000000 0.000000
vt 0.000000 0.000000
vt 0.000000 0.000000
vt 0.000000 0.000000
vt 0.000000 0.000000
vt 0.000000 0.000000
f 15/1/15 17/1/17 19/1/19 21/7/21 23/8/23 25/9/25 27/10/27 29/11/29 31/12/31 33/13/33 35/14/35 37/15/37 39/16/39 41/9/41 43/10/43 45/17/45 47/18/47 49/19/49 51/14/51 53/15/53 55/20/55 57/21/57 59/8/59 61/22/61 63/12/63 65/19/65 67/23/67 69/24/69 71/20/71 73/9/73 75/16/75 13/25/13
# 44 faces, 25 coords texture

# End of File
