####
#
# OBJ File Generated by Meshlab
#
####
# Object cone chopped.obj
#
# Vertices: 64
# Faces: 34
#
####
vn 0.087756 2.672930 -28.663536
v 0.000000 1.000000 0.000000
vn -0.087749 2.672930 2.336465
v 0.000000 0.500000 1.000000
vn 0.607526 2.604452 0.336464
v 0.195090 0.980785 0.000000
vn 0.435393 2.638691 31.336464
v 0.097545 0.490393 1.000000
vn 1.103959 2.435884 -0.663535
v 0.382683 0.923880 0.000000
vn 0.941809 2.503048 2.336465
v 0.191342 0.461940 1.000000
vn 1.557964 2.173708 -0.663535
v 0.555570 0.831470 0.000000
vn 1.412036 2.271213 3.336465
v 0.277785 0.415735 1.000000
vn 1.952098 1.827996 -0.663535
v 0.707107 0.707107 0.000000
vn 1.827995 1.952099 3.336465
v 0.353553 0.353554 1.000000
vn 2.271213 1.412037 -0.663535
v 0.831470 0.555570 0.000000
vn 2.173707 1.557964 3.336465
v 0.415735 0.277785 1.000000
vn 2.503048 0.941809 -0.663535
v 0.923880 0.382683 0.000000
vn 2.435884 1.103959 3.336465
v 0.461940 0.191342 1.000000
vn 2.638691 0.435393 -0.663536
v 0.980785 0.195090 0.000000
vn 2.604452 0.607526 3.336464
v 0.490393 0.097545 1.000000
vn 2.672930 -0.087753 -0.663536
v 1.000000 0.000000 0.000000
vn 2.672930 0.087753 3.336464
v 0.500000 0.000000 1.000000
vn 2.604452 -0.607528 -0.663535
v 0.980785 -0.195090 0.000000
vn 2.638691 -0.435394 3.336464
v 0.490393 -0.097545 1.000000
vn 2.435884 -1.103957 -0.663535
v 0.923880 -0.382683 0.000000
vn 2.503048 -0.941809 3.336465
v 0.461940 -0.191341 1.000000
vn 2.173705 -1.557966 -0.663534
v 0.831470 -0.555570 0.000000
vn 2.271213 -1.412035 3.336466
v 0.415735 -0.277785 1.000000
vn 1.827997 -1.952097 -0.663534
v 0.707107 -0.707107 0.000000
vn 1.952097 -1.827997 3.336466
v 0.353553 -0.353553 1.000000
vn 1.412038 -2.271212 -0.663535
v 0.555570 -0.831470 0.000000
vn 1.557967 -2.173704 3.336466
v 0.277785 -0.415735 1.000000
vn 0.941809 -2.503048 -0.663535
v 0.382683 -0.923880 0.000000
vn 1.103959 -2.435884 3.336465
v 0.191342 -0.461940 1.000000
vn 0.435393 -2.638691 -0.663536
v 0.195090 -0.980785 0.000000
vn 0.607526 -2.604452 3.336464
v 0.097545 -0.490393 1.000000
vn -0.087759 -2.672930 -0.663535
v -0.000000 -1.000000 0.000000
vn 0.087751 -2.672930 3.336465
v -0.000000 -0.500000 1.000000
vn -0.607529 -2.604451 -0.663535
v -0.195091 -0.980785 0.000000
vn -0.435399 -2.638690 3.336465
v -0.097545 -0.490392 1.000000
vn -1.103963 -2.435881 -0.663535
v -0.382684 -0.923879 0.000000
vn -0.941811 -2.503047 3.336465
v -0.191342 -0.461940 1.000000
vn -1.557966 -2.173707 -0.663535
v -0.555571 -0.831469 0.000000
vn -1.412041 -2.271211 3.336465
v -0.277785 -0.415734 1.000000
vn -1.952096 -1.827998 -0.663535
v -0.707107 -0.707106 0.000000
vn -1.827994 -1.952100 3.336465
v -0.353554 -0.353553 1.000000
vn -2.271214 -1.412035 -0.663535
v -0.831470 -0.555570 0.000000
vn -2.173706 -1.557966 3.336465
v -0.415735 -0.277785 1.000000
vn -2.503049 -0.941808 -0.663535
v -0.923880 -0.382683 0.000000
vn -2.435885 -1.103956 3.336465
v -0.461940 -0.191341 1.000000
vn -2.638691 -0.435393 -0.663536
v -0.980785 -0.195089 0.000000
vn -2.604452 -0.607526 3.336464
v -0.490393 -0.097545 1.000000
vn -2.672930 0.087760 -0.663535
v -1.000000 0.000001 0.000000
vn -2.672930 -0.087750 3.336465
v -0.500000 0.000001 1.000000
vn -2.604449 0.607536 -0.663534
v -0.980785 0.195091 0.000000
vn -2.638689 0.435403 3.336466
v -0.490392 0.097546 1.000000
vn -2.435884 1.103960 -0.663534
v -0.923879 0.382684 0.000000
vn -2.503046 0.941815 3.336466
v -0.461939 0.191342 1.000000
vn -2.173708 1.557963 -0.663535
v -0.831469 0.555571 0.000000
vn -2.271214 1.412034 3.336465
v -0.415734 0.277786 1.000000
vn -1.827988 1.952104 -0.663535
v -0.707106 0.707108 0.000000
vn -1.952095 1.827998 3.336465
v -0.353553 0.353554 1.000000
vn -1.412033 2.271216 -0.663535
v -0.555569 0.831470 0.000000
vn -1.557957 2.173713 3.336465
v -0.277784 0.415735 1.000000
vn -0.941814 2.503046 -0.663535
v -0.382682 0.923880 0.000000
vn -1.103962 2.435883 3.336465
v -0.191341 0.461940 1.000000
vn -0.435391 2.638690 0.336465
v -0.195089 0.980786 0.000000
vn -0.607529 2.604450 3.336465
v -0.097544 0.490393 1.000000
# 64 vertices, 0 vertices normals

f 2//2 4//4 3//3 1//1
f 4//4 6//6 5//5 3//3
f 6//6 8//8 7//7 5//5
f 8//8 10//10 9//9 7//7
f 10//10 12//12 11//11 9//9
f 12//12 14//14 13//13 11//11
f 14//14 16//16 15//15 13//13
f 16//16 18//18 17//17 15//15
f 18//18 20//20 19//19 17//17
f 20//20 22//22 21//21 19//19
f 22//22 24//24 23//23 21//21
f 24//24 26//26 25//25 23//23
f 26//26 28//28 27//27 25//25
f 28//28 30//30 29//29 27//27
f 30//30 32//32 31//31 29//29
f 32//32 34//34 33//33 31//31
f 34//34 36//36 35//35 33//33
f 36//36 38//38 37//37 35//35
f 38//38 40//40 39//39 37//37
f 40//40 42//42 41//41 39//39
f 42//42 44//44 43//43 41//41
f 44//44 46//46 45//45 43//43
f 46//46 48//48 47//47 45//45
f 48//48 50//50 49//49 47//47
f 50//50 52//52 51//51 49//49
f 52//52 54//54 53//53 51//51
f 54//54 56//56 55//55 53//53
f 56//56 58//58 57//57 55//55
f 58//58 60//60 59//59 57//57
f 60//60 62//62 61//61 59//59
f 2//2 64//64 62//62 60//60 58//58 56//56 54//54 52//52 50//50 48//48 46//46 44//44 42//42 40//40 38//38 36//36 34//34 32//32 30//30 28//28 26//26 24//24 22//22 20//20 18//18 16//16 14//14 12//12 10//10 8//8 6//6 4//4
f 62//62 64//64 63//63 61//61
f 64//64 2//2 1//1 63//63
f 3//3 5//5 7//7 9//9 11//11 13//13 15//15 17//17 19//19 21//21 23//23 25//25 27//27 29//29 31//31 33//33 35//35 37//37 39//39 41//41 43//43 45//45 47//47 49//49 51//51 53//53 55//55 57//57 59//59 61//61 63//63 1//1
# 34 faces, 0 coords texture

# End of File
