####
#
# OBJ File Generated by Meshlab
#
####
# Object cube_with_bevel.obj
#
# Vertices: 152
# Faces: 150
#
####
mtllib ./cube_with_bevel.obj.mtl

vn 0.525867 0.693541 -6.892313
v 0.821727 0.821727 -1.000000
vn 0.693541 6.892313 -0.525867
v 0.821727 1.000000 -0.821727
vn 5.892313 0.525867 -0.693541
v 1.000000 0.821727 -0.821727
vn 0.495666 2.498710 -5.295089
v 0.821728 0.891058 -0.988208
vn 0.316570 3.589022 -3.286179
v 0.821728 0.950282 -0.950282
vn 2.127103 0.495666 -5.438807
v 0.891058 0.821728 -0.988208
vn 2.017520 2.017520 -5.055275
v 0.893327 0.893327 -0.973489
vn 1.597495 3.944600 -3.944600
v 0.889668 0.942149 -0.942149
vn 3.391598 3.391598 -3.391598
v 0.927903 0.927903 -0.927903
vn 2.498710 5.295089 -0.495666
v 0.891058 0.988208 -0.821728
vn 3.589022 3.286179 -0.316570
v 0.950282 0.950282 -0.821728
vn 0.495666 5.438807 -2.127103
v 0.821728 0.988208 -0.891058
vn 2.017520 5.055275 -2.017520
v 0.893327 0.973489 -0.893327
vn 3.944600 3.944600 -1.597495
v 0.942149 0.942149 -0.889668
vn 5.295089 0.495666 -2.498710
v 0.988208 0.821728 -0.891058
vn 3.286179 0.316570 -3.589022
v 0.950282 0.821728 -0.950282
vn 5.438807 2.127103 -0.495666
v 0.988208 0.891058 -0.821728
vn 5.055275 2.017520 -2.017520
v 0.973489 0.893327 -0.893327
vn 3.944600 1.597495 -3.944600
v 0.942149 0.889668 -0.942149
vn 0.525867 -5.892313 -0.693541
v 0.821727 -1.000000 -0.821727
vn 0.693541 -0.525867 -5.892313
v 0.821727 -0.821727 -1.000000
vn 6.892313 -0.693541 -0.525867
v 1.000000 -0.821727 -0.821727
vn 0.495666 -5.295089 -2.498710
v 0.821728 -0.988208 -0.891058
vn 0.316570 -3.286179 -3.589022
v 0.821728 -0.950282 -0.950282
vn 2.127103 -5.438807 -0.495666
v 0.891058 -0.988208 -0.821728
vn 2.017520 -5.055275 -2.017520
v 0.893327 -0.973489 -0.893327
vn 1.597495 -3.944600 -3.944600
v 0.889668 -0.942149 -0.942149
vn 3.391598 -3.391598 -3.391598
v 0.927903 -0.927903 -0.927903
vn 2.498710 -0.495666 -5.295089
v 0.891058 -0.821728 -0.988208
vn 3.589022 -0.316570 -3.286179
v 0.950282 -0.821728 -0.950282
vn 0.495666 -2.127103 -5.438807
v 0.821728 -0.891058 -0.988208
vn 2.017520 -2.017520 -5.055275
v 0.893327 -0.893327 -0.973489
vn 3.944600 -1.597495 -3.944600
v 0.942149 -0.889668 -0.942149
vn 5.295089 -2.498710 -0.495666
v 0.988208 -0.891058 -0.821728
vn 3.286179 -3.589022 -0.316570
v 0.950282 -0.950282 -0.821728
vn 5.438807 -0.495666 -2.127103
v 0.988208 -0.821728 -0.891058
vn 5.055275 -2.017520 -2.017520
v 0.973489 -0.893327 -0.893327
vn 3.944600 -3.944600 -1.597495
v 0.942149 -0.942149 -0.889668
vn 6.892313 0.693541 0.525867
v 1.000000 0.821727 0.821727
vn 0.525867 5.892313 0.693541
v 0.821727 1.000000 0.821727
vn 0.693541 0.525867 5.892313
v 0.821727 0.821727 1.000000
vn 5.295089 2.498710 0.495666
v 0.988208 0.891058 0.821728
vn 3.286179 3.589022 0.316570
v 0.950282 0.950282 0.821728
vn 5.438807 0.495666 2.127103
v 0.988208 0.821728 0.891058
vn 5.055275 2.017520 2.017520
v 0.973489 0.893327 0.893327
vn 3.944600 3.944600 1.597495
v 0.942149 0.942149 0.889668
vn 3.391598 3.391598 3.391598
v 0.927903 0.927903 0.927903
vn 0.495666 5.295089 2.498710
v 0.821728 0.988208 0.891058
vn 0.316570 3.286179 3.589022
v 0.821728 0.950282 0.950282
vn 2.127103 5.438807 0.495666
v 0.891058 0.988208 0.821728
vn 2.017520 5.055275 2.017520
v 0.893327 0.973489 0.893327
vn 1.597495 3.944600 3.944600
v 0.889668 0.942149 0.942149
vn 2.498710 0.495666 5.295089
v 0.891058 0.821728 0.988208
vn 3.589022 0.316570 3.286179
v 0.950282 0.821728 0.950282
vn 0.495666 2.127103 5.438807
v 0.821728 0.891058 0.988208
vn 2.017520 2.017520 5.055275
v 0.893327 0.893327 0.973489
vn 3.944600 1.597495 3.944600
v 0.942149 0.889668 0.942149
vn 5.892313 -0.525867 0.693541
v 1.000000 -0.821727 0.821727
vn 0.525867 -0.693541 6.892313
v 0.821727 -0.821727 1.000000
vn 0.693541 -6.892313 0.525867
v 0.821727 -1.000000 0.821727
vn 5.295089 -0.495666 2.498710
v 0.988208 -0.821728 0.891058
vn 3.286179 -0.316570 3.589022
v 0.950282 -0.821728 0.950282
vn 5.438807 -2.127103 0.495666
v 0.988208 -0.891058 0.821728
vn 5.055275 -2.017520 2.017520
v 0.973489 -0.893327 0.893327
vn 3.944600 -1.597495 3.944600
v 0.942149 -0.889668 0.942149
vn 3.391598 -3.391598 3.391598
v 0.927903 -0.927903 0.927903
vn 0.495666 -2.498710 5.295089
v 0.821728 -0.891058 0.988208
vn 0.316570 -3.589022 3.286179
v 0.821728 -0.950282 0.950282
vn 2.127103 -0.495666 5.438807
v 0.891058 -0.821728 0.988208
vn 2.017520 -2.017520 5.055275
v 0.893327 -0.893327 0.973489
vn 1.597495 -3.944600 3.944600
v 0.889668 -0.942149 0.942149
vn 2.498710 -5.295089 0.495666
v 0.891058 -0.988208 0.821728
vn 3.589022 -3.286179 0.316570
v 0.950282 -0.950282 0.821728
vn 0.495666 -5.438807 2.127103
v 0.821728 -0.988208 0.891058
vn 2.017520 -5.055275 2.017520
v 0.893327 -0.973489 0.893327
vn 3.944600 -3.944600 1.597495
v 0.942149 -0.942149 0.889668
vn -0.693541 0.525867 -5.892313
v -0.821727 0.821727 -1.000000
vn -6.892313 0.693541 -0.525867
v -1.000000 0.821727 -0.821727
vn -0.525867 5.892313 -0.693541
v -0.821727 1.000000 -0.821727
vn -2.498710 0.495666 -5.295089
v -0.891058 0.821728 -0.988208
vn -3.589022 0.316570 -3.286179
v -0.950282 0.821728 -0.950282
vn -0.495666 2.127103 -5.438807
v -0.821728 0.891058 -0.988208
vn -2.017520 2.017520 -5.055275
v -0.893327 0.893327 -0.973489
vn -3.944600 1.597495 -3.944600
v -0.942149 0.889668 -0.942149
vn -3.391598 3.391598 -3.391598
v -0.927903 0.927903 -0.927903
vn -5.295089 2.498710 -0.495666
v -0.988208 0.891058 -0.821728
vn -3.286179 3.589022 -0.316570
v -0.950282 0.950282 -0.821728
vn -5.438807 0.495666 -2.127103
v -0.988208 0.821728 -0.891058
vn -5.055275 2.017520 -2.017520
v -0.973489 0.893327 -0.893327
vn -3.944600 3.944600 -1.597495
v -0.942149 0.942149 -0.889668
vn -0.495666 5.295089 -2.498710
v -0.821728 0.988208 -0.891058
vn -0.316570 3.286179 -3.589022
v -0.821728 0.950282 -0.950282
vn -2.127103 5.438807 -0.495666
v -0.891058 0.988208 -0.821728
vn -2.017520 5.055275 -2.017520
v -0.893327 0.973489 -0.893327
vn -1.597495 3.944600 -3.944600
v -0.889668 0.942149 -0.942149
vn -5.892313 -0.525867 -0.693541
v -1.000000 -0.821727 -0.821727
vn -0.525867 -0.693541 -6.892313
v -0.821727 -0.821727 -1.000000
vn -0.693541 -6.892313 -0.525867
v -0.821727 -1.000000 -0.821727
vn -5.295089 -0.495666 -2.498710
v -0.988208 -0.821728 -0.891058
vn -3.286179 -0.316570 -3.589022
v -0.950282 -0.821728 -0.950282
vn -5.438807 -2.127103 -0.495666
v -0.988208 -0.891058 -0.821728
vn -5.055275 -2.017520 -2.017520
v -0.973489 -0.893327 -0.893327
vn -3.944600 -1.597495 -3.944600
v -0.942149 -0.889668 -0.942149
vn -3.391598 -3.391598 -3.391598
v -0.927903 -0.927903 -0.927903
vn -0.495666 -2.498710 -5.295089
v -0.821728 -0.891058 -0.988208
vn -0.316570 -3.589022 -3.286179
v -0.821728 -0.950282 -0.950282
vn -2.127103 -0.495666 -5.438807
v -0.891058 -0.821728 -0.988208
vn -2.017520 -2.017520 -5.055275
v -0.893327 -0.893327 -0.973489
vn -1.597495 -3.944600 -3.944600
v -0.889668 -0.942149 -0.942149
vn -2.498710 -5.295089 -0.495666
v -0.891058 -0.988208 -0.821728
vn -3.589022 -3.286179 -0.316570
v -0.950282 -0.950282 -0.821728
vn -0.495666 -5.438807 -2.127103
v -0.821728 -0.988208 -0.891058
vn -2.017520 -5.055275 -2.017520
v -0.893327 -0.973489 -0.893327
vn -3.944600 -3.944600 -1.597495
v -0.942149 -0.942149 -0.889668
vn -5.892313 0.525867 0.693541
v -1.000000 0.821727 0.821727
vn -0.525867 0.693541 6.892313
v -0.821727 0.821727 1.000000
vn -0.693541 6.892313 0.525867
v -0.821727 1.000000 0.821727
vn -5.295089 0.495666 2.498710
v -0.988208 0.821728 0.891058
vn -3.286179 0.316570 3.589022
v -0.950282 0.821728 0.950282
vn -5.438807 2.127103 0.495666
v -0.988208 0.891058 0.821728
vn -5.055275 2.017520 2.017520
v -0.973489 0.893327 0.893327
vn -3.944600 1.597495 3.944600
v -0.942149 0.889668 0.942149
vn -3.391598 3.391598 3.391598
v -0.927903 0.927903 0.927903
vn -0.495666 2.498710 5.295089
v -0.821728 0.891058 0.988208
vn -0.316570 3.589022 3.286179
v -0.821728 0.950282 0.950282
vn -2.127103 0.495666 5.438807
v -0.891058 0.821728 0.988208
vn -2.017520 2.017520 5.055275
v -0.893327 0.893327 0.973489
vn -1.597495 3.944600 3.944600
v -0.889668 0.942149 0.942149
vn -2.498710 5.295089 0.495666
v -0.891058 0.988208 0.821728
vn -3.589022 3.286179 0.316570
v -0.950282 0.950282 0.821728
vn -0.495666 5.438807 2.127103
v -0.821728 0.988208 0.891058
vn -2.017520 5.055275 2.017520
v -0.893327 0.973489 0.893327
vn -3.944600 3.944600 1.597495
v -0.942149 0.942149 0.889668
vn -0.525867 -5.892313 0.693541
v -0.821727 -1.000000 0.821727
vn -0.693541 -0.525867 5.892313
v -0.821727 -0.821727 1.000000
vn -6.892313 -0.693541 0.525867
v -1.000000 -0.821727 0.821727
vn -0.495666 -5.295089 2.498710
v -0.821728 -0.988208 0.891058
vn -0.316570 -3.286179 3.589022
v -0.821728 -0.950282 0.950282
vn -2.127103 -5.438807 0.495666
v -0.891058 -0.988208 0.821728
vn -2.017520 -5.055275 2.017520
v -0.893327 -0.973489 0.893327
vn -1.597495 -3.944600 3.944600
v -0.889668 -0.942149 0.942149
vn -3.391598 -3.391598 3.391598
v -0.927903 -0.927903 0.927903
vn -2.498710 -0.495666 5.295089
v -0.891058 -0.821728 0.988208
vn -3.589022 -0.316570 3.286179
v -0.950282 -0.821728 0.950282
vn -0.495666 -2.127103 5.438807
v -0.821728 -0.891058 0.988208
vn -2.017520 -2.017520 5.055275
v -0.893327 -0.893327 0.973489
vn -3.944600 -1.597495 3.944600
v -0.942149 -0.889668 0.942149
vn -5.295089 -2.498710 0.495666
v -0.988208 -0.891058 0.821728
vn -3.286179 -3.589022 0.316570
v -0.950282 -0.950282 0.821728
vn -5.438807 -0.495666 2.127103
v -0.988208 -0.821728 0.891058
vn -5.055275 -2.017520 2.017520
v -0.973489 -0.893327 0.893327
vn -3.944600 -3.944600 1.597495
v -0.942149 -0.942149 0.889668
# 152 vertices, 0 vertices normals


usemtl material_0
vt 0.000000 0.000000
vt 0.000000 0.000000
f 20/1/20 60/1/60 134/1/134 98/2/98
f 115/1/115 78/1/78 96/1/96 136/2/136
f 41/1/41 116/1/116 135/1/135 59/2/59
f 79/1/79 117/1/117 40/1/40 2/2/2
f 3/1/3 39/1/39 58/1/58 22/2/22
f 4/1/4 7/1/7 6/1/6 1/2/1
f 5/1/5 8/1/8 7/1/7 4/2/4
f 7/1/7 19/1/19 16/1/16 6/2/6
f 8/1/8 9/1/9 19/1/19 7/2/7
f 10/1/10 13/1/13 12/1/12 2/2/2
f 11/1/11 14/1/14 13/1/13 10/2/10
f 13/1/13 8/1/8 5/1/5 12/2/12
f 14/1/14 9/1/9 8/1/8 13/2/13
f 15/1/15 18/1/18 17/1/17 3/2/3
f 16/1/16 19/1/19 18/1/18 15/2/15
f 18/1/18 14/1/14 11/1/11 17/2/17
f 19/1/19 9/1/9 14/1/14 18/2/18
f 23/1/23 26/1/26 25/1/25 20/2/20
f 24/1/24 27/1/27 26/1/26 23/2/23
f 26/1/26 38/1/38 35/1/35 25/2/25
f 27/1/27 28/1/28 38/1/38 26/2/26
f 29/1/29 32/1/32 31/1/31 21/2/21
f 30/1/30 33/1/33 32/1/32 29/2/29
f 32/1/32 27/1/27 24/1/24 31/2/31
f 33/1/33 28/1/28 27/1/27 32/2/32
f 34/1/34 37/1/37 36/1/36 22/2/22
f 35/1/35 38/1/38 37/1/37 34/2/34
f 37/1/37 33/1/33 30/1/30 36/2/36
f 38/1/38 28/1/28 33/1/33 37/2/37
f 42/1/42 45/1/45 44/1/44 39/2/39
f 43/1/43 46/1/46 45/1/45 42/2/42
f 45/1/45 57/1/57 54/1/54 44/2/44
f 46/1/46 47/1/47 57/1/57 45/2/45
f 48/1/48 51/1/51 50/1/50 40/2/40
f 49/1/49 52/1/52 51/1/51 48/2/48
f 51/1/51 46/1/46 43/1/43 50/2/50
f 52/1/52 47/1/47 46/1/46 51/2/51
f 53/1/53 56/1/56 55/1/55 41/2/41
f 54/1/54 57/1/57 56/1/56 53/2/53
f 56/1/56 52/1/52 49/1/49 55/2/55
f 57/1/57 47/1/47 52/1/52 56/2/56
f 61/1/61 64/1/64 63/1/63 58/2/58
f 62/1/62 65/1/65 64/1/64 61/2/61
f 64/1/64 76/1/76 73/1/73 63/2/63
f 65/1/65 66/1/66 76/1/76 64/2/64
f 67/1/67 70/1/70 69/1/69 59/2/59
f 68/1/68 71/1/71 70/1/70 67/2/67
f 70/1/70 65/1/65 62/1/62 69/2/69
f 71/1/71 66/1/66 65/1/65 70/2/70
f 72/1/72 75/1/75 74/1/74 60/2/60
f 73/1/73 76/1/76 75/1/75 72/2/72
f 75/1/75 71/1/71 68/1/68 74/2/74
f 76/1/76 66/1/66 71/1/71 75/2/75
f 80/1/80 83/1/83 82/1/82 77/2/77
f 81/1/81 84/1/84 83/1/83 80/2/80
f 83/1/83 95/1/95 92/1/92 82/2/82
f 84/1/84 85/1/85 95/1/95 83/2/83
f 86/1/86 89/1/89 88/1/88 78/2/78
f 87/1/87 90/1/90 89/1/89 86/2/86
f 89/1/89 84/1/84 81/1/81 88/2/88
f 90/1/90 85/1/85 84/1/84 89/2/89
f 91/1/91 94/1/94 93/1/93 79/2/79
f 92/1/92 95/1/95 94/1/94 91/2/91
f 94/1/94 90/1/90 87/1/87 93/2/93
f 95/1/95 85/1/85 90/1/90 94/2/94
f 99/1/99 102/1/102 101/1/101 96/2/96
f 100/1/100 103/1/103 102/1/102 99/2/99
f 102/1/102 114/1/114 111/1/111 101/2/101
f 103/1/103 104/1/104 114/1/114 102/2/102
f 105/1/105 108/1/108 107/1/107 97/2/97
f 106/1/106 109/1/109 108/1/108 105/2/105
f 108/1/108 103/1/103 100/1/100 107/2/107
f 109/1/109 104/1/104 103/1/103 108/2/108
f 110/1/110 113/1/113 112/1/112 98/2/98
f 111/1/111 114/1/114 113/1/113 110/2/110
f 113/1/113 109/1/109 106/1/106 112/2/112
f 114/1/114 104/1/104 109/1/109 113/2/113
f 118/1/118 121/1/121 120/1/120 115/2/115
f 119/1/119 122/1/122 121/1/121 118/2/118
f 121/1/121 133/1/133 130/1/130 120/2/120
f 122/1/122 123/1/123 133/1/133 121/2/121
f 124/1/124 127/1/127 126/1/126 116/2/116
f 125/1/125 128/1/128 127/1/127 124/2/124
f 127/1/127 122/1/122 119/1/119 126/2/126
f 128/1/128 123/1/123 122/1/122 127/2/127
f 129/1/129 132/1/132 131/1/131 117/2/117
f 130/1/130 133/1/133 132/1/132 129/2/129
f 132/1/132 128/1/128 125/1/125 131/2/131
f 133/1/133 123/1/123 128/1/128 132/2/132
f 137/1/137 140/1/140 139/1/139 134/2/134
f 138/1/138 141/1/141 140/1/140 137/2/137
f 140/1/140 152/1/152 149/1/149 139/2/139
f 141/1/141 142/1/142 152/1/152 140/2/140
f 143/1/143 146/1/146 145/1/145 135/2/135
f 144/1/144 147/1/147 146/1/146 143/2/143
f 146/1/146 141/1/141 138/1/138 145/2/145
f 147/1/147 142/1/142 141/1/141 146/2/146
f 148/1/148 151/1/151 150/1/150 136/2/136
f 149/1/149 152/1/152 151/1/151 148/2/148
f 151/1/151 147/1/147 144/1/144 150/2/150
f 152/1/152 142/1/142 147/1/147 151/2/151
f 134/1/134 139/1/139 110/1/110 98/2/98
f 139/1/139 149/1/149 111/1/111 110/2/110
f 149/1/149 148/1/148 101/1/101 111/2/111
f 148/1/148 136/1/136 96/1/96 101/2/101
f 98/1/98 112/1/112 23/1/23 20/2/20
f 112/1/112 106/1/106 24/1/24 23/2/23
f 106/1/106 105/1/105 31/1/31 24/2/24
f 105/1/105 97/1/97 21/1/21 31/2/31
f 22/1/22 36/1/36 15/1/15 3/2/3
f 36/1/36 30/1/30 16/1/16 15/2/15
f 30/1/30 29/1/29 6/1/6 16/2/16
f 29/1/29 21/1/21 1/1/1 6/2/6
f 116/1/116 126/1/126 143/1/143 135/2/135
f 126/1/126 119/1/119 144/1/144 143/2/143
f 119/1/119 118/1/118 150/1/150 144/2/144
f 118/1/118 115/1/115 136/1/136 150/2/150
f 59/1/59 69/1/69 53/1/53 41/2/41
f 69/1/69 62/1/62 54/1/54 53/2/53
f 62/1/62 61/1/61 44/1/44 54/2/54
f 61/1/61 58/1/58 39/1/39 44/2/44
f 97/1/97 107/1/107 80/1/80 77/2/77
f 107/1/107 100/1/100 81/1/81 80/2/80
f 100/1/100 99/1/99 88/1/88 81/2/81
f 99/1/99 96/1/96 78/1/78 88/2/88
f 117/1/117 131/1/131 48/1/48 40/2/40
f 131/1/131 125/1/125 49/1/49 48/2/48
f 125/1/125 124/1/124 55/1/55 49/2/49
f 124/1/124 116/1/116 41/1/41 55/2/55
f 40/1/40 50/1/50 10/1/10 2/2/2
f 50/1/50 43/1/43 11/1/11 10/2/10
f 43/1/43 42/1/42 17/1/17 11/2/11
f 42/1/42 39/1/39 3/1/3 17/2/17
f 60/1/60 74/1/74 137/1/137 134/2/134
f 74/1/74 68/1/68 138/1/138 137/2/137
f 68/1/68 67/1/67 145/1/145 138/2/138
f 67/1/67 59/1/59 135/1/135 145/2/145
f 79/1/79 93/1/93 129/1/129 117/2/117
f 93/1/93 87/1/87 130/1/130 129/2/129
f 87/1/87 86/1/86 120/1/120 130/2/130
f 86/1/86 78/1/78 115/1/115 120/2/120
f 2/1/2 12/1/12 91/1/91 79/2/79
f 12/1/12 5/1/5 92/1/92 91/2/91
f 5/1/5 4/1/4 82/1/82 92/2/92
f 4/1/4 1/1/1 77/1/77 82/2/82
f 20/1/20 25/1/25 72/1/72 60/2/60
f 25/1/25 35/1/35 73/1/73 72/2/72
f 35/1/35 34/1/34 63/1/63 73/2/73
f 34/1/34 22/1/22 58/1/58 63/2/63
f 77/1/77 1/1/1 21/1/21 97/1/97
# 150 faces, 2 coords texture

# End of File
