# Blender v2.80 (sub 75) OBJ File: ''
# www.blender.org
mtllib cube_with_bevel.mtl
o Cube
v 0.821727 0.821727 -1.000000
v 0.821727 1.000000 -0.821727
v 1.000000 0.821727 -0.821727
v 0.821728 0.891058 -0.988208
v 0.821728 0.950282 -0.950282
v 0.891058 0.821728 -0.988208
v 0.893327 0.893327 -0.973489
v 0.889668 0.942149 -0.942149
v 0.927903 0.927903 -0.927903
v 0.891058 0.988208 -0.821728
v 0.950282 0.950282 -0.821728
v 0.821728 0.988208 -0.891058
v 0.893327 0.973489 -0.893327
v 0.942149 0.942149 -0.889668
v 0.988208 0.821728 -0.891058
v 0.950282 0.821728 -0.950282
v 0.988208 0.891058 -0.821728
v 0.973489 0.893327 -0.893327
v 0.942149 0.889668 -0.942149
v 0.821727 -1.000000 -0.821727
v 0.821727 -0.821727 -1.000000
v 1.000000 -0.821727 -0.821727
v 0.821728 -0.988208 -0.891058
v 0.821728 -0.950282 -0.950282
v 0.891058 -0.988208 -0.821728
v 0.893327 -0.973489 -0.893327
v 0.889668 -0.942149 -0.942149
v 0.927903 -0.927903 -0.927903
v 0.891058 -0.821728 -0.988208
v 0.950282 -0.821728 -0.950282
v 0.821728 -0.891058 -0.988208
v 0.893327 -0.893327 -0.973489
v 0.942149 -0.889668 -0.942149
v 0.988208 -0.891058 -0.821728
v 0.950282 -0.950282 -0.821728
v 0.988208 -0.821728 -0.891058
v 0.973489 -0.893327 -0.893327
v 0.942149 -0.942149 -0.889668
v 1.000000 0.821727 0.821727
v 0.821727 1.000000 0.821727
v 0.821727 0.821727 1.000000
v 0.988208 0.891058 0.821728
v 0.950282 0.950282 0.821728
v 0.988208 0.821728 0.891058
v 0.973489 0.893327 0.893327
v 0.942149 0.942149 0.889668
v 0.927903 0.927903 0.927903
v 0.821728 0.988208 0.891058
v 0.821728 0.950282 0.950282
v 0.891058 0.988208 0.821728
v 0.893327 0.973489 0.893327
v 0.889668 0.942149 0.942149
v 0.891058 0.821728 0.988208
v 0.950282 0.821728 0.950282
v 0.821728 0.891058 0.988208
v 0.893327 0.893327 0.973489
v 0.942149 0.889668 0.942149
v 1.000000 -0.821727 0.821727
v 0.821727 -0.821727 1.000000
v 0.821727 -1.000000 0.821727
v 0.988208 -0.821728 0.891058
v 0.950282 -0.821728 0.950282
v 0.988208 -0.891058 0.821728
v 0.973489 -0.893327 0.893327
v 0.942149 -0.889668 0.942149
v 0.927903 -0.927903 0.927903
v 0.821728 -0.891058 0.988208
v 0.821728 -0.950282 0.950282
v 0.891058 -0.821728 0.988208
v 0.893327 -0.893327 0.973489
v 0.889668 -0.942149 0.942149
v 0.891058 -0.988208 0.821728
v 0.950282 -0.950282 0.821728
v 0.821728 -0.988208 0.891058
v 0.893327 -0.973489 0.893327
v 0.942149 -0.942149 0.889668
v -0.821727 0.821727 -1.000000
v -1.000000 0.821727 -0.821727
v -0.821727 1.000000 -0.821727
v -0.891058 0.821728 -0.988208
v -0.950282 0.821728 -0.950282
v -0.821728 0.891058 -0.988208
v -0.893327 0.893327 -0.973489
v -0.942149 0.889668 -0.942149
v -0.927903 0.927903 -0.927903
v -0.988208 0.891058 -0.821728
v -0.950282 0.950282 -0.821728
v -0.988208 0.821728 -0.891058
v -0.973489 0.893327 -0.893327
v -0.942149 0.942149 -0.889668
v -0.821728 0.988208 -0.891058
v -0.821728 0.950282 -0.950282
v -0.891058 0.988208 -0.821728
v -0.893327 0.973489 -0.893327
v -0.889668 0.942149 -0.942149
v -1.000000 -0.821727 -0.821727
v -0.821727 -0.821727 -1.000000
v -0.821727 -1.000000 -0.821727
v -0.988208 -0.821728 -0.891058
v -0.950282 -0.821728 -0.950282
v -0.988208 -0.891058 -0.821728
v -0.973489 -0.893327 -0.893327
v -0.942149 -0.889668 -0.942149
v -0.927903 -0.927903 -0.927903
v -0.821728 -0.891058 -0.988208
v -0.821728 -0.950282 -0.950282
v -0.891058 -0.821728 -0.988208
v -0.893327 -0.893327 -0.973489
v -0.889668 -0.942149 -0.942149
v -0.891058 -0.988208 -0.821728
v -0.950282 -0.950282 -0.821728
v -0.821728 -0.988208 -0.891058
v -0.893327 -0.973489 -0.893327
v -0.942149 -0.942149 -0.889668
v -1.000000 0.821727 0.821727
v -0.821727 0.821727 1.000000
v -0.821727 1.000000 0.821727
v -0.988208 0.821728 0.891058
v -0.950282 0.821728 0.950282
v -0.988208 0.891058 0.821728
v -0.973489 0.893327 0.893327
v -0.942149 0.889668 0.942149
v -0.927903 0.927903 0.927903
v -0.821728 0.891058 0.988208
v -0.821728 0.950282 0.950282
v -0.891058 0.821728 0.988208
v -0.893327 0.893327 0.973489
v -0.889668 0.942149 0.942149
v -0.891058 0.988208 0.821728
v -0.950282 0.950282 0.821728
v -0.821728 0.988208 0.891058
v -0.893327 0.973489 0.893327
v -0.942149 0.942149 0.889668
v -0.821727 -1.000000 0.821727
v -0.821727 -0.821727 1.000000
v -1.000000 -0.821727 0.821727
v -0.821728 -0.988208 0.891058
v -0.821728 -0.950282 0.950282
v -0.891058 -0.988208 0.821728
v -0.893327 -0.973489 0.893327
v -0.889668 -0.942149 0.942149
v -0.927903 -0.927903 0.927903
v -0.891058 -0.821728 0.988208
v -0.950282 -0.821728 0.950282
v -0.821728 -0.891058 0.988208
v -0.893327 -0.893327 0.973489
v -0.942149 -0.889668 0.942149
v -0.988208 -0.891058 0.821728
v -0.950282 -0.950282 0.821728
v -0.988208 -0.821728 0.891058
v -0.973489 -0.893327 0.893327
v -0.942149 -0.942149 0.889668
vt 0.397284 0.772284
vt 0.602716 0.772284
vt 0.602716 0.977716
vt 0.397284 0.977716
vt 0.397284 0.522284
vt 0.602716 0.522284
vt 0.602716 0.727716
vt 0.397284 0.727716
vt 0.397284 0.272284
vt 0.602716 0.272284
vt 0.602716 0.477716
vt 0.397284 0.477716
vt 0.397284 0.022284
vt 0.602716 0.022284
vt 0.602716 0.227716
vt 0.397284 0.227716
vt 0.147284 0.522284
vt 0.352716 0.522284
vt 0.352716 0.727716
vt 0.147284 0.727716
vt 0.852716 0.727716
vt 0.861382 0.727716
vt 0.861666 0.736666
vt 0.852716 0.736382
vt 0.875000 0.727716
vt 0.875000 0.736209
vt 0.861209 0.750000
vt 0.852716 0.750000
vt 0.875000 0.740988
vt 0.388618 0.022284
vt 0.388334 0.013334
vt 0.397284 0.013618
vt 0.375000 0.022284
vt 0.375000 0.013791
vt 0.388791 0.000000
vt 0.397284 0.000000
vt 0.375000 0.009012
vt 0.352716 0.513618
vt 0.361666 0.513334
vt 0.361382 0.522284
vt 0.352716 0.500000
vt 0.361209 0.500000
vt 0.375000 0.513791
vt 0.375000 0.522284
vt 0.365988 0.500000
vt 0.602716 0.763618
vt 0.611666 0.763334
vt 0.611382 0.772284
vt 0.602716 0.750000
vt 0.611209 0.750000
vt 0.625000 0.763791
vt 0.625000 0.772284
vt 0.615988 0.750000
vt 0.647284 0.727716
vt 0.647284 0.736382
vt 0.638334 0.736666
vt 0.638618 0.727716
vt 0.647284 0.750000
vt 0.638791 0.750000
vt 0.625000 0.736209
vt 0.625000 0.727716
vt 0.634012 0.750000
vt 0.138618 0.522284
vt 0.138334 0.513334
vt 0.147284 0.513618
vt 0.125000 0.522284
vt 0.125000 0.513791
vt 0.138791 0.500000
vt 0.147284 0.500000
vt 0.125000 0.509012
vt 0.361382 0.727716
vt 0.361666 0.736666
vt 0.352716 0.736382
vt 0.375000 0.727716
vt 0.375000 0.736209
vt 0.361209 0.750000
vt 0.352716 0.750000
vt 0.375000 0.740988
vt 0.397284 0.236382
vt 0.388334 0.236666
vt 0.388618 0.227716
vt 0.397284 0.250000
vt 0.388791 0.250000
vt 0.375000 0.236209
vt 0.375000 0.227716
vt 0.384012 0.250000
vt 0.602716 0.263618
vt 0.611666 0.263334
vt 0.611382 0.272284
vt 0.602716 0.250000
vt 0.611209 0.250000
vt 0.625000 0.263791
vt 0.625000 0.272284
vt 0.615988 0.250000
vt 0.147284 0.736382
vt 0.138334 0.736666
vt 0.138618 0.727716
vt 0.147284 0.750000
vt 0.138791 0.750000
vt 0.125000 0.736209
vt 0.125000 0.727716
vt 0.134012 0.750000
vt 0.388618 0.272284
vt 0.388334 0.263334
vt 0.397284 0.263618
vt 0.375000 0.272284
vt 0.375000 0.263791
vt 0.388791 0.250000
vt 0.397284 0.250000
vt 0.375000 0.259012
vt 0.611382 0.977716
vt 0.611666 0.986666
vt 0.602716 0.986382
vt 0.625000 0.977716
vt 0.625000 0.986209
vt 0.611209 1.000000
vt 0.602716 1.000000
vt 0.625000 0.990988
vt 0.852716 0.522284
vt 0.852716 0.513618
vt 0.861666 0.513334
vt 0.861382 0.522284
vt 0.852716 0.500000
vt 0.861209 0.500000
vt 0.875000 0.513791
vt 0.875000 0.522284
vt 0.865988 0.500000
vt 0.611382 0.727716
vt 0.611666 0.736666
vt 0.602716 0.736382
vt 0.625000 0.727716
vt 0.625000 0.736209
vt 0.611209 0.750000
vt 0.602716 0.750000
vt 0.625000 0.740988
vt 0.602716 0.013618
vt 0.611666 0.013334
vt 0.611382 0.022284
vt 0.602716 0.000000
vt 0.611209 0.000000
vt 0.625000 0.013791
vt 0.625000 0.022284
vt 0.615988 0.000000
vt 0.397284 0.736382
vt 0.388334 0.736666
vt 0.388618 0.727716
vt 0.397284 0.750000
vt 0.388791 0.750000
vt 0.375000 0.736209
vt 0.375000 0.727716
vt 0.384012 0.750000
vt 0.647284 0.522284
vt 0.638618 0.522284
vt 0.638334 0.513334
vt 0.647284 0.513618
vt 0.625000 0.522284
vt 0.625000 0.513791
vt 0.638791 0.500000
vt 0.647284 0.500000
vt 0.625000 0.509012
vt 0.388618 0.772284
vt 0.388334 0.763334
vt 0.397284 0.763618
vt 0.375000 0.772284
vt 0.375000 0.763791
vt 0.388791 0.750000
vt 0.397284 0.750000
vt 0.375000 0.759012
vt 0.602716 0.513618
vt 0.611666 0.513334
vt 0.611382 0.522284
vt 0.602716 0.500000
vt 0.611209 0.500000
vt 0.625000 0.513791
vt 0.625000 0.522284
vt 0.615988 0.500000
vt 0.611382 0.477716
vt 0.611666 0.486666
vt 0.602716 0.486382
vt 0.625000 0.477716
vt 0.625000 0.486209
vt 0.625000 0.490988
vt 0.611382 0.227716
vt 0.611666 0.236666
vt 0.602716 0.236382
vt 0.625000 0.227716
vt 0.625000 0.236209
vt 0.611209 0.250000
vt 0.602716 0.250000
vt 0.625000 0.240988
vt 0.397284 0.986382
vt 0.388334 0.986666
vt 0.388618 0.977716
vt 0.397284 1.000000
vt 0.388791 1.000000
vt 0.375000 0.986209
vt 0.375000 0.977716
vt 0.384012 1.000000
vt 0.397284 0.486382
vt 0.388334 0.486666
vt 0.388618 0.477716
vt 0.397284 0.500000
vt 0.388791 0.500000
vt 0.375000 0.486209
vt 0.375000 0.477716
vt 0.384012 0.500000
vt 0.388618 0.522284
vt 0.388334 0.513334
vt 0.397284 0.513618
vt 0.375000 0.522284
vt 0.375000 0.513791
vt 0.375000 0.509012
vn 0.0000 -1.0000 0.0000
vn -1.0000 0.0000 0.0000
vn 0.0000 0.0000 1.0000
vn 0.0000 1.0000 0.0000
vn 1.0000 0.0000 0.0000
vn 0.1791 0.1791 -0.9674
vn 0.1583 0.5367 -0.8288
vn 0.5367 0.1583 -0.8288
vn 0.4822 0.4822 -0.7314
vn 0.1791 0.9674 -0.1791
vn 0.5367 0.8288 -0.1583
vn 0.1583 0.8288 -0.5367
vn 0.4822 0.7314 -0.4822
vn 0.9674 0.1791 -0.1791
vn 0.8288 0.1583 -0.5367
vn 0.8288 0.5367 -0.1583
vn 0.7314 0.4822 -0.4822
vn 0.1791 -0.9674 -0.1791
vn 0.1583 -0.8288 -0.5367
vn 0.5367 -0.8288 -0.1583
vn 0.4822 -0.7314 -0.4822
vn 0.1791 -0.1791 -0.9674
vn 0.5367 -0.1583 -0.8288
vn 0.1583 -0.5367 -0.8288
vn 0.4822 -0.4822 -0.7314
vn 0.9674 -0.1791 -0.1791
vn 0.8288 -0.5367 -0.1583
vn 0.8288 -0.1583 -0.5367
vn 0.7314 -0.4822 -0.4822
vn 0.9674 0.1791 0.1791
vn 0.8288 0.5367 0.1583
vn 0.8288 0.1583 0.5367
vn 0.7314 0.4822 0.4822
vn 0.1791 0.9674 0.1791
vn 0.1583 0.8288 0.5367
vn 0.5367 0.8288 0.1583
vn 0.4822 0.7314 0.4822
vn 0.1791 0.1791 0.9674
vn 0.5367 0.1583 0.8288
vn 0.1583 0.5367 0.8288
vn 0.4822 0.4822 0.7314
vn 0.9674 -0.1791 0.1791
vn 0.8288 -0.1583 0.5367
vn 0.8288 -0.5367 0.1583
vn 0.7314 -0.4822 0.4822
vn 0.1791 -0.1791 0.9674
vn 0.1583 -0.5367 0.8288
vn 0.5367 -0.1583 0.8288
vn 0.4822 -0.4822 0.7314
vn 0.1791 -0.9674 0.1791
vn 0.5367 -0.8288 0.1583
vn 0.1583 -0.8288 0.5367
vn 0.4822 -0.7314 0.4822
vn -0.1791 0.1791 -0.9674
vn -0.5367 0.1583 -0.8288
vn -0.1583 0.5367 -0.8288
vn -0.4822 0.4822 -0.7314
vn -0.9674 0.1791 -0.1791
vn -0.8288 0.5367 -0.1583
vn -0.8288 0.1583 -0.5367
vn -0.7314 0.4822 -0.4822
vn -0.1791 0.9674 -0.1791
vn -0.1583 0.8288 -0.5367
vn -0.5367 0.8288 -0.1583
vn -0.4822 0.7314 -0.4822
vn -0.9674 -0.1791 -0.1791
vn -0.8288 -0.1583 -0.5367
vn -0.8288 -0.5367 -0.1583
vn -0.7314 -0.4822 -0.4822
vn -0.1791 -0.1791 -0.9674
vn -0.1583 -0.5367 -0.8288
vn -0.5367 -0.1583 -0.8288
vn -0.4822 -0.4822 -0.7314
vn -0.1791 -0.9674 -0.1791
vn -0.5367 -0.8288 -0.1583
vn -0.1583 -0.8288 -0.5367
vn -0.4822 -0.7314 -0.4822
vn -0.9674 0.1791 0.1791
vn -0.8288 0.1583 0.5367
vn -0.8288 0.5367 0.1583
vn -0.7314 0.4822 0.4822
vn -0.1791 0.1791 0.9674
vn -0.1583 0.5367 0.8288
vn -0.5367 0.1583 0.8288
vn -0.4822 0.4822 0.7314
vn -0.1791 0.9674 0.1791
vn -0.5367 0.8288 0.1583
vn -0.1583 0.8288 0.5367
vn -0.4822 0.7314 0.4822
vn -0.1791 -0.9674 0.1791
vn -0.1583 -0.8288 0.5367
vn -0.5367 -0.8288 0.1583
vn -0.4822 -0.7314 0.4822
vn -0.1791 -0.1791 0.9674
vn -0.5367 -0.1583 0.8288
vn -0.1583 -0.5367 0.8288
vn -0.4822 -0.4822 0.7314
vn -0.9674 -0.1791 0.1791
vn -0.8288 -0.5367 0.1583
vn -0.8288 -0.1583 0.5367
vn -0.7314 -0.4822 0.4822
vn -0.1677 -0.9858 0.0000
vn -0.5393 -0.8421 0.0000
vn -0.8421 -0.5393 0.0000
vn -0.9858 -0.1677 0.0000
vn 0.0000 -0.9858 -0.1677
vn 0.0000 -0.8421 -0.5393
vn 0.0000 -0.5393 -0.8421
vn 0.0000 -0.1677 -0.9858
vn 0.9858 0.0000 -0.1677
vn 0.8421 0.0000 -0.5393
vn 0.5393 0.0000 -0.8421
vn 0.1677 0.0000 -0.9858
vn -0.1677 0.0000 0.9858
vn -0.5393 0.0000 0.8421
vn -0.8421 0.0000 0.5393
vn -0.9858 0.0000 0.1677
vn 0.1677 0.0000 0.9858
vn 0.5393 0.0000 0.8421
vn 0.8421 0.0000 0.5393
vn 0.9858 0.0000 0.1677
vn -0.1677 0.0000 -0.9858
vn -0.5393 0.0000 -0.8421
vn -0.8421 0.0000 -0.5393
vn -0.9858 0.0000 -0.1677
vn 0.0000 0.9858 0.1677
vn 0.0000 0.8421 0.5393
vn 0.0000 0.5393 0.8421
vn 0.0000 0.1677 0.9858
vn 0.1677 0.9858 0.0000
vn 0.5393 0.8421 0.0000
vn 0.8421 0.5393 0.0000
vn 0.9858 0.1677 0.0000
vn 0.0000 -0.9858 0.1677
vn 0.0000 -0.8421 0.5393
vn 0.0000 -0.5393 0.8421
vn 0.0000 -0.1677 0.9858
vn -0.1677 0.9858 0.0000
vn -0.5393 0.8421 0.0000
vn -0.8421 0.5393 0.0000
vn -0.9858 0.1677 0.0000
vn 0.0000 0.9858 -0.1677
vn 0.0000 0.8421 -0.5393
vn 0.0000 0.5393 -0.8421
vn 0.0000 0.1677 -0.9858
vn 0.1677 -0.9858 0.0000
vn 0.5393 -0.8421 0.0000
vn 0.8421 -0.5393 0.0000
vn 0.9858 -0.1677 0.0000
vn 0.0000 0.0000 -1.0000
usemtl Material
s off
f 98/1/1 20/2/1 60/3/1 134/4/1
f 136/5/2 115/6/2 78/7/2 96/8/2
f 59/9/3 41/10/3 116/11/3 135/12/3
f 2/13/4 79/14/4 117/15/4 40/16/4
f 22/17/5 3/18/5 39/19/5 58/20/5
f 1/21/6 4/22/6 7/23/6 6/24/6
f 4/22/7 5/25/7 8/26/7 7/23/7
f 6/24/8 7/23/8 19/27/8 16/28/8
f 7/23/9 8/26/9 9/29/9 19/27/9
f 2/13/10 10/30/10 13/31/10 12/32/10
f 10/30/11 11/33/11 14/34/11 13/31/11
f 12/32/12 13/31/12 8/35/12 5/36/12
f 13/31/13 14/34/13 9/37/13 8/35/13
f 3/18/14 15/38/14 18/39/14 17/40/14
f 15/38/15 16/41/15 19/42/15 18/39/15
f 17/40/16 18/39/16 14/43/16 11/44/16
f 18/39/17 19/42/17 9/45/17 14/43/17
f 20/2/18 23/46/18 26/47/18 25/48/18
f 23/46/19 24/49/19 27/50/19 26/47/19
f 25/48/20 26/47/20 38/51/20 35/52/20
f 26/47/21 27/50/21 28/53/21 38/51/21
f 21/54/22 29/55/22 32/56/22 31/57/22
f 29/55/23 30/58/23 33/59/23 32/56/23
f 31/57/24 32/56/24 27/60/24 24/61/24
f 32/56/25 33/59/25 28/62/25 27/60/25
f 22/17/26 34/63/26 37/64/26 36/65/26
f 34/63/27 35/66/27 38/67/27 37/64/27
f 36/65/28 37/64/28 33/68/28 30/69/28
f 37/64/29 38/67/29 28/70/29 33/68/29
f 39/19/30 42/71/30 45/72/30 44/73/30
f 42/71/31 43/74/31 46/75/31 45/72/31
f 44/73/32 45/72/32 57/76/32 54/77/32
f 45/72/33 46/75/33 47/78/33 57/76/33
f 40/16/34 48/79/34 51/80/34 50/81/34
f 48/79/35 49/82/35 52/83/35 51/80/35
f 50/81/36 51/80/36 46/84/36 43/85/36
f 51/80/37 52/83/37 47/86/37 46/84/37
f 41/10/38 53/87/38 56/88/38 55/89/38
f 53/87/39 54/90/39 57/91/39 56/88/39
f 55/89/40 56/88/40 52/92/40 49/93/40
f 56/88/41 57/91/41 47/94/41 52/92/41
f 58/20/42 61/95/42 64/96/42 63/97/42
f 61/95/43 62/98/43 65/99/43 64/96/43
f 63/97/44 64/96/44 76/100/44 73/101/44
f 64/96/45 65/99/45 66/102/45 76/100/45
f 59/9/46 67/103/46 70/104/46 69/105/46
f 67/103/47 68/106/47 71/107/47 70/104/47
f 69/105/48 70/104/48 65/108/48 62/109/48
f 70/104/49 71/107/49 66/110/49 65/108/49
f 60/3/50 72/111/50 75/112/50 74/113/50
f 72/111/51 73/114/51 76/115/51 75/112/51
f 74/113/52 75/112/52 71/116/52 68/117/52
f 75/112/53 76/115/53 66/118/53 71/116/53
f 77/119/54 80/120/54 83/121/54 82/122/54
f 80/120/55 81/123/55 84/124/55 83/121/55
f 82/122/56 83/121/56 95/125/56 92/126/56
f 83/121/57 84/124/57 85/127/57 95/125/57
f 78/7/58 86/128/58 89/129/58 88/130/58
f 86/128/59 87/131/59 90/132/59 89/129/59
f 88/130/60 89/129/60 84/133/60 81/134/60
f 89/129/61 90/132/61 85/135/61 84/133/61
f 79/14/62 91/136/62 94/137/62 93/138/62
f 91/136/63 92/139/63 95/140/63 94/137/63
f 93/138/64 94/137/64 90/141/64 87/142/64
f 94/137/65 95/140/65 85/143/65 90/141/65
f 96/8/66 99/144/66 102/145/66 101/146/66
f 99/144/67 100/147/67 103/148/67 102/145/67
f 101/146/68 102/145/68 114/149/68 111/150/68
f 102/145/69 103/148/69 104/151/69 114/149/69
f 97/152/70 105/153/70 108/154/70 107/155/70
f 105/153/71 106/156/71 109/157/71 108/154/71
f 107/155/72 108/154/72 103/158/72 100/159/72
f 108/154/73 109/157/73 104/160/73 103/158/73
f 98/1/74 110/161/74 113/162/74 112/163/74
f 110/161/75 111/164/75 114/165/75 113/162/75
f 112/163/76 113/162/76 109/166/76 106/167/76
f 113/162/77 114/165/77 104/168/77 109/166/77
f 115/6/78 118/169/78 121/170/78 120/171/78
f 118/169/79 119/172/79 122/173/79 121/170/79
f 120/171/80 121/170/80 133/174/80 130/175/80
f 121/170/81 122/173/81 123/176/81 133/174/81
f 116/11/82 124/177/82 127/178/82 126/179/82
f 124/177/83 125/180/83 128/181/83 127/178/83
f 126/179/84 127/178/84 122/173/84 119/172/84
f 127/178/85 128/181/85 123/182/85 122/173/85
f 117/15/86 129/183/86 132/184/86 131/185/86
f 129/183/87 130/186/87 133/187/87 132/184/87
f 131/185/88 132/184/88 128/188/88 125/189/88
f 132/184/89 133/187/89 123/190/89 128/188/89
f 134/4/90 137/191/90 140/192/90 139/193/90
f 137/191/91 138/194/91 141/195/91 140/192/91
f 139/193/92 140/192/92 152/196/92 149/197/92
f 140/192/93 141/195/93 142/198/93 152/196/93
f 135/12/94 143/199/94 146/200/94 145/201/94
f 143/199/95 144/202/95 147/203/95 146/200/95
f 145/201/96 146/200/96 141/204/96 138/205/96
f 146/200/97 147/203/97 142/206/97 141/204/97
f 136/5/98 148/207/98 151/208/98 150/209/98
f 148/207/99 149/210/99 152/211/99 151/208/99
f 150/209/100 151/208/100 147/203/100 144/202/100
f 151/208/101 152/211/101 142/212/101 147/203/101
f 98/1/102 134/4/102 139/193/102 110/161/102
f 110/161/103 139/193/103 149/197/103 111/164/103
f 111/150/104 149/210/104 148/207/104 101/146/104
f 101/146/105 148/207/105 136/5/105 96/8/105
f 20/2/106 98/1/106 112/163/106 23/46/106
f 23/46/107 112/163/107 106/167/107 24/49/107
f 24/61/108 106/156/108 105/153/108 31/57/108
f 31/57/109 105/153/109 97/152/109 21/54/109
f 3/18/110 22/17/110 36/65/110 15/38/110
f 15/38/111 36/65/111 30/69/111 16/41/111
f 16/28/112 30/58/112 29/55/112 6/24/112
f 6/24/113 29/55/113 21/54/113 1/21/113
f 135/12/114 116/11/114 126/179/114 143/199/114
f 143/199/115 126/179/115 119/172/115 144/202/115
f 144/202/116 119/172/116 118/169/116 150/209/116
f 150/209/117 118/169/117 115/6/117 136/5/117
f 41/10/118 59/9/118 69/105/118 53/87/118
f 53/87/119 69/105/119 62/109/119 54/90/119
f 54/77/120 62/98/120 61/95/120 44/73/120
f 44/73/121 61/95/121 58/20/121 39/19/121
f 77/119/122 97/152/122 107/155/122 80/120/122
f 80/120/123 107/155/123 100/159/123 81/123/123
f 81/134/124 100/147/124 99/144/124 88/130/124
f 88/130/125 99/144/125 96/8/125 78/7/125
f 40/16/126 117/15/126 131/185/126 48/79/126
f 48/79/127 131/185/127 125/189/127 49/82/127
f 49/93/128 125/180/128 124/177/128 55/89/128
f 55/89/129 124/177/129 116/11/129 41/10/129
f 2/13/130 40/16/130 50/81/130 10/30/130
f 10/30/131 50/81/131 43/85/131 11/33/131
f 11/44/132 43/74/132 42/71/132 17/40/132
f 17/40/133 42/71/133 39/19/133 3/18/133
f 134/4/134 60/3/134 74/113/134 137/191/134
f 137/191/135 74/113/135 68/117/135 138/194/135
f 138/205/136 68/106/136 67/103/136 145/201/136
f 145/201/137 67/103/137 59/9/137 135/12/137
f 117/15/138 79/14/138 93/138/138 129/183/138
f 129/183/139 93/138/139 87/142/139 130/186/139
f 130/175/140 87/131/140 86/128/140 120/171/140
f 120/171/141 86/128/141 78/7/141 115/6/141
f 79/14/142 2/13/142 12/32/142 91/136/142
f 91/136/143 12/32/143 5/36/143 92/139/143
f 92/126/144 5/25/144 4/22/144 82/122/144
f 82/122/145 4/22/145 1/21/145 77/119/145
f 60/3/146 20/2/146 25/48/146 72/111/146
f 72/111/147 25/48/147 35/52/147 73/114/147
f 73/101/148 35/66/148 34/63/148 63/97/148
f 63/97/149 34/63/149 22/17/149 58/20/149
f 97/152/150 77/119/150 1/21/150 21/54/150
