####
#
# OBJ File Generated by Meshlab
#
####
# Object grid_1m.obj
#
# Vertices: 40
# Faces: 30
#
####
mtllib ./grid_1m.obj.mtl

vn 1.000000 2.000000 2.000000
v 1.000000 1.000000 0.025000
vn 2.000000 1.000000 -1.000000
v 1.000000 1.000000 -0.025000
vn 2.000000 -1.000000 1.000000
v 1.000000 0.000000 0.025000
vn 1.000000 -2.000000 -2.000000
v 1.000000 0.000000 -0.025000
vn -2.000000 1.000000 1.000000
v 0.000000 1.000000 0.025000
vn -1.000000 2.000000 -2.000000
v 0.000000 1.000000 -0.025000
vn -1.000000 -2.000000 2.000000
v 0.000000 0.000000 0.025000
vn -2.000000 -1.000000 -1.000000
v 0.000000 0.000000 -0.025000
vn 1.000000 2.000000 2.000000
v 3.000000 1.000000 0.025000
vn 2.000000 1.000000 -1.000000
v 3.000000 1.000000 -0.025000
vn 2.000000 -1.000000 1.000000
v 3.000000 0.000000 0.025000
vn 1.000000 -2.000000 -2.000000
v 3.000000 0.000000 -0.025000
vn -2.000000 1.000000 1.000000
v 2.000000 1.000000 0.025000
vn -1.000000 2.000000 -2.000000
v 2.000000 1.000000 -0.025000
vn -1.000000 -2.000000 2.000000
v 2.000000 0.000000 0.025000
vn -2.000000 -1.000000 -1.000000
v 2.000000 0.000000 -0.025000
vn 1.000000 2.000000 2.000000
v 5.000000 1.000000 0.025000
vn 2.000000 1.000000 -1.000000
v 5.000000 1.000000 -0.025000
vn 2.000000 -1.000000 1.000000
v 5.000000 0.000000 0.025000
vn 1.000000 -2.000000 -2.000000
v 5.000000 0.000000 -0.025000
vn -2.000000 1.000000 1.000000
v 4.000000 1.000000 0.025000
vn -1.000000 2.000000 -2.000000
v 4.000000 1.000000 -0.025000
vn -1.000000 -2.000000 2.000000
v 4.000000 0.000000 0.025000
vn -2.000000 -1.000000 -1.000000
v 4.000000 0.000000 -0.025000
vn 1.000000 2.000000 2.000000
v 7.000000 1.000000 0.025000
vn 2.000000 1.000000 -1.000000
v 7.000000 1.000000 -0.025000
vn 2.000000 -1.000000 1.000000
v 7.000000 0.000000 0.025000
vn 1.000000 -2.000000 -2.000000
v 7.000000 0.000000 -0.025000
vn -2.000000 1.000000 1.000000
v 6.000000 1.000000 0.025000
vn -1.000000 2.000000 -2.000000
v 6.000000 1.000000 -0.025000
vn -1.000000 -2.000000 2.000000
v 6.000000 0.000000 0.025000
vn -2.000000 -1.000000 -1.000000
v 6.000000 0.000000 -0.025000
vn 1.000000 2.000000 2.000000
v 9.000000 1.000000 0.025000
vn 2.000000 1.000000 -1.000000
v 9.000000 1.000000 -0.025000
vn 2.000000 -1.000000 1.000000
v 9.000000 0.000000 0.025000
vn 1.000000 -2.000000 -2.000000
v 9.000000 0.000000 -0.025000
vn -2.000000 1.000000 1.000000
v 8.000000 1.000000 0.025000
vn -1.000000 2.000000 -2.000000
v 8.000000 1.000000 -0.025000
vn -1.000000 -2.000000 2.000000
v 8.000000 0.000000 0.025000
vn -2.000000 -1.000000 -1.000000
v 8.000000 0.000000 -0.025000
# 40 vertices, 0 vertices normals


usemtl material_0
f 5//5 7//7 3//3 1//1
f 3//3 7//7 8//8 4//4
f 7//7 5//5 6//6 8//8
f 2//2 4//4 8//8 6//6
f 1//1 3//3 4//4 2//2
f 5//5 1//1 2//2 6//6
f 13//13 15//15 11//11 9//9
f 11//11 15//15 16//16 12//12
f 15//15 13//13 14//14 16//16
f 10//10 12//12 16//16 14//14
f 9//9 11//11 12//12 10//10
f 13//13 9//9 10//10 14//14
f 21//21 23//23 19//19 17//17
f 19//19 23//23 24//24 20//20
f 23//23 21//21 22//22 24//24
f 18//18 20//20 24//24 22//22
f 17//17 19//19 20//20 18//18
f 21//21 17//17 18//18 22//22
f 29//29 31//31 27//27 25//25
f 27//27 31//31 32//32 28//28
f 31//31 29//29 30//30 32//32
f 26//26 28//28 32//32 30//30
f 25//25 27//27 28//28 26//26
f 29//29 25//25 26//26 30//30
f 37//37 39//39 35//35 33//33
f 35//35 39//39 40//40 36//36
f 39//39 37//37 38//38 40//40
f 34//34 36//36 40//40 38//38
f 33//33 35//35 36//36 34//34
f 37//37 33//33 34//34 38//38
# 30 faces, 0 coords texture

# End of File
