# Blender v2.80 (sub 72) OBJ File: ''
# www.blender.org
mtllib robot_body.mtl
o Cube
v 1.000000 -1.000000 1.000000
v 1.000000 -1.000000 -1.000000
v -1.000000 -1.000000 1.000000
v -1.000000 -1.000000 -1.000000
v 1.000000 1.000000 1.000000
v 1.000000 1.000000 -1.000000
v -1.000000 1.000000 1.000000
v -1.000000 1.000000 -1.000000
v 0.333333 1.000000 -1.000000
v -0.333333 1.000000 -1.000000
v 0.333333 -1.000000 1.000000
v -0.333333 -1.000000 1.000000
v -0.333333 1.000000 1.000000
v 0.333333 1.000000 1.000000
v -0.333333 -1.000000 -1.000000
v 0.333333 -1.000000 -1.000000
v 1.000000 -0.333333 -1.000000
v 1.000000 0.333333 -1.000000
v -1.000000 -0.333333 1.000000
v -1.000000 0.333333 1.000000
v -1.000000 0.333333 -1.000000
v -1.000000 -0.333333 -1.000000
v 1.000000 0.333333 1.000000
v 1.000000 -0.333333 1.000000
v 0.333333 -0.333333 -1.000000
v 0.333333 0.333333 -1.000000
v -0.333333 -0.333333 -1.000000
v -0.333333 0.333333 -1.000000
v 0.333333 0.333333 1.000000
v 0.333333 -0.333333 1.000000
v -0.333333 0.333333 1.000000
v -0.333333 -0.333333 1.000000
v 0.436563 0.440609 3.526070
v 0.419980 -0.465625 3.546654
v -0.437363 0.439960 3.524625
v -0.440333 -0.436197 3.531411
v -0.420855 0.423040 1.484605
v -0.333333 -0.333333 -3.741559
v 0.333333 -0.333333 -3.741559
v 0.333333 -1.000000 -3.741559
v -0.333333 -1.000000 -3.741559
v 0.420193 0.423597 1.483274
v -0.423406 -0.419925 1.478361
v -0.319217 1.017951 1.733316
v -0.360919 1.151366 2.868720
v -0.324271 1.034117 3.266228
v 0.324578 1.034710 3.266652
v 0.422723 -0.420460 1.476998
v -1.017371 0.329393 3.278151
v -1.020223 -0.330529 3.280271
v -1.139539 0.370137 2.876708
v -1.144156 -0.369297 2.878150
v -1.000758 0.323852 1.721410
v -1.153219 0.374699 2.240498
v -1.003413 -0.325271 1.719296
v -1.158070 -0.373649 2.239324
v 1.023954 0.328921 3.277100
v 1.026798 -0.330082 3.279207
v 1.145660 0.369376 2.875996
v 1.159271 0.373900 2.241077
v 1.007383 0.323413 1.722458
v 1.150254 -0.368571 2.877425
v 1.164097 -0.372887 2.239914
v 1.010031 -0.324854 1.720357
v 0.316142 -1.023196 3.306108
v -0.322204 -1.064342 3.261507
v -0.357680 -1.179533 2.865611
v -0.317286 -1.048374 1.738042
v -0.361574 -1.192177 2.249509
v 0.357624 -1.180447 2.865881
v 0.361478 -1.193133 2.249290
v 0.317672 -1.048922 1.737629
v 0.867529 -0.921783 1.833444
v -0.929023 -0.994652 2.294743
v -0.923565 -0.988886 2.809253
v -0.869006 -0.931243 3.167849
v -0.860719 -0.922487 1.832914
v 0.875813 -0.930507 3.167331
v 0.930328 -0.987912 2.808965
v 0.935779 -0.993652 2.294972
v -0.364964 1.164307 2.246988
v 0.360829 1.152301 2.869000
v 0.364832 1.165286 2.246760
v 0.319582 1.018505 1.732893
v 0.870804 0.890440 1.830845
v -0.928111 0.957891 2.810673
v -0.872434 0.899931 3.170397
v -0.863995 0.891145 1.830305
v -0.933693 0.963702 2.293613
v 0.879239 0.899192 3.169870
v 0.934869 0.956910 2.810378
v 0.940443 0.962693 2.293847
v 0.333333 1.000000 -3.671961
v -0.333333 1.000000 -3.671961
v 0.333333 0.333333 -3.671961
v -0.333333 0.333333 -3.671961
v -0.333333 -1.000000 -3.218174
v 0.333333 -1.000000 -3.218174
v -0.333333 -0.333333 -3.218174
v 0.333333 -0.333333 -3.218174
v 1.109520 -1.000000 -3.741559
v 1.109520 -0.333333 -3.741559
v 1.109520 -0.333333 -3.218174
v 1.109520 -1.000000 -3.218174
v -0.333333 0.333333 -3.128549
v 0.333333 0.333333 -3.128549
v 0.333333 1.000000 -3.128549
v -0.333333 1.000000 -3.128549
v 1.547904 0.333333 -3.671961
v 1.547904 1.000000 -3.671961
v 1.547904 1.000000 -3.128549
v 1.547904 0.333333 -3.128549
v -0.124893 -0.554659 4.484917
v -0.310551 -0.530505 4.521173
v -0.286925 -0.656134 4.467192
v -0.139914 -0.635318 4.450119
v -0.100120 0.613708 4.379839
v -0.553781 0.613372 4.379089
v -0.495074 0.921803 4.244953
v -0.158252 0.922111 4.245173
v 0.439509 -0.436821 3.532895
v 0.322534 -1.064928 3.261919
v -0.134582 -0.530629 4.521470
v -0.157977 -0.656251 4.467275
v 0.419980 -0.465625 3.546654
v 0.316142 -1.023196 3.306108
v -0.124893 -0.554659 4.484917
v -0.139914 -0.635318 4.450119
v 0.342429 -0.433086 3.504706
v 0.238591 -0.990657 3.264160
v -0.202444 -0.522120 4.442969
v -0.217465 -0.602778 4.408172
vt 0.541667 0.166667
vt 0.625000 0.166667
vt 0.625000 0.250000
vt 0.541667 0.250000
vt 0.375000 0.416667
vt 0.625000 0.416667
vt 0.625000 0.500000
vt 0.375000 0.500000
vt 0.375000 0.666667
vt 0.625000 0.666667
vt 0.625000 0.750000
vt 0.375000 0.750000
vt 0.541667 0.916667
vt 0.625000 0.916667
vt 0.625000 1.000000
vt 0.541667 1.000000
vt 0.125000 0.666667
vt 0.375000 0.666667
vt 0.375000 0.750000
vt 0.125000 0.750000
vt 0.625000 0.666667
vt 0.875000 0.666667
vt 0.875000 0.750000
vt 0.625000 0.750000
vt 0.125000 0.500000
vt 0.375000 0.500000
vt 0.375000 0.583333
vt 0.125000 0.583333
vt 0.541667 0.750000
vt 0.625000 0.833333
vt 0.541667 0.833333
vt 0.125000 0.583333
vt 0.125000 0.666667
vt 0.125000 0.666667
vt 0.125000 0.583333
vt 0.625000 0.583333
vt 0.375000 0.583333
vt 0.541667 0.000000
vt 0.625000 0.000000
vt 0.625000 0.083333
vt 0.541667 0.083333
vt 0.375000 0.083333
vt 0.458333 0.083333
vt 0.458333 0.166667
vt 0.375000 0.166667
vt 0.541667 0.083333
vt 0.541667 0.166667
vt 0.541667 0.166667
vt 0.541667 0.083333
vt 0.375000 0.000000
vt 0.458333 0.000000
vt 0.458333 0.833333
vt 0.458333 0.916667
vt 0.458333 0.916667
vt 0.458333 0.833333
vt 0.458333 0.833333
vt 0.458333 0.916667
vt 0.458333 0.750000
vt 0.375000 0.833333
vt 0.625000 0.500000
vt 0.875000 0.500000
vt 0.875000 0.583333
vt 0.625000 0.583333
vt 0.375000 0.916667
vt 0.458333 1.000000
vt 0.375000 1.000000
vt 0.375000 0.250000
vt 0.625000 0.250000
vt 0.625000 0.333333
vt 0.375000 0.333333
vt 0.458333 0.250000
vt 0.375000 0.250000
vt 0.458333 0.083333
vt 0.541667 0.083333
vt 0.541667 0.166667
vt 0.458333 0.166667
vt 0.541667 0.083333
vt 0.541667 0.083333
vt 0.541667 0.083333
vt 0.458333 0.166667
vt 0.458333 0.166667
vt 0.458333 0.166667
vt 0.458333 0.166667
vt 0.458333 0.083333
vt 0.458333 0.083333
vt 0.458333 0.083333
vt 0.458333 0.083333
vt 0.458333 0.083333
vt 0.458333 0.083333
vt 0.458333 0.166667
vt 0.458333 0.166667
vt 0.458333 0.166667
vt 0.458333 0.166667
vt 0.541667 0.083333
vt 0.541667 0.083333
vt 0.541667 0.083333
vt 0.458333 0.083333
vt 0.541667 0.166667
vt 0.458333 0.166667
vt 0.458333 0.083333
vt 0.458333 0.083333
vt 0.541667 0.083333
vt 0.541667 0.166667
vt 0.541667 0.166667
vt 0.541667 0.166667
vt 0.541667 0.166667
vt 0.541667 0.166667
vt 0.458333 0.166667
vt 0.541667 0.166667
vt 0.541667 0.166667
vt 0.541667 0.083333
vt 0.541667 0.083333
vt 0.458333 0.083333
vt 0.541667 0.083333
vt 0.541667 0.166667
vt 0.458333 0.083333
vt 0.458333 0.083333
vt 0.458333 0.166667
vt 0.458333 0.083333
vt 0.458333 0.166667
vt 0.458333 0.166667
vt 0.458333 0.166667
vt 0.458333 0.166667
vt 0.541667 0.083333
vt 0.541667 0.166667
vt 0.541667 0.166667
vt 0.541667 0.166667
vt 0.541667 0.083333
vt 0.541667 0.833333
vt 0.625000 0.833333
vt 0.625000 0.916667
vt 0.541667 0.916667
vt 0.625000 0.916667
vt 0.541667 0.916667
vt 0.541667 0.833333
vt 0.541667 0.833333
vt 0.625000 0.833333
vt 0.375000 0.833333
vt 0.375000 0.916667
vt 0.375000 0.583333
vt 0.375000 0.666667
vt 0.375000 0.666667
vt 0.375000 0.583333
vt 0.375000 0.666667
vt 0.375000 0.666667
vt 0.375000 0.916667
vt 0.625000 0.833333
vt 0.541667 0.833333
vt 0.625000 0.833333
vt 0.125000 0.583333
vt 0.125000 0.583333
vt 0.375000 0.833333
vt 0.375000 0.833333
vt 0.458333 0.833333
vt 0.458333 0.833333
vt 0.375000 0.833333
vt 0.458333 0.083333
vt 0.458333 0.083333
vt 0.458333 0.083333
vt 0.458333 0.083333
vt 0.458333 0.083333
vt 0.458333 0.083333
vt 0.541667 0.083333
vt 0.541667 0.166667
vt 0.458333 0.083333
vt 0.458333 0.083333
vt 0.458333 0.083333
vt 0.458333 0.083333
vt 0.458333 0.083333
vt 0.458333 0.083333
vt 0.458333 0.083333
vt 0.458333 0.083333
vn 0.0000 0.0000 1.0000
vn -1.0000 0.0000 0.0000
vn 0.0000 1.0000 0.0000
vn 0.0000 0.0000 -1.0000
vn 0.0000 -1.0000 0.0000
vn 1.0000 0.0000 0.0000
vn -0.0014 0.3863 -0.9224
vn -0.0017 0.0078 1.0000
vn 0.3400 0.3498 0.8729
vn -0.3297 -0.3357 -0.8824
vn 0.9143 -0.3156 0.2539
vn -0.0005 -0.9839 -0.1789
vn 0.3402 -0.3466 0.8741
vn -0.9399 -0.3409 0.0188
vn 0.9836 0.0024 -0.1805
vn 0.9133 0.3184 0.2540
vn 0.3800 0.0065 -0.9249
vn -0.9834 0.0024 -0.1814
vn -0.3943 0.0068 0.9190
vn 0.3290 -0.3357 -0.8827
vn -0.0005 0.9831 -0.1828
vn 0.3290 0.3388 -0.8815
vn -0.3407 0.3498 0.8727
vn -0.9561 0.0058 0.2928
vn -0.9590 0.0058 -0.2834
vn -0.9997 0.0064 0.0216
vn -0.9139 -0.3163 0.2545
vn -0.3809 0.0065 -0.9246
vn -0.9168 -0.3140 -0.2467
vn -0.9158 0.3168 -0.2469
vn 0.9162 0.3161 -0.2463
vn 0.9564 0.0058 0.2920
vn 0.9592 0.0058 -0.2827
vn 0.9997 0.0063 0.0216
vn -0.0014 -0.3825 -0.9240
vn 0.0004 -0.9800 0.1989
vn 0.3934 0.0068 0.9193
vn -0.3296 0.3388 -0.8812
vn 0.9172 -0.3133 -0.2461
vn 0.2986 -0.9238 -0.2395
vn -0.0012 -0.9601 0.2797
vn -0.0012 -0.9626 -0.2710
vn -0.0013 -0.9998 0.0205
vn -0.3241 -0.9458 0.0181
vn -0.3013 -0.9210 0.2469
vn -0.2991 -0.9237 -0.2396
vn 0.3007 -0.9212 0.2469
vn 0.3235 -0.9461 0.0181
vn 0.9402 -0.3401 0.0187
vn -0.9681 -0.2273 0.1053
vn -0.3409 -0.3466 0.8739
vn -0.0012 0.9590 0.2832
vn -0.3279 0.9445 0.0183
vn 0.3272 0.9448 0.0183
vn -0.0012 0.9616 -0.2743
vn -0.0013 0.9998 0.0208
vn -0.3045 0.9192 0.2498
vn -0.3023 0.9219 -0.2423
vn 0.3018 0.9221 -0.2422
vn 0.3039 0.9194 0.2498
vn -0.9388 0.3440 0.0188
vn 0.9391 0.3432 0.0187
vn -0.9129 0.3191 0.2547
vn -0.0015 -0.3955 0.9185
vn 0.0005 0.9955 0.0948
vn -0.0011 -0.9472 0.3207
vn -0.0014 0.3995 0.9167
vn 0.8234 0.3502 0.4466
vn -0.9804 0.1181 -0.1575
vn -0.0010 0.9935 0.1138
vn 0.8252 -0.3462 0.4463
vn 0.4408 0.8888 -0.1256
vn 0.5392 0.2470 -0.8052
vn -0.2619 -0.9346 -0.2408
vn -0.5392 -0.2470 0.8052
usemtl Material
s off
f 31/1/1 13/2/1 7/3/1 20/4/1
f 21/5/2 20/6/2 7/7/2 8/8/2
f 9/9/3 14/10/3 5/11/3 6/12/3
f 27/13/4 15/14/4 4/15/4 22/16/4
f 15/17/5 12/18/5 3/19/5 4/20/5
f 17/21/6 24/22/6 1/23/6 2/24/6
f 2/25/5 1/26/5 11/27/5 16/28/5
f 16/28/5 11/27/5 12/18/5 15/17/5
f 17/29/4 2/24/4 16/30/4 25/31/4
f 98/32/5 97/33/5 41/34/5 40/35/5
f 8/8/3 7/7/3 13/36/3 10/37/3
f 10/37/3 13/36/3 14/10/3 9/9/3
f 23/38/1 5/39/1 14/40/1 29/41/1
f 29/41/1 14/40/1 13/2/1 31/1/1
f 11/42/1 30/43/1 32/44/1 12/45/1
f 42/46/7 37/47/7 44/48/7 84/49/7
f 1/50/1 24/51/1 30/43/1 11/42/1
f 24/51/1 23/38/1 29/41/1 30/43/1
f 106/52/5 105/53/5 96/54/5 95/55/5
f 26/56/4 25/31/4 27/13/4 28/57/4
f 6/12/4 18/58/4 26/56/4 9/59/4
f 18/58/4 17/29/4 25/31/4 26/56/4
f 6/60/6 5/61/6 23/62/6 18/63/6
f 18/63/6 23/62/6 24/22/6 17/21/6
f 10/64/4 28/57/4 21/65/4 8/66/4
f 28/57/4 27/13/4 22/16/4 21/65/4
f 4/67/2 3/68/2 19/69/2 22/70/2
f 22/70/2 19/69/2 20/6/2 21/5/2
f 12/45/1 32/44/1 19/71/1 3/72/1
f 32/44/1 31/1/1 20/4/1 19/71/1
f 121/73/8 33/74/8 35/75/8 36/76/8
f 33/74/9 57/77/9 90/78/9 47/79/9
f 55/80/10 43/81/10 68/82/10 77/83/10
f 62/84/11 58/85/11 78/86/11 79/87/11
f 32/44/12 30/43/12 48/88/12 43/81/12
f 58/85/13 121/73/13 122/89/13 78/86/13
f 52/90/14 56/91/14 74/92/14 75/93/14
f 30/43/15 29/41/15 42/46/15 48/88/15
f 57/77/16 59/94/16 91/95/16 90/78/16
f 48/88/17 42/46/17 61/96/17 64/97/17
f 31/1/18 32/44/18 43/81/18 37/47/18
f 36/76/19 35/75/19 49/98/19 50/99/19
f 48/88/20 64/97/20 73/100/20 72/101/20
f 29/41/21 31/1/21 37/47/21 42/46/21
f 61/96/22 42/46/22 84/49/22 85/102/22
f 49/98/23 35/75/23 46/103/23 87/104/23
f 51/105/24 52/90/24 50/99/24 49/98/24
f 53/106/25 55/80/25 56/91/25 54/107/25
f 54/107/26 56/91/26 52/90/26 51/105/26
f 50/99/27 52/90/27 75/93/27 76/108/27
f 37/47/28 43/81/28 55/80/28 53/106/28
f 56/91/29 55/80/29 77/83/29 74/92/29
f 53/106/30 54/107/30 89/109/30 88/110/30
f 60/111/31 61/96/31 85/102/31 92/112/31
f 62/84/32 59/94/32 57/77/32 58/85/32
f 64/97/33 61/96/33 60/111/33 63/113/33
f 63/113/34 60/111/34 59/94/34 62/84/34
f 43/81/35 48/88/35 72/101/35 68/82/35
f 35/75/36 33/74/36 117/114/36 118/115/36
f 33/74/37 121/73/37 58/85/37 57/77/37
f 37/47/38 53/106/38 88/110/38 44/48/38
f 64/97/39 63/113/39 80/116/39 73/100/39
f 71/117/40 72/101/40 73/100/40 80/116/40
f 67/118/41 70/119/41 122/89/41 66/120/41
f 68/82/42 72/101/42 71/117/42 69/121/42
f 69/121/43 71/117/43 70/119/43 67/118/43
f 69/121/44 67/118/44 75/93/44 74/92/44
f 67/118/45 66/120/45 76/108/45 75/93/45
f 68/82/46 69/121/46 74/92/46 77/83/46
f 122/89/47 70/119/47 79/87/47 78/86/47
f 70/119/48 71/117/48 80/116/48 79/87/48
f 63/113/49 62/84/49 79/87/49 80/116/49
f 36/76/50 66/120/50 115/122/50 114/123/50
f 36/76/51 50/99/51 76/108/51 66/120/51
f 82/124/52 45/125/52 46/103/52 47/79/52
f 45/125/53 81/126/53 89/109/53 86/127/53
f 83/128/54 82/124/54 91/95/54 92/112/54
f 84/49/55 44/48/55 81/126/55 83/128/55
f 83/128/56 81/126/56 45/125/56 82/124/56
f 46/103/57 45/125/57 86/127/57 87/104/57
f 81/126/58 44/48/58 88/110/58 89/109/58
f 84/49/59 83/128/59 92/112/59 85/102/59
f 82/124/60 47/79/60 90/78/60 91/95/60
f 54/107/61 51/105/61 86/127/61 89/109/61
f 59/94/62 60/111/62 92/112/62 91/95/62
f 51/105/63 49/98/63 87/104/63 86/127/63
f 39/129/4 40/130/4 41/131/4 38/132/4
f 97/133/2 99/134/2 38/132/2 41/131/2
f 99/134/3 100/135/3 39/129/3 38/132/3
f 40/130/4 39/129/4 102/136/4 101/137/4
f 93/138/4 95/55/4 96/54/4 94/139/4
f 108/140/3 107/141/3 93/142/3 94/143/3
f 93/142/3 107/141/3 111/144/3 110/145/3
f 105/53/2 108/146/2 94/139/2 96/54/2
f 25/31/6 16/30/6 98/147/6 100/135/6
f 27/13/3 25/31/3 100/135/3 99/134/3
f 15/14/2 27/13/2 99/134/2 97/133/2
f 16/28/5 15/17/5 97/33/5 98/32/5
f 103/148/6 104/149/6 101/137/6 102/136/6
f 98/32/5 40/35/5 101/150/5 104/151/5
f 100/135/1 98/147/1 104/149/1 103/148/1
f 39/129/3 100/135/3 103/148/3 102/136/3
f 28/57/2 10/64/2 108/146/2 105/53/2
f 9/59/6 26/56/6 106/52/6 107/152/6
f 10/37/3 9/9/3 107/141/3 108/140/3
f 26/56/5 28/57/5 105/53/5 106/52/5
f 111/153/6 112/154/6 109/155/6 110/156/6
f 107/152/1 106/52/1 112/154/1 111/153/1
f 106/52/5 95/55/5 109/155/5 112/154/5
f 95/55/4 93/138/4 110/156/4 109/155/4
f 123/157/64 114/123/64 115/122/64 124/158/64
f 34/159/1 113/160/1 127/161/1 125/162/1
f 121/73/65 36/76/65 114/123/65 123/157/65
f 66/120/66 122/89/66 124/158/66 115/122/66
f 118/115/67 117/114/67 120/163/67 119/164/67
f 33/74/68 47/79/68 120/163/68 117/114/68
f 46/103/69 35/75/69 118/115/69 119/164/69
f 47/79/70 46/103/70 119/164/70 120/163/70
f 34/159/71 65/165/71 122/89/71 121/73/71
f 116/166/71 113/160/71 123/157/71 124/158/71
f 113/160/71 34/159/71 121/73/71 123/157/71
f 65/165/71 116/166/71 124/158/71 122/89/71
f 128/167/72 126/168/72 130/169/72 132/170/72
f 65/165/1 34/159/1 125/162/1 126/168/1
f 116/166/1 65/165/1 126/168/1 128/167/1
f 113/160/1 116/166/1 128/167/1 127/161/1
f 130/169/71 129/171/71 131/172/71 132/170/71
f 127/161/73 128/167/73 132/170/73 131/172/73
f 125/162/74 127/161/74 131/172/74 129/171/74
f 126/168/75 125/162/75 129/171/75 130/169/75
