####
#
# OBJ File Generated by Meshlab
#
####
# Object sphere d1.obj
#
# Vertices: 242
# Faces: 256
#
####
vn -0.057645 0.870124 2.873329
v 0.000000 0.097545 0.490393
vn -0.026779 4.180306 4.181858
v 0.000000 0.353553 0.353553
vn -0.020814 4.898055 3.274008
v 0.000000 0.415735 0.277785
vn -0.014205 5.426151 2.248419
v 0.000000 0.461940 0.191342
vn -0.007197 5.748909 1.143941
v 0.000000 0.490393 0.097545
vn -0.000000 5.857448 0.000000
v 0.000000 0.500000 0.000000
vn 0.007195 5.748909 -1.143942
v 0.000000 0.490393 -0.097545
vn 0.014202 5.426152 -2.248417
v 0.000000 0.461940 -0.191342
vn 0.020812 4.898054 -3.274009
v 0.000000 0.415735 -0.277785
vn 0.026779 4.180306 -4.181858
v 0.000000 0.353553 -0.353553
vn 0.031837 3.296237 -4.934982
v 0.000000 0.277785 -0.415735
vn 0.035712 2.277426 -5.500253
v 0.000000 0.191342 -0.461940
vn 0.057645 0.870124 -2.873329
v 0.000000 0.097545 -0.490393
vn 0.279725 0.825951 2.873329
v 0.037329 0.090120 0.490393
vn 0.838538 2.117734 5.500254
v 0.073223 0.176777 0.461940
vn 1.231992 3.057507 4.934984
v 0.106304 0.256640 0.415735
vn 1.574990 3.872347 4.181856
v 0.135299 0.326641 0.353553
vn 1.855177 4.533175 3.274008
v 0.159095 0.384089 0.277785
vn 2.063376 5.018545 2.248417
v 0.176777 0.426777 0.191342
vn 2.193365 5.314054 1.143937
v 0.187665 0.453064 0.097545
vn 2.241549 5.411573 0.000002
v 0.191342 0.461940 0.000000
vn 2.206663 5.308545 -1.143942
v 0.187665 0.453064 -0.097545
vn 2.089622 5.007675 -2.248413
v 0.176777 0.426777 -0.191342
vn 1.893629 4.517247 -3.274010
v 0.159095 0.384089 -0.277785
vn 1.624470 3.851852 -4.181855
v 0.135299 0.326641 -0.353553
vn 1.290827 3.033140 -4.934983
v 0.106304 0.256640 -0.415735
vn 0.904523 2.090398 -5.500256
v 0.073223 0.176777 -0.461940
vn 0.386240 0.781832 -2.873329
v 0.037329 0.090120 -0.490393
vn 0.574512 0.656035 2.873328
v 0.068975 0.068975 0.490393
vn 1.585129 1.635633 5.500256
v 0.135299 0.135299 0.461940
vn 2.308273 2.353301 4.934985
v 0.196424 0.196424 0.415735
vn 2.936990 2.974859 4.181853
v 0.250000 0.250000 0.353553
vn 3.448732 3.478164 3.274009
v 0.293969 0.293969 0.277785
vn 3.826826 3.846913 2.248412
v 0.326641 0.326641 0.191342
vn 4.060007 4.070182 1.143940
v 0.346760 0.346760 0.097545
vn 4.141841 4.141839 0.000001
v 0.353554 0.353553 0.000000
vn 4.070183 4.060005 -1.143942
v 0.346760 0.346760 -0.097545
vn 3.846913 3.826826 -2.248412
v 0.326641 0.326641 -0.191342
vn 3.478164 3.448732 -3.274009
v 0.293969 0.293969 -0.277785
vn 2.974859 2.936990 -4.181853
v 0.250000 0.250000 -0.353553
vn 2.353301 2.308273 -4.934985
v 0.196424 0.196424 -0.415735
vn 1.635633 1.585129 -5.500256
v 0.135299 0.135299 -0.461940
vn 0.656035 0.574512 -2.873328
v 0.068975 0.068975 -0.490393
vn 0.781832 0.386240 2.873329
v 0.090120 0.037329 0.490393
vn 2.090398 0.904523 5.500256
v 0.176777 0.073223 0.461940
vn 3.033137 1.290829 4.934985
v 0.256640 0.106304 0.415735
vn 3.851848 1.624477 4.181856
v 0.326641 0.135299 0.353553
vn 4.517251 1.893635 3.274004
v 0.384089 0.159095 0.277785
vn 5.007675 2.089622 2.248413
v 0.426777 0.176777 0.191342
vn 5.308546 2.206662 1.143945
v 0.453064 0.187665 0.097545
vn 5.411574 2.241547 -0.000004
v 0.461940 0.191342 0.000000
vn 5.314054 2.193365 -1.143938
v 0.453064 0.187665 -0.097545
vn 5.018545 2.063376 -2.248417
v 0.426777 0.176777 -0.191342
vn 4.533177 1.855180 -3.274005
v 0.384089 0.159095 -0.277785
vn 3.872348 1.574998 -4.181851
v 0.326641 0.135299 -0.353553
vn 3.057501 1.231996 -4.934988
v 0.256640 0.106304 -0.415735
vn 2.117734 0.838538 -5.500254
v 0.176777 0.073223 -0.461940
vn 0.825951 0.279725 -2.873329
v 0.090120 0.037329 -0.490393
vn 0.870124 0.057645 2.873330
v 0.097545 -0.000000 0.490393
vn 2.277426 0.035714 5.500253
v 0.191342 -0.000000 0.461940
vn 3.296229 0.031840 4.934988
v 0.277785 -0.000000 0.415735
vn 4.180303 0.026780 4.181855
v 0.353554 -0.000000 0.353553
vn 4.898060 0.020810 3.274000
v 0.415735 -0.000000 0.277785
vn 5.426152 0.014204 2.248418
v 0.461940 -0.000000 0.191342
vn 5.748910 0.007196 1.143940
v 0.490393 -0.000000 0.097545
vn 5.857448 -0.000000 -0.000000
v 0.500000 -0.000000 0.000000
vn 5.748910 -0.007196 -1.143940
v 0.490393 -0.000000 -0.097545
vn 5.426152 -0.014204 -2.248418
v 0.461940 -0.000000 -0.191342
vn 4.898060 -0.020810 -3.274000
v 0.415735 -0.000000 -0.277785
vn 4.180303 -0.026780 -4.181855
v 0.353554 -0.000000 -0.353553
vn 3.296228 -0.031839 -4.934988
v 0.277785 -0.000000 -0.415735
vn 2.277426 -0.035711 -5.500253
v 0.191342 -0.000000 -0.461940
vn 0.870124 -0.057644 -2.873330
v 0.097545 -0.000000 -0.490393
vn 0.825949 -0.279724 2.873330
v 0.090120 -0.037329 0.490393
vn 2.117732 -0.838540 5.500253
v 0.176777 -0.073224 0.461940
vn 3.057502 -1.231999 4.934987
v 0.256640 -0.106304 0.415735
vn 3.872348 -1.574998 4.181851
v 0.326641 -0.135299 0.353553
vn 4.533177 -1.855180 3.274005
v 0.384089 -0.159095 0.277785
vn 5.018545 -2.063376 2.248417
v 0.426777 -0.176777 0.191342
vn 5.314054 -2.193365 1.143937
v 0.453064 -0.187665 0.097545
vn 5.411573 -2.241549 0.000002
v 0.461940 -0.191342 0.000000
vn 5.308545 -2.206663 -1.143942
v 0.453064 -0.187665 -0.097545
vn 5.007675 -2.089622 -2.248413
v 0.426777 -0.176777 -0.191342
vn 4.517251 -1.893635 -3.274004
v 0.384089 -0.159095 -0.277785
vn 3.851848 -1.624477 -4.181856
v 0.326641 -0.135299 -0.353553
vn 3.033138 -1.290830 -4.934984
v 0.256640 -0.106304 -0.415735
vn 2.090397 -0.904526 -5.500254
v 0.176777 -0.073224 -0.461940
vn 0.781829 -0.386241 -2.873329
v 0.090120 -0.037329 -0.490393
vn 0.656032 -0.574513 2.873329
v 0.068975 -0.068975 0.490393
vn 1.635632 -1.585133 5.500255
v 0.135299 -0.135299 0.461940
vn 2.353301 -2.308275 4.934984
v 0.196424 -0.196424 0.415735
vn 2.974859 -2.936990 4.181853
v 0.250000 -0.250000 0.353553
vn 3.478164 -3.448732 3.274009
v 0.293969 -0.293969 0.277785
vn 3.846913 -3.826826 2.248412
v 0.326641 -0.326641 0.191342
vn 4.070182 -4.060007 1.143940
v 0.346760 -0.346760 0.097545
vn 4.141839 -4.141841 0.000001
v 0.353553 -0.353554 0.000000
vn 4.060005 -4.070183 -1.143942
v 0.346760 -0.346760 -0.097545
vn 3.826826 -3.846913 -2.248412
v 0.326641 -0.326641 -0.191342
vn 3.448732 -3.478164 -3.274009
v 0.293969 -0.293969 -0.277785
vn 2.936990 -2.974859 -4.181853
v 0.250000 -0.250000 -0.353553
vn 2.308273 -2.353304 -4.934983
v 0.196424 -0.196424 -0.415735
vn 1.585126 -1.635636 -5.500256
v 0.135299 -0.135299 -0.461940
vn 0.574510 -0.656035 -2.873328
v 0.068975 -0.068975 -0.490393
vn 0.386240 -0.781832 2.873329
v 0.037329 -0.090120 0.490393
vn 0.904523 -2.090398 5.500256
v 0.073223 -0.176777 0.461940
vn 1.290829 -3.033137 4.934985
v 0.106304 -0.256640 0.415735
vn 1.624477 -3.851848 4.181856
v 0.135299 -0.326641 0.353553
vn 1.893635 -4.517251 3.274004
v 0.159095 -0.384089 0.277785
vn 2.089622 -5.007675 2.248413
v 0.176777 -0.426777 0.191342
vn 2.206662 -5.308546 1.143945
v 0.187665 -0.453064 0.097545
vn 2.241547 -5.411574 -0.000004
v 0.191342 -0.461940 0.000000
vn 2.193365 -5.314054 -1.143938
v 0.187665 -0.453064 -0.097545
vn 2.063376 -5.018545 -2.248417
v 0.176777 -0.426777 -0.191342
vn 1.855180 -4.533177 -3.274005
v 0.159095 -0.384089 -0.277785
vn 1.574998 -3.872348 -4.181851
v 0.135299 -0.326641 -0.353553
vn 1.231996 -3.057501 -4.934988
v 0.106304 -0.256640 -0.415735
vn 0.838538 -2.117734 -5.500254
v 0.073223 -0.176777 -0.461940
vn 0.279725 -0.825951 -2.873329
v 0.037329 -0.090120 -0.490393
vn 0.057645 -0.870124 2.873329
v -0.000000 -0.097545 0.490393
vn 0.035712 -2.277426 5.500253
v -0.000000 -0.191342 0.461940
vn 0.031839 -3.296228 4.934988
v -0.000000 -0.277785 0.415735
vn 0.026780 -4.180303 4.181855
v -0.000000 -0.353554 0.353553
vn 0.020810 -4.898060 3.274000
v -0.000000 -0.415735 0.277785
vn 0.014204 -5.426152 2.248418
v -0.000000 -0.461940 0.191342
vn 0.007196 -5.748910 1.143940
v -0.000000 -0.490393 0.097545
vn -0.000000 -5.857448 -0.000000
v -0.000000 -0.500000 0.000000
vn -0.007196 -5.748910 -1.143940
v -0.000000 -0.490393 -0.097545
vn -0.014204 -5.426152 -2.248418
v -0.000000 -0.461940 -0.191342
vn -0.020810 -4.898060 -3.274000
v -0.000000 -0.415735 -0.277785
vn -0.026780 -4.180303 -4.181855
v -0.000000 -0.353554 -0.353553
vn -0.031839 -3.296228 -4.934988
v -0.000000 -0.277785 -0.415735
vn -0.035712 -2.277426 -5.500253
v -0.000000 -0.191342 -0.461940
vn -0.057645 -0.870124 -2.873329
v -0.000000 -0.097545 -0.490393
vn -0.000000 0.000000 -0.058260
v 0.000000 -0.000000 -0.500000
vn -0.279725 -0.825951 2.873329
v -0.037329 -0.090120 0.490393
vn -0.838538 -2.117734 5.500254
v -0.073223 -0.176777 0.461940
vn -1.231996 -3.057501 4.934988
v -0.106304 -0.256640 0.415735
vn -1.574998 -3.872348 4.181851
v -0.135299 -0.326641 0.353553
vn -1.855180 -4.533177 3.274005
v -0.159095 -0.384089 0.277785
vn -2.063376 -5.018545 2.248417
v -0.176777 -0.426777 0.191342
vn -2.193365 -5.314054 1.143937
v -0.187665 -0.453064 0.097545
vn -2.241549 -5.411573 0.000002
v -0.191342 -0.461940 0.000000
vn -2.206663 -5.308545 -1.143942
v -0.187665 -0.453064 -0.097545
vn -2.089622 -5.007675 -2.248413
v -0.176777 -0.426777 -0.191342
vn -1.893635 -4.517251 -3.274004
v -0.159095 -0.384089 -0.277785
vn -1.624477 -3.851848 -4.181856
v -0.135299 -0.326641 -0.353553
vn -1.290829 -3.033137 -4.934985
v -0.106304 -0.256640 -0.415735
vn -0.904523 -2.090398 -5.500256
v -0.073223 -0.176777 -0.461940
vn -0.386240 -0.781832 -2.873329
v -0.037329 -0.090120 -0.490393
vn -0.574512 -0.656035 2.873328
v -0.068975 -0.068975 0.490393
vn -1.585129 -1.635633 5.500256
v -0.135299 -0.135299 0.461940
vn -2.308273 -2.353301 4.934985
v -0.196424 -0.196424 0.415735
vn -2.936990 -2.974859 4.181853
v -0.250000 -0.250000 0.353553
vn -3.448732 -3.478164 3.274009
v -0.293969 -0.293969 0.277785
vn -3.826826 -3.846913 2.248412
v -0.326641 -0.326641 0.191342
vn -4.060007 -4.070182 1.143940
v -0.346760 -0.346760 0.097545
vn -4.141841 -4.141839 0.000001
v -0.353554 -0.353553 0.000000
vn -4.070183 -4.060005 -1.143942
v -0.346760 -0.346760 -0.097545
vn -3.846913 -3.826826 -2.248412
v -0.326641 -0.326641 -0.191342
vn -3.478164 -3.448732 -3.274009
v -0.293969 -0.293969 -0.277785
vn -2.974859 -2.936990 -4.181853
v -0.250000 -0.250000 -0.353553
vn -2.353301 -2.308273 -4.934985
v -0.196424 -0.196424 -0.415735
vn -1.635633 -1.585129 -5.500256
v -0.135299 -0.135299 -0.461940
vn -0.656035 -0.574512 -2.873328
v -0.068975 -0.068975 -0.490393
vn 0.000000 -0.000000 0.058260
v -0.000000 -0.000000 0.500000
vn -0.781832 -0.386240 2.873329
v -0.090120 -0.037329 0.490393
vn -2.090398 -0.904523 5.500256
v -0.176777 -0.073223 0.461940
vn -3.033140 -1.290827 4.934983
v -0.256640 -0.106304 0.415735
vn -3.851852 -1.624470 4.181855
v -0.326641 -0.135299 0.353553
vn -4.517247 -1.893629 3.274010
v -0.384089 -0.159095 0.277785
vn -5.007675 -2.089622 2.248413
v -0.426777 -0.176777 0.191342
vn -5.308546 -2.206662 1.143945
v -0.453064 -0.187665 0.097545
vn -5.411574 -2.241547 -0.000004
v -0.461940 -0.191342 0.000000
vn -5.314054 -2.193365 -1.143938
v -0.453064 -0.187665 -0.097545
vn -5.018545 -2.063376 -2.248417
v -0.426777 -0.176777 -0.191342
vn -4.533175 -1.855177 -3.274008
v -0.384089 -0.159095 -0.277785
vn -3.872347 -1.574990 -4.181856
v -0.326641 -0.135299 -0.353553
vn -3.057507 -1.231992 -4.934984
v -0.256640 -0.106304 -0.415735
vn -2.117734 -0.838538 -5.500254
v -0.176777 -0.073223 -0.461940
vn -0.825951 -0.279725 -2.873329
v -0.090120 -0.037329 -0.490393
vn -0.870124 -0.057645 2.873329
v -0.097545 -0.000000 0.490393
vn -2.277426 -0.035712 5.500253
v -0.191342 -0.000000 0.461940
vn -3.296237 -0.031837 4.934982
v -0.277785 -0.000000 0.415735
vn -4.180306 -0.026779 4.181858
v -0.353553 -0.000000 0.353553
vn -4.898054 -0.020813 3.274009
v -0.415735 0.000000 0.277785
vn -5.426152 -0.014204 2.248418
v -0.461940 0.000000 0.191342
vn -5.748910 -0.007196 1.143940
v -0.490393 -0.000000 0.097545
vn -5.857448 0.000000 -0.000000
v -0.500000 0.000000 0.000000
vn -5.748910 0.007196 -1.143940
v -0.490393 -0.000000 -0.097545
vn -5.426152 0.014204 -2.248418
v -0.461940 0.000000 -0.191342
vn -4.898054 0.020813 -3.274009
v -0.415735 0.000000 -0.277785
vn -4.180306 0.026779 -4.181858
v -0.353553 -0.000000 -0.353553
vn -3.296237 0.031837 -4.934982
v -0.277785 -0.000000 -0.415735
vn -2.277426 0.035712 -5.500253
v -0.191342 -0.000000 -0.461940
vn -0.870124 0.057645 -2.873329
v -0.097545 -0.000000 -0.490393
vn -0.825951 0.279725 2.873329
v -0.090120 0.037329 0.490393
vn -2.117734 0.838538 5.500254
v -0.176777 0.073223 0.461940
vn -3.057507 1.231992 4.934984
v -0.256640 0.106304 0.415735
vn -3.872347 1.574990 4.181856
v -0.326641 0.135299 0.353553
vn -4.533175 1.855177 3.274008
v -0.384089 0.159095 0.277785
vn -5.018545 2.063376 2.248417
v -0.426777 0.176777 0.191342
vn -5.314054 2.193367 1.143934
v -0.453064 0.187665 0.097545
vn -5.411572 2.241553 -0.000000
v -0.461940 0.191342 0.000000
vn -5.308544 2.206666 -1.143936
v -0.453064 0.187665 -0.097545
vn -5.007675 2.089622 -2.248413
v -0.426777 0.176777 -0.191342
vn -4.517247 1.893629 -3.274010
v -0.384089 0.159095 -0.277785
vn -3.851852 1.624470 -4.181855
v -0.326641 0.135299 -0.353553
vn -3.033140 1.290827 -4.934983
v -0.256640 0.106304 -0.415735
vn -2.090398 0.904523 -5.500256
v -0.176777 0.073223 -0.461940
vn -0.781832 0.386240 -2.873329
v -0.090120 0.037329 -0.490393
vn -0.656035 0.574512 2.873328
v -0.068975 0.068975 0.490393
vn -1.635633 1.585129 5.500256
v -0.135299 0.135299 0.461940
vn -2.353301 2.308273 4.934985
v -0.196424 0.196424 0.415735
vn -2.974859 2.936990 4.181853
v -0.250000 0.250000 0.353553
vn -3.478163 3.448734 3.274006
v -0.293969 0.293969 0.277785
vn -3.846911 3.826830 2.248410
v -0.326641 0.326641 0.191342
vn -4.070180 4.060009 1.143936
v -0.346760 0.346760 0.097545
vn -4.141843 4.141843 -0.000000
v -0.353553 0.353553 0.000000
vn -4.060007 4.070183 -1.143933
v -0.346760 0.346760 -0.097545
vn -3.826822 3.846915 -2.248415
v -0.326641 0.326641 -0.191342
vn -3.448731 3.478167 -3.274004
v -0.293969 0.293969 -0.277785
vn -2.936990 2.974859 -4.181853
v -0.250000 0.250000 -0.353553
vn -2.308273 2.353301 -4.934985
v -0.196424 0.196424 -0.415735
vn -1.585129 1.635633 -5.500256
v -0.135299 0.135299 -0.461940
vn -0.574512 0.656035 -2.873328
v -0.068975 0.068975 -0.490393
vn -0.386240 0.781832 2.873329
v -0.037329 0.090120 0.490393
vn -0.904523 2.090398 5.500256
v -0.073223 0.176777 0.461940
vn -1.290827 3.033140 4.934983
v -0.106304 0.256640 0.415735
vn -1.624470 3.851852 4.181855
v -0.135299 0.326641 0.353553
vn -1.893628 4.517251 3.274005
v -0.159095 0.384089 0.277785
vn -2.089620 5.007678 2.248416
v -0.176776 0.426777 0.191342
vn -2.206665 5.308543 1.143941
v -0.187665 0.453064 0.097545
vn -2.241553 5.411572 0.000000
v -0.191342 0.461940 0.000000
vn -2.193364 5.314054 -1.143940
v -0.187665 0.453064 -0.097545
vn -2.063375 5.018548 -2.248416
v -0.176776 0.426777 -0.191342
vn -1.855177 4.533178 -3.274004
v -0.159095 0.384089 -0.277785
vn -1.574990 3.872347 -4.181856
v -0.135299 0.326641 -0.353553
vn -1.231992 3.057507 -4.934984
v -0.106304 0.256640 -0.415735
vn -0.838538 2.117734 -5.500254
v -0.073223 0.176777 -0.461940
vn -0.279725 0.825951 -2.873329
v -0.037329 0.090120 -0.490393
vn -0.035712 2.277426 5.500253
v 0.000000 0.191342 0.461940
vn -0.031837 3.296237 4.934982
v 0.000000 0.277785 0.415735
# 242 vertices, 0 vertices normals

f 1//1 165//165 14//14
f 134//134 13//13 28//28
f 6//6 21//21 22//22 7//7
f 1//1 14//14 15//15 241//241
f 7//7 22//22 23//23 8//8
f 241//241 15//15 16//16 242//242
f 8//8 23//23 24//24 9//9
f 242//242 16//16 17//17 2//2
f 9//9 24//24 25//25 10//10
f 2//2 17//17 18//18 3//3
f 10//10 25//25 26//26 11//11
f 3//3 18//18 19//19 4//4
f 11//11 26//26 27//27 12//12
f 4//4 19//19 20//20 5//5
f 12//12 27//27 28//28 13//13
f 5//5 20//20 21//21 6//6
f 19//19 34//34 35//35 20//20
f 27//27 42//42 43//43 28//28
f 20//20 35//35 36//36 21//21
f 14//14 165//165 29//29
f 134//134 28//28 43//43
f 21//21 36//36 37//37 22//22
f 14//14 29//29 30//30 15//15
f 22//22 37//37 38//38 23//23
f 15//15 30//30 31//31 16//16
f 23//23 38//38 39//39 24//24
f 16//16 31//31 32//32 17//17
f 24//24 39//39 40//40 25//25
f 17//17 32//32 33//33 18//18
f 25//25 40//40 41//41 26//26
f 18//18 33//33 34//34 19//19
f 26//26 41//41 42//42 27//27
f 38//38 53//53 54//54 39//39
f 31//31 46//46 47//47 32//32
f 39//39 54//54 55//55 40//40
f 32//32 47//47 48//48 33//33
f 40//40 55//55 56//56 41//41
f 33//33 48//48 49//49 34//34
f 41//41 56//56 57//57 42//42
f 34//34 49//49 50//50 35//35
f 42//42 57//57 58//58 43//43
f 35//35 50//50 51//51 36//36
f 29//29 165//165 44//44
f 134//134 43//43 58//58
f 36//36 51//51 52//52 37//37
f 29//29 44//44 45//45 30//30
f 37//37 52//52 53//53 38//38
f 30//30 45//45 46//46 31//31
f 57//57 72//72 73//73 58//58
f 50//50 65//65 66//66 51//51
f 44//44 165//165 59//59
f 134//134 58//58 73//73
f 51//51 66//66 67//67 52//52
f 44//44 59//59 60//60 45//45
f 52//52 67//67 68//68 53//53
f 45//45 60//60 61//61 46//46
f 53//53 68//68 69//69 54//54
f 46//46 61//61 62//62 47//47
f 54//54 69//69 70//70 55//55
f 47//47 62//62 63//63 48//48
f 55//55 70//70 71//71 56//56
f 48//48 63//63 64//64 49//49
f 56//56 71//71 72//72 57//57
f 49//49 64//64 65//65 50//50
f 69//69 84//84 85//85 70//70
f 62//62 77//77 78//78 63//63
f 70//70 85//85 86//86 71//71
f 63//63 78//78 79//79 64//64
f 71//71 86//86 87//87 72//72
f 64//64 79//79 80//80 65//65
f 72//72 87//87 88//88 73//73
f 65//65 80//80 81//81 66//66
f 59//59 165//165 74//74
f 134//134 73//73 88//88
f 66//66 81//81 82//82 67//67
f 59//59 74//74 75//75 60//60
f 67//67 82//82 83//83 68//68
f 60//60 75//75 76//76 61//61
f 68//68 83//83 84//84 69//69
f 61//61 76//76 77//77 62//62
f 74//74 165//165 89//89
f 134//134 88//88 103//103
f 81//81 96//96 97//97 82//82
f 74//74 89//89 90//90 75//75
f 82//82 97//97 98//98 83//83
f 75//75 90//90 91//91 76//76
f 83//83 98//98 99//99 84//84
f 76//76 91//91 92//92 77//77
f 84//84 99//99 100//100 85//85
f 77//77 92//92 93//93 78//78
f 85//85 100//100 101//101 86//86
f 78//78 93//93 94//94 79//79
f 86//86 101//101 102//102 87//87
f 79//79 94//94 95//95 80//80
f 87//87 102//102 103//103 88//88
f 80//80 95//95 96//96 81//81
f 92//92 107//107 108//108 93//93
f 100//100 115//115 116//116 101//101
f 93//93 108//108 109//109 94//94
f 101//101 116//116 117//117 102//102
f 94//94 109//109 110//110 95//95
f 102//102 117//117 118//118 103//103
f 95//95 110//110 111//111 96//96
f 89//89 165//165 104//104
f 134//134 103//103 118//118
f 96//96 111//111 112//112 97//97
f 89//89 104//104 105//105 90//90
f 97//97 112//112 113//113 98//98
f 90//90 105//105 106//106 91//91
f 98//98 113//113 114//114 99//99
f 91//91 106//106 107//107 92//92
f 99//99 114//114 115//115 100//100
f 111//111 126//126 127//127 112//112
f 104//104 119//119 120//120 105//105
f 112//112 127//127 128//128 113//113
f 105//105 120//120 121//121 106//106
f 113//113 128//128 129//129 114//114
f 106//106 121//121 122//122 107//107
f 114//114 129//129 130//130 115//115
f 107//107 122//122 123//123 108//108
f 115//115 130//130 131//131 116//116
f 108//108 123//123 124//124 109//109
f 116//116 131//131 132//132 117//117
f 109//109 124//124 125//125 110//110
f 117//117 132//132 133//133 118//118
f 110//110 125//125 126//126 111//111
f 104//104 165//165 119//119
f 134//134 118//118 133//133
f 130//130 146//146 147//147 131//131
f 123//123 139//139 140//140 124//124
f 131//131 147//147 148//148 132//132
f 124//124 140//140 141//141 125//125
f 132//132 148//148 149//149 133//133
f 125//125 141//141 142//142 126//126
f 119//119 165//165 135//135
f 134//134 133//133 149//149
f 126//126 142//142 143//143 127//127
f 119//119 135//135 136//136 120//120
f 127//127 143//143 144//144 128//128
f 120//120 136//136 137//137 121//121
f 128//128 144//144 145//145 129//129
f 121//121 137//137 138//138 122//122
f 129//129 145//145 146//146 130//130
f 122//122 138//138 139//139 123//123
f 135//135 150//150 151//151 136//136
f 143//143 158//158 159//159 144//144
f 136//136 151//151 152//152 137//137
f 144//144 159//159 160//160 145//145
f 137//137 152//152 153//153 138//138
f 145//145 160//160 161//161 146//146
f 138//138 153//153 154//154 139//139
f 146//146 161//161 162//162 147//147
f 139//139 154//154 155//155 140//140
f 147//147 162//162 163//163 148//148
f 140//140 155//155 156//156 141//141
f 148//148 163//163 164//164 149//149
f 141//141 156//156 157//157 142//142
f 135//135 165//165 150//150
f 134//134 149//149 164//164
f 142//142 157//157 158//158 143//143
f 154//154 170//170 171//171 155//155
f 162//162 178//178 179//179 163//163
f 155//155 171//171 172//172 156//156
f 163//163 179//179 180//180 164//164
f 156//156 172//172 173//173 157//157
f 150//150 165//165 166//166
f 134//134 164//164 180//180
f 157//157 173//173 174//174 158//158
f 150//150 166//166 167//167 151//151
f 158//158 174//174 175//175 159//159
f 151//151 167//167 168//168 152//152
f 159//159 175//175 176//176 160//160
f 152//152 168//168 169//169 153//153
f 160//160 176//176 177//177 161//161
f 153//153 169//169 170//170 154//154
f 161//161 177//177 178//178 162//162
f 174//174 189//189 190//190 175//175
f 167//167 182//182 183//183 168//168
f 175//175 190//190 191//191 176//176
f 168//168 183//183 184//184 169//169
f 176//176 191//191 192//192 177//177
f 169//169 184//184 185//185 170//170
f 177//177 192//192 193//193 178//178
f 170//170 185//185 186//186 171//171
f 178//178 193//193 194//194 179//179
f 171//171 186//186 187//187 172//172
f 179//179 194//194 195//195 180//180
f 172//172 187//187 188//188 173//173
f 166//166 165//165 181//181
f 134//134 180//180 195//195
f 173//173 188//188 189//189 174//174
f 166//166 181//181 182//182 167//167
f 193//193 208//208 209//209 194//194
f 186//186 201//201 202//202 187//187
f 194//194 209//209 210//210 195//195
f 187//187 202//202 203//203 188//188
f 181//181 165//165 196//196
f 134//134 195//195 210//210
f 188//188 203//203 204//204 189//189
f 181//181 196//196 197//197 182//182
f 189//189 204//204 205//205 190//190
f 182//182 197//197 198//198 183//183
f 190//190 205//205 206//206 191//191
f 183//183 198//198 199//199 184//184
f 191//191 206//206 207//207 192//192
f 184//184 199//199 200//200 185//185
f 192//192 207//207 208//208 193//193
f 185//185 200//200 201//201 186//186
f 205//205 220//220 221//221 206//206
f 198//198 213//213 214//214 199//199
f 206//206 221//221 222//222 207//207
f 199//199 214//214 215//215 200//200
f 207//207 222//222 223//223 208//208
f 200//200 215//215 216//216 201//201
f 208//208 223//223 224//224 209//209
f 201//201 216//216 217//217 202//202
f 209//209 224//224 225//225 210//210
f 202//202 217//217 218//218 203//203
f 196//196 165//165 211//211
f 134//134 210//210 225//225
f 203//203 218//218 219//219 204//204
f 196//196 211//211 212//212 197//197
f 204//204 219//219 220//220 205//205
f 197//197 212//212 213//213 198//198
f 224//224 239//239 240//240 225//225
f 217//217 232//232 233//233 218//218
f 211//211 165//165 226//226
f 134//134 225//225 240//240
f 218//218 233//233 234//234 219//219
f 211//211 226//226 227//227 212//212
f 219//219 234//234 235//235 220//220
f 212//212 227//227 228//228 213//213
f 220//220 235//235 236//236 221//221
f 213//213 228//228 229//229 214//214
f 221//221 236//236 237//237 222//222
f 214//214 229//229 230//230 215//215
f 222//222 237//237 238//238 223//223
f 215//215 230//230 231//231 216//216
f 223//223 238//238 239//239 224//224
f 216//216 231//231 232//232 217//217
f 228//228 242//242 2//2 229//229
f 236//236 9//9 10//10 237//237
f 229//229 2//2 3//3 230//230
f 237//237 10//10 11//11 238//238
f 230//230 3//3 4//4 231//231
f 238//238 11//11 12//12 239//239
f 231//231 4//4 5//5 232//232
f 239//239 12//12 13//13 240//240
f 232//232 5//5 6//6 233//233
f 226//226 165//165 1//1
f 134//134 240//240 13//13
f 233//233 6//6 7//7 234//234
f 226//226 1//1 241//241 227//227
f 234//234 7//7 8//8 235//235
f 227//227 241//241 242//242 228//228
f 235//235 8//8 9//9 236//236
# 256 faces, 0 coords texture

# End of File
