####
#
# OBJ File Generated by Meshlab
#
####
# Object turbine blade.obj
#
# Vertices: 186
# Faces: 184
#
####
vn -2.111352 -0.578748 -1.906538
v -39.744404 0.597584 -0.027233
vn -1.289583 -0.560739 3.944022
v -39.744404 0.598955 -0.023913
vn -1.396204 2.665371 -2.638141
v -39.744404 0.769154 -0.032546
vn -2.183411 1.538760 1.029593
v -39.744404 0.772237 -0.025075
vn 1.847259 -2.765182 -2.885157
v -0.006792 -0.266602 0.165016
vn 2.264626 0.828851 2.036469
v -0.006792 -0.248190 0.192800
vn 2.253070 0.156026 -2.153858
v -0.006790 0.237481 -0.168326
vn 1.960865 3.650901 1.276279
v -0.006792 0.255893 -0.140543
vn 0.066349 0.156372 -5.971533
v -3.181314 0.801712 -0.202847
vn -0.076808 0.650821 -5.951486
v -8.540606 0.902411 -0.085689
vn -0.001425 1.230854 -5.844845
v -19.472443 0.918819 -0.063469
vn -0.000513 2.353424 5.482780
v -19.472443 0.921890 -0.030264
vn 0.052047 1.865464 5.688459
v -8.540606 0.906904 -0.052661
vn 0.507030 3.437025 4.851361
v -3.181314 0.812164 -0.171438
vn -0.034259 -0.940976 -5.924612
v -19.472443 -0.722716 0.071750
vn 0.053194 -0.877291 -5.933851
v -8.540606 -1.450813 0.134040
vn 0.185954 -2.154365 -5.593387
v -3.181314 -0.632438 0.228639
vn -0.074975 1.351192 5.844000
v -3.181314 -0.621986 0.260048
vn -0.086764 0.342374 5.988510
v -8.540606 -1.446320 0.167069
vn -0.020365 0.084768 5.998683
v -19.472443 -0.719645 0.104955
vn -0.005669 3.110706 -4.878051
v -35.308479 0.873772 -0.067954
vn -0.048352 -0.382261 5.981865
v -35.308475 0.206930 0.032570
vn -0.005278 4.247068 3.843942
v -35.308479 0.878156 -0.018147
vn -0.057666 -1.556227 -5.787432
v -35.308479 0.204008 -0.000635
vn -3.200456 -0.395175 -2.959428
v -39.744404 0.715287 -0.033068
vn -3.201413 0.161642 2.981431
v -39.744404 0.719626 -0.022553
vn 3.445544 -1.632785 -2.766624
v -0.004528 0.062823 -0.085968
vn 3.624404 1.725514 2.673097
v -0.004526 0.111921 -0.011879
vn 0.138552 1.844215 5.695822
v -3.181314 0.394965 0.005913
vn 0.020293 0.656903 5.959238
v -8.540606 0.203358 0.063203
vn 0.002039 0.543192 5.969763
v -19.472443 0.431024 0.060357
vn -0.004132 -0.411961 -5.980034
v -19.472443 0.418740 -0.072463
vn -0.009182 -0.561701 -5.968977
v -8.540606 0.185387 -0.068909
vn -0.100697 -1.703375 -5.741441
v -3.181314 0.353158 -0.119723
vn 0.000727 -0.519855 -5.957827
v -35.308479 0.667496 -0.094414
vn -0.001516 0.484036 5.956225
v -35.308475 0.679674 0.043940
vn 0.787075 4.777112 3.394635
v -0.649935 0.374636 -0.151925
vn 0.239089 -3.227061 -5.032796
v -0.649937 -0.379887 0.202519
vn 0.108247 0.233737 -5.939574
v -0.649937 0.357843 -0.180447
vn -0.101878 2.036041 5.637002
v -0.649937 -0.363094 0.231040
vn 0.245332 2.791116 5.260725
v -0.649937 0.177154 0.006449
vn -0.163034 -2.578783 -5.375648
v -0.649937 0.109980 -0.107637
vn -0.195643 0.271996 -5.972901
v -4.464113 0.908773 -0.182572
vn 0.179909 2.633456 5.362987
v -4.464113 0.916750 -0.150254
vn 0.514212 -1.523713 -5.775573
v -4.464112 -0.886937 0.215445
vn -0.373394 0.939666 5.911456
v -4.464111 -0.878960 0.247762
vn 0.031485 -1.191492 -5.869780
v -4.464112 0.354799 -0.110913
vn -0.018043 1.304462 5.846162
v -4.464111 0.386708 0.018358
vn -3.158534 -0.633932 -2.927184
v -39.744404 0.650122 -0.029939
vn -3.207838 -0.897911 -0.889330
v -39.744404 0.590505 -0.025427
vn -3.230340 1.236006 2.632732
v -39.744404 0.758846 -0.023156
vn -3.309344 2.845394 -0.003284
v -39.744404 0.772675 -0.028848
vn -0.201367 3.941078 -4.101912
v -38.816467 0.857744 -0.079731
vn 1.064955 5.254433 2.384818
v -0.092293 0.277419 -0.146332
vn 3.637644 1.868136 -1.802521
v -0.005304 0.252954 -0.158555
vn 3.282118 -0.896988 -3.118516
v -0.004915 0.187277 -0.154361
vn 3.362907 1.504394 2.889451
v -0.004917 -0.090994 0.108385
vn 3.639508 -0.235227 1.179421
v -0.005302 -0.287575 0.199110
vn 0.624994 -3.814183 -4.539452
v -0.092293 -0.314877 0.191293
vn -0.188841 -0.723981 5.944369
v -38.816467 0.407487 0.015033
vn 0.088374 0.185899 -5.960637
v -1.910690 0.579796 -0.191817
vn -0.169724 0.451029 -5.966102
v -5.864067 0.902486 -0.133673
vn -0.015881 0.872917 -5.921246
v -12.925353 0.914055 -0.065882
vn -0.005021 3.229891 4.920241
v -27.943611 0.903275 -0.027665
vn 0.013003 1.930752 5.663777
v -12.925353 0.917525 -0.032699
vn 0.293263 3.069351 5.118515
v -3.838665 0.907158 -0.171897
vn -0.038450 -1.182184 -5.879432
v -27.943611 -0.197727 0.033578
vn -0.023806 -0.829220 -5.942023
v -12.925353 -1.224594 0.101922
vn 0.466592 -1.875152 -5.674484
v -3.838665 -0.713189 0.231466
vn -0.080425 1.644588 5.765992
v -1.910688 -0.492497 0.245681
vn -0.247462 0.620739 5.959537
v -5.864067 -1.231876 0.209907
vn -0.025744 0.184264 5.996665
v -12.925352 -1.221123 0.135105
vn 0.000599 1.485176 5.810769
v -3.181314 -0.129806 0.144362
vn -0.025502 0.418624 5.983958
v -8.540606 -0.650594 0.124126
vn -0.008383 0.215339 5.995403
v -19.472443 -0.164631 0.090603
vn -0.017839 -0.758892 -5.951252
v -19.472443 -0.173459 -0.004861
vn 0.041863 -0.800303 -5.944664
v -8.540606 -0.663511 0.029170
vn 0.023342 -2.052966 -5.633588
v -3.181314 -0.159855 0.054061
vn 0.061421 -0.564798 0.178924
v -3.181313 -0.805822 0.298081
vn 0.029382 -0.383710 0.039980
v -8.540606 -1.741640 0.177920
vn -0.037297 -0.496554 0.038814
v -19.472443 -0.925620 0.105193
vn -0.003742 2.295106 -0.145004
v -19.472443 0.962146 -0.050309
vn 0.012953 1.690102 -0.177463
v -8.540607 0.964568 -0.074769
vn 0.393262 2.363897 -0.794124
v -3.181313 0.843450 -0.198128
vn -0.004057 1.960272 -5.579344
v -27.943613 0.900151 -0.062946
vn -0.030214 -0.073223 5.997362
v -27.943611 -0.194785 0.066783
vn -0.368454 4.604737 3.201378
v -38.816467 0.864432 -0.003751
vn -0.244729 -1.722854 -5.729968
v -38.816467 0.404544 -0.018403
vn -0.019263 4.803960 -0.105680
v -35.308479 0.893034 -0.044553
vn -0.023987 -1.173274 -5.881498
v -35.308475 0.426760 -0.051961
vn -0.025230 -0.140710 5.993337
v -35.308475 0.435224 0.044195
vn -0.069207 -1.144024 0.083833
v -35.308475 0.121965 0.023318
vn -3.241307 0.368212 -2.890393
v -39.744404 0.754398 -0.033936
vn -3.198255 -0.178338 2.987524
v -39.744404 0.652900 -0.023206
vn 3.470029 -2.001074 -2.580207
v -0.004917 -0.127178 0.053783
vn 3.666641 2.312010 2.233619
v -0.004915 0.223462 -0.099759
vn 0.328661 2.599354 5.358427
v -3.181314 0.694830 -0.103742
vn 0.050778 1.183706 5.868796
v -8.540606 0.702510 -0.002218
vn 0.005762 1.270617 5.845278
v -19.472443 0.779252 0.012852
vn 0.001523 0.345836 -5.965702
v -19.472443 0.770424 -0.082612
vn -0.046310 -0.032669 -5.987140
v -8.540606 0.689593 -0.097174
vn -0.085608 -0.915549 -5.903299
v -3.181314 0.664781 -0.194043
vn 0.009980 1.131062 -5.762610
v -35.308475 0.811655 -0.093160
vn 0.009575 1.971907 5.561705
v -35.308479 0.821398 0.017523
vn -0.000298 0.558713 5.962101
v -27.943611 0.576221 0.050271
vn -0.214724 -0.651133 -5.935371
v -38.832329 0.716932 -0.100856
vn 0.009138 -0.836647 -5.932809
v -5.864067 0.246937 -0.088842
vn -0.007884 -0.439225 -5.980112
v -12.925353 0.263330 -0.065007
vn -0.001148 -0.419172 -5.973708
v -27.943611 0.564395 -0.083240
vn 0.009181 0.543952 5.971615
v -12.925352 0.277212 0.067725
vn 0.035637 1.598623 5.773337
v -3.838665 0.434178 0.007632
vn 0.791727 3.164476 4.968277
v -0.091997 0.128636 0.004298
vn -0.199005 0.317887 5.958401
v -38.832329 0.729475 0.041648
vn -0.137963 -2.064626 -5.608997
v -1.910690 0.231591 -0.113759
vn 5.977625 0.008133 -0.002351
v -0.001129 0.087682 -0.048914
vn -6.000000 0.000000 0.000000
v -39.744404 0.719146 -0.027843
vn 0.647977 4.014555 4.325523
v -1.910688 0.593420 -0.161851
vn 0.172175 -2.574596 -5.405261
v -1.910690 -0.506121 0.215714
vn 0.577019 0.404484 -5.779750
v -0.092293 0.259094 -0.174406
vn 0.519198 2.198650 5.521041
v -0.092293 -0.296552 0.219367
vn 0.189458 2.237140 5.538035
v -1.910688 0.286090 0.006106
vn 0.388225 -2.968661 -5.132979
v -0.091999 0.058917 -0.102597
vn -0.124825 -1.368914 -5.771072
v -0.649937 0.276701 -0.173237
vn 0.531460 3.833975 4.441671
v -0.649937 0.324983 -0.091238
vn 0.124772 -0.910160 0.478066
v -0.649937 -0.463368 0.264475
vn 0.029480 2.238961 5.555399
v -0.649937 -0.099212 0.128968
vn 0.019936 -3.111832 -5.107696
v -0.649937 -0.147493 0.046968
vn 0.587116 3.185903 -1.813051
v -0.649937 0.385021 -0.175936
vn -0.040546 0.172113 -5.975354
v -3.838665 0.898224 -0.203964
vn 0.118943 2.144297 5.582375
v -5.864067 0.908770 -0.100999
vn 0.264324 -1.130680 -5.881076
v -5.864066 -1.238160 0.177233
vn -0.204005 1.167530 5.878835
v -3.838665 -0.704255 0.263533
vn -0.031907 -1.473786 -5.807312
v -3.838665 0.398442 -0.120637
vn 0.012217 0.937149 5.917882
v -5.864067 0.272075 0.041854
vn 0.115100 1.921383 5.656782
v -4.464112 0.765045 -0.084673
vn -0.139467 -0.564569 -5.952248
v -4.464111 0.742111 -0.177587
vn 0.006784 1.984306 -0.444581
v -4.464112 0.958478 -0.176546
vn 0.134742 -0.473350 0.114337
v -4.464110 -1.106588 0.281173
vn 0.292528 -1.468888 -5.803278
v -4.464111 -0.290423 0.051273
vn -0.200994 1.018062 5.905385
v -4.464112 -0.267488 0.144186
vn -6.000000 0.000000 0.000000
v -39.744404 0.757014 -0.028554
vn 1.000871 3.560516 -2.452223
v -0.092144 0.282541 -0.169461
vn 5.969840 -0.040527 0.062841
v -0.001656 -0.111489 0.083063
vn -0.267885 -1.521025 0.115103
v -38.824394 0.351230 0.003137
vn 0.450589 -3.540644 -4.792316
v -0.092072 -0.141008 0.045877
vn -0.208320 -0.341207 5.981549
v -38.828362 0.561546 0.031885
vn 0.023411 1.791823 5.719643
v -1.910688 -0.114472 0.136699
vn -0.104201 0.682725 5.956391
v -5.864067 -0.505971 0.135964
vn -0.005964 0.285774 5.992651
v -12.925352 -0.498528 0.109773
vn -0.017136 -0.912958 -5.928833
v -27.943611 0.168818 -0.029712
vn -0.010535 -0.705677 -5.958039
v -12.925352 -0.508506 0.014372
vn 0.175978 -1.783517 -5.721634
v -3.838665 -0.179561 0.054945
vn 0.089194 -0.723146 0.288909
v -1.910688 -0.634551 0.281452
vn 0.114917 -0.429888 0.072442
v -5.864066 -1.501617 0.232290
vn -0.022069 -0.393831 0.031971
v -12.925352 -1.489209 0.139412
vn -0.011531 3.383402 -0.122471
v -27.943611 0.929666 -0.047736
vn 0.005207 1.817140 -0.139715
v -12.925352 0.970237 -0.053562
vn 0.175289 2.139838 -0.593702
v -3.838665 0.943715 -0.199016
vn -0.324784 5.533175 -0.464762
v -38.824398 0.872370 -0.042734
vn -0.191824 -1.281792 -5.853642
v -38.828362 0.553290 -0.061908
vn -0.014806 0.097535 5.997100
v -27.943613 0.177281 0.065839
vn -0.045963 -0.732768 0.056644
v -27.943611 -0.332999 0.062072
vn 0.004614 1.590600 5.744163
v -27.943613 0.808693 0.011842
vn -0.252103 1.243420 -5.692257
v -38.828362 0.815259 -0.104704
vn -0.122919 -0.774324 -5.927775
v -3.838665 0.747002 -0.195428
vn -0.008487 0.146541 -5.984211
v -12.925352 0.721217 -0.082115
vn 0.003759 0.685741 -5.904221
v -27.943611 0.800070 -0.085524
vn 0.017624 1.117528 5.883161
v -12.925352 0.731195 0.013285
vn 0.092083 1.493022 5.789680
v -5.864067 0.724900 -0.042806
vn 0.425971 3.137947 5.012186
v -1.910688 0.509930 -0.097631
vn -0.209004 2.103760 5.416000
v -38.828362 0.826963 0.028260
vn 0.314059 -1.679317 -5.648961
v -0.092072 0.192686 -0.166844
vn 5.964706 0.176366 -0.139800
v -0.001656 0.206094 -0.127446
vn -6.000000 0.000000 0.000000
v -39.744404 0.654492 -0.026628
vn -0.102229 -1.103389 -5.854988
v -1.910690 0.470759 -0.183784
vn 0.916955 4.211023 4.045102
v -0.092072 0.243020 -0.089676
vn 0.774093 -1.109254 0.780869
v -0.092146 -0.375546 0.249812
vn 0.483948 2.624497 5.339348
v -0.092072 -0.090674 0.123046
vn 0.003069 -2.491018 -5.445106
v -1.910690 -0.153643 0.050547
vn 0.501635 2.763574 -1.212508
v -1.910690 0.614254 -0.187209
vn 0.205117 2.273197 5.521347
v -3.838665 0.772687 -0.103235
vn -0.105623 -0.280825 -5.976502
v -5.864067 0.706833 -0.136744
vn 0.006391 1.797237 -0.287637
v -5.864065 0.960126 -0.125251
vn 0.033188 -0.497251 0.135786
v -3.838667 -0.909410 0.301728
vn 0.174666 -1.084836 -5.892518
v -5.864066 -0.524039 0.042026
vn -0.136501 1.282186 5.855948
v -3.838665 -0.153876 0.147137
# 186 vertices, 0 vertices normals

f 116//116 141//141 93//93 25//25
f 26//26 51//51 141//141 116//116
f 51//51 4//4 52//52 141//141
f 141//141 52//52 3//3 93//93
f 128//128 142//142 119//119 39//39
f 37//37 54//54 142//142 128//128
f 54//54 8//8 55//55 142//142
f 142//142 55//55 7//7 119//119
f 115//115 143//143 95//95 27//27
f 28//28 57//57 143//143 115//115
f 57//57 6//6 58//58 143//143
f 143//143 58//58 5//5 95//95
f 92//92 144//144 88//88 24//24
f 22//22 60//60 144//144 92//92
f 60//60 2//2 50//50 144//144
f 144//144 50//50 1//1 88//88
f 122//122 145//145 127//127 42//42
f 27//27 95//95 145//145 122//122
f 95//95 5//5 59//59 145//145
f 145//145 59//59 38//38 127//127
f 113//113 146//146 91//91 36//36
f 26//26 94//94 146//146 113//113
f 94//94 2//2 60//60 146//146
f 146//146 60//60 22//22 91//91
f 121//121 147//147 126//126 41//41
f 29//29 73//73 147//147 121//121
f 73//73 18//18 70//70 147//147
f 147//147 70//70 40//40 126//126
f 134//134 148//148 140//140 48//48
f 30//30 74//74 148//148 134//134
f 74//74 19//19 71//71 148//148
f 148//148 71//71 46//46 140//140
f 110//110 149//149 74//74 30//30
f 31//31 75//75 149//149 110//110
f 75//75 20//20 72//72 149//149
f 149//149 72//72 19//19 74//74
f 109//109 150//150 90//90 35//35
f 32//32 76//76 150//150 109//109
f 76//76 15//15 67//67 150//150
f 150//150 67//67 24//24 90//90
f 108//108 151//151 76//76 32//32
f 33//33 77//77 151//151 108//108
f 77//77 16//16 68//68 151//151
f 151//151 68//68 15//15 76//76
f 133//133 152//152 139//139 47//47
f 34//34 78//78 152//152 133//133
f 78//78 17//17 69//69 152//152
f 152//152 69//69 45//45 139//139
f 125//125 153//153 118//118 38//38
f 40//40 70//70 153//153 125//125
f 70//70 18//18 79//79 153//153
f 153//153 79//79 17//17 118//118
f 138//138 154//154 131//131 45//45
f 46//46 71//71 154//154 138//138
f 71//71 19//19 80//80 154//154
f 154//154 80//80 16//16 131//131
f 80//80 155//155 68//68 16//16
f 19//19 72//72 155//155 80//80
f 72//72 20//20 81//81 155//155
f 155//155 81//81 15//15 68//68
f 89//89 156//156 85//85 21//21
f 23//23 64//64 156//156 89//89
f 64//64 12//12 82//82 156//156
f 156//156 82//82 11//11 85//85
f 82//82 157//157 63//63 11//11
f 12//12 65//65 157//157 82//82
f 65//65 13//13 83//83 157//157
f 157//157 83//83 10//10 63//63
f 137//137 158//158 129//129 43//43
f 44//44 66//66 158//158 137//137
f 66//66 14//14 84//84 158//158
f 158//158 84//84 9//9 129//129
f 52//52 159//159 53//53 3//3
f 4//4 87//87 159//159 52//52
f 87//87 23//23 89//89 159//159
f 159//159 89//89 21//21 53//53
f 106//106 160//160 49//49 25//25
f 35//35 90//90 160//160 106//106
f 90//90 24//24 88//88 160//160
f 160//160 88//88 1//1 49//49
f 105//105 161//161 75//75 31//31
f 36//36 91//91 161//161 105//105
f 91//91 22//22 86//86 161//161
f 161//161 86//86 20//20 75//75
f 81//81 162//162 67//67 15//15
f 20//20 86//86 162//162 81//81
f 86//86 22//22 92//92 162//162
f 162//162 92//92 24//24 67//67
f 64//64 163//163 99//99 12//12
f 23//23 104//104 163//163 64//64
f 104//104 36//36 105//105 163//163
f 163//163 105//105 31//31 99//99
f 53//53 164//164 93//93 3//3
f 21//21 103//103 164//164 53//53
f 103//103 35//35 106//106 164//164
f 164//164 106//106 25//25 93//93
f 129//129 165//165 136//136 43//43
f 9//9 102//102 165//165 129//129
f 102//102 34//34 133//133 165//165
f 165//165 133//133 47//47 136//136
f 63//63 166//166 100//100 11//11
f 10//10 101//101 166//166 63//63
f 101//101 33//33 108//108 166//166
f 166//166 108//108 32//32 100//100
f 85//85 167//167 103//103 21//21
f 11//11 100//100 167//167 85//85
f 100//100 32//32 109//109 167//167
f 167//167 109//109 35//35 103//103
f 65//65 168//168 98//98 13//13
f 12//12 99//99 168//168 65//65
f 99//99 31//31 110//110 168//168
f 168//168 110//110 30//30 98//98
f 130//130 169//169 135//135 44//44
f 13//13 98//98 169//169 130//130
f 98//98 30//30 134//134 169//169
f 169//169 134//134 48//48 135//135
f 117//117 170//170 124//124 37//37
f 14//14 97//97 170//170 117//117
f 97//97 29//29 121//121 170//170
f 170//170 121//121 41//41 124//124
f 87//87 171//171 104//104 23//23
f 4//4 51//51 171//171 87//87
f 51//51 26//26 113//113 171//171
f 171//171 113//113 36//36 104//104
f 119//119 172//172 123//123 39//39
f 7//7 56//56 172//172 119//119
f 56//56 27//27 122//122 172//172
f 172//172 122//122 42//42 123//123
f 55//55 173//173 56//56 7//7
f 8//8 96//96 173//173 55//55
f 96//96 28//28 115//115 173//173
f 173//173 115//115 27//27 56//56
f 50//50 174//174 49//49 1//1
f 2//2 94//94 174//174 50//50
f 94//94 26//26 116//116 174//174
f 174//174 116//116 25//25 49//49
f 61//61 175//175 102//102 9//9
f 39//39 123//123 175//175 61//61
f 123//123 42//42 114//114 175//175
f 175//175 114//114 34//34 102//102
f 54//54 176//176 96//96 8//8
f 37//37 124//124 176//176 54//54
f 124//124 41//41 112//112 176//176
f 176//176 112//112 28//28 96//96
f 58//58 177//177 59//59 5//5
f 6//6 120//120 177//177 58//58
f 120//120 40//40 125//125 177//177
f 177//177 125//125 38//38 59//59
f 112//112 178//178 57//57 28//28
f 41//41 126//126 178//178 112//112
f 126//126 40//40 120//120 178//178
f 178//178 120//120 6//6 57//57
f 114//114 179//179 78//78 34//34
f 42//42 127//127 179//179 114//114
f 127//127 38//38 118//118 179//179
f 179//179 118//118 17//17 78//78
f 84//84 180//180 61//61 9//9
f 14//14 117//117 180//180 84//84
f 117//117 37//37 128//128 180//180
f 180//180 128//128 39//39 61//61
f 66//66 181//181 97//97 14//14
f 44//44 135//135 181//181 66//66
f 135//135 48//48 111//111 181//181
f 181//181 111//111 29//29 97//97
f 62//62 182//182 101//101 10//10
f 43//43 136//136 182//182 62//62
f 136//136 47//47 107//107 182//182
f 182//182 107//107 33//33 101//101
f 83//83 183//183 62//62 10//10
f 13//13 130//130 183//183 83//83
f 130//130 44//44 137//137 183//183
f 183//183 137//137 43//43 62//62
f 79//79 184//184 69//69 17//17
f 18//18 132//132 184//184 79//79
f 132//132 46//46 138//138 184//184
f 184//184 138//138 45//45 69//69
f 107//107 185//185 77//77 33//33
f 47//47 139//139 185//185 107//107
f 139//139 45//45 131//131 185//185
f 185//185 131//131 16//16 77//77
f 111//111 186//186 73//73 29//29
f 48//48 140//140 186//186 111//111
f 140//140 46//46 132//132 186//186
f 186//186 132//132 18//18 73//73
# 184 faces, 0 coords texture

# End of File
