# Blender v2.80 (sub 72) OBJ File: 'wirecube.blend'
# www.blender.org
mtllib wirecube.mtl
o Cube
v 1.000000 -1.000000 1.000000
v 1.000000 -1.000000 -1.000000
v -1.000000 -1.000000 1.000000
v -1.000000 -1.000000 -1.000000
v 1.000000 1.000000 1.000000
v 1.000000 1.000000 -1.000000
v -1.000000 1.000000 1.000000
v -1.000000 1.000000 -1.000000
v -0.800000 0.800000 1.000000
v -0.800000 0.800000 -1.000000
v -0.800000 -0.800000 1.000000
v -0.800000 -0.800000 -1.000000
v 0.800000 0.800000 1.000000
v 0.800000 0.800000 -1.000000
v 0.800000 -0.800000 1.000000
v 0.800000 -0.800000 -1.000000
v 0.200000 -0.200000 0.000000
v -0.800000 -1.000000 -0.800000
v -0.800000 1.000000 -0.800000
v -0.000000 -0.200000 0.200000
v 0.800000 -1.000000 -0.800000
v 0.800000 1.000000 -0.800000
v -0.800000 -1.000000 0.800000
v -0.800000 1.000000 0.800000
v -0.200000 0.000000 -0.200000
v 0.800000 -1.000000 0.800000
v 0.800000 1.000000 0.800000
v 0.000000 -0.200000 -0.200000
v 1.000000 -0.800000 0.800000
v -1.000000 -0.800000 0.800000
v 1.000000 -0.800000 -0.800000
v -1.000000 -0.800000 -0.800000
v 1.000000 0.800000 -0.800000
v -1.000000 0.800000 -0.800000
v 0.800000 0.800000 -0.320000
v 0.800000 0.800000 -0.320000
v -0.800000 0.800000 0.320000
v -0.800000 0.800000 0.800000
v 1.000000 0.800000 0.800000
v -1.000000 0.800000 0.800000
v -0.800000 0.800000 0.320000
v 0.800000 -0.800000 0.320000
v 0.800000 -0.800000 0.320000
v 0.800000 0.800000 -0.320000
v -0.800000 -0.400000 1.000000
v -0.800000 0.400000 -1.000000
v -0.320000 0.800000 0.800000
v -0.320000 0.800000 0.800000
v -0.320000 0.800000 0.800000
v 0.200000 0.200000 0.000000
v 0.800000 -0.400000 -1.000000
v 0.800000 0.400000 1.000000
v 0.800000 -0.400000 -1.000000
v -0.800000 -0.400000 1.000000
v -0.800000 0.400000 -1.000000
v 0.400000 0.800000 -1.000000
v -0.400000 0.800000 1.000000
v -0.320000 0.800000 0.800000
v 0.400000 -0.800000 1.000000
v -0.400000 -0.800000 -1.000000
v 0.200000 0.000000 -0.200000
v -1.000000 0.800000 0.400000
v -1.000000 -0.800000 -0.400000
v -1.000000 -0.400000 0.800000
v 1.000000 -0.400000 -0.800000
v 1.000000 0.800000 -0.400000
v -1.000000 0.400000 -0.800000
v -1.000000 0.800000 0.400000
v 1.000000 -0.800000 0.400000
v 1.000000 0.400000 0.800000
v -0.200000 -0.200000 0.000000
v 0.000000 0.200000 -0.200000
v -0.200000 -0.000000 0.200000
v 0.800000 -1.000000 -0.400000
v 0.400000 1.000000 0.800000
v -0.200000 0.200000 0.000000
v 0.800000 1.000000 0.400000
v 0.400000 -1.000000 -0.800000
v -0.000000 0.200000 0.200000
v -0.400000 1.000000 -0.800000
v -0.400000 -1.000000 0.800000
v 0.200000 0.000000 0.200000
v -0.800000 1.000000 -0.400000
v -0.800000 -1.000000 0.400000
vt 0.625000 0.000000
vt 0.600000 0.025000
vt 0.550000 0.025000
vt 0.375000 0.250000
vt 0.450000 0.275000
vt 0.400000 0.275000
vt 0.400000 0.575000
vt 0.375000 0.750000
vt 0.375000 0.500000
vt 0.625000 0.750000
vt 0.600000 0.775000
vt 0.550000 0.775000
vt 0.125000 0.500000
vt 0.200000 0.525000
vt 0.150000 0.525000
vt 0.625000 0.500000
vt 0.700000 0.525000
vt 0.650000 0.525000
vt 0.400000 0.825000
vt 0.400000 0.975000
vt 0.375000 1.000000
vt 0.400000 0.075000
vt 0.400000 0.225000
vt 0.375000 0.250000
vt 0.600000 0.675000
vt 0.625000 0.500000
vt 0.625000 0.750000
vt 0.375000 0.750000
vt 0.300000 0.725000
vt 0.350000 0.725000
vt 0.550000 0.475000
vt 0.600000 0.475000
vt 0.875000 0.750000
vt 0.800000 0.725000
vt 0.850000 0.725000
vt 1.000000 0.000000
vt 0.000000 1.000000
vt 0.000000 0.000000
vt 1.000000 0.000000
vt 0.000000 1.000000
vt 0.000000 0.000000
vt 1.000000 0.000000
vt 0.000000 1.000000
vt 0.000000 0.000000
vt 0.400000 0.025000
vt 0.375000 0.000000
vt 0.625000 0.250000
vt 0.600000 0.175000
vt 0.600000 0.225000
vt 0.625000 0.250000
vt 0.600000 0.275000
vt 0.400000 0.475000
vt 0.400000 0.425000
vt 0.450000 0.525000
vt 0.600000 0.525000
vt 0.400000 0.525000
vt 0.400000 0.725000
vt 0.400000 0.775000
vt 0.625000 1.000000
vt 0.600000 0.925000
vt 0.600000 0.975000
vt 0.375000 0.500000
vt 0.350000 0.525000
vt 0.150000 0.725000
vt 0.125000 0.750000
vt 0.150000 0.575000
vt 0.875000 0.500000
vt 0.850000 0.525000
vt 0.650000 0.725000
vt 0.650000 0.675000
vt 0.450000 0.975000
vt 0.450000 0.225000
vt 0.550000 0.725000
vt 0.600000 0.725000
vt 0.350000 0.675000
vt 0.600000 0.325000
vt 0.850000 0.575000
vt 1.000000 1.000000
vt 1.000000 1.000000
vt 1.000000 1.000000
vn -0.0000 0.0000 1.0000
vn -1.0000 0.0000 0.0000
vn 0.0000 1.0000 0.0000
vn 0.0000 0.0000 -1.0000
vn 0.0000 -1.0000 0.0000
vn 1.0000 0.0000 0.0000
usemtl Material
s off
f 5/1/1 13/2/1 52/3/1
f 4/4/2 63/5/2 32/6/2
f 80/7/3 6/8/3 8/9/3
f 2/10/4 16/11/4 53/12/4
f 2/13/5 74/14/5 21/15/5
f 6/16/6 66/17/6 33/18/6
f 56/19/4 10/20/4 8/21/4
f 59/22/1 11/23/1 3/24/1
f 75/25/3 7/26/3 5/27/3
f 3/28/5 84/29/5 23/30/5
f 7/26/2 68/31/2 40/32/2
f 1/33/6 69/34/6 29/35/6
f 71/36/1 50/37/1 76/38/1
f 28/39/2 79/40/2 72/41/2
f 61/42/5 73/43/5 25/44/5
f 15/45/1 1/46/1 52/3/1
f 1/46/1 5/1/1 52/3/1
f 5/1/1 7/47/1 57/48/1
f 7/47/1 9/49/1 57/48/1
f 57/48/1 13/2/1 5/1/1
f 4/4/2 3/50/2 63/5/2
f 3/50/2 30/51/2 63/5/2
f 34/52/2 8/9/2 67/53/2
f 8/9/2 4/4/2 67/53/2
f 32/6/2 67/53/2 4/4/2
f 8/9/3 7/26/3 83/54/3
f 7/26/3 24/55/3 83/54/3
f 83/54/3 19/56/3 8/9/3
f 80/7/3 22/57/3 6/8/3
f 19/56/3 80/7/3 8/9/3
f 14/58/4 6/8/4 53/12/4
f 6/8/4 2/10/4 53/12/4
f 2/10/4 4/59/4 60/60/4
f 4/59/4 12/61/4 60/60/4
f 60/60/4 16/11/4 2/10/4
f 2/13/5 1/62/5 74/14/5
f 1/62/5 26/63/5 74/14/5
f 18/64/5 4/65/5 78/66/5
f 4/65/5 2/13/5 78/66/5
f 21/15/5 78/66/5 2/13/5
f 6/16/6 5/67/6 66/17/6
f 5/67/6 39/68/6 66/17/6
f 31/69/6 2/10/6 65/70/6
f 2/10/6 6/16/6 65/70/6
f 33/18/6 65/70/6 6/16/6
f 6/8/4 14/58/4 56/19/4
f 10/20/4 55/71/4 8/21/4
f 55/71/4 12/61/4 4/59/4
f 8/21/4 55/71/4 4/59/4
f 6/8/4 56/19/4 8/21/4
f 1/46/1 15/45/1 59/22/1
f 11/23/1 54/72/1 3/24/1
f 54/72/1 9/49/1 7/47/1
f 3/24/1 54/72/1 7/47/1
f 1/46/1 59/22/1 3/24/1
f 5/27/3 6/8/3 77/73/3
f 6/8/3 22/57/3 77/73/3
f 77/73/3 27/74/3 5/27/3
f 75/25/3 24/55/3 7/26/3
f 27/74/3 75/25/3 5/27/3
f 3/28/5 4/65/5 84/29/5
f 4/65/5 18/64/5 84/29/5
f 26/63/5 1/62/5 81/75/5
f 1/62/5 3/28/5 81/75/5
f 23/30/5 81/75/5 3/28/5
f 7/26/2 8/9/2 68/31/2
f 8/9/2 34/52/2 68/31/2
f 30/51/2 3/50/2 64/76/2
f 3/50/2 7/26/2 64/76/2
f 40/32/2 64/76/2 7/26/2
f 1/33/6 2/10/6 69/34/6
f 2/10/6 31/69/6 69/34/6
f 39/68/6 5/67/6 70/77/6
f 5/67/6 1/33/6 70/77/6
f 29/35/6 70/77/6 1/33/6
f 71/36/1 17/78/1 50/37/1
f 28/39/2 20/79/2 79/40/2
f 61/42/5 82/80/5 73/43/5
l 35 36
l 37 41
l 38 9
l 9 45
l 11 45
l 48 49
l 49 47
l 16 51
l 43 42
l 14 51
l 44 36
l 46 10
l 45 11
l 51 16
l 34 32
l 34 62
l 39 29
l 40 62
l 48 58
